<?xml version="1.0" encoding="UTF-8"?>
<svg id="Layer_1" xmlns="http://www.w3.org/2000/svg" version="1.1" viewBox="0 0 512 512">
  <!-- Generator: Adobe Illustrator 30.4.0, SVG Export Plug-In . SVG Version: 2.1.4 Build 226)  -->
  <defs>
    <style>
      .st0 {
        fill: #3f3f3f;
      }
    </style>
  </defs>
  <path class="st0" d="M416,192h-10.7v-42.7c0-11.8-9.6-21.3-21.3-21.3.6-30.8-16-59.5-43-74.3-15.3-8.5-32.9-12.2-50.3-10.7-4.4.5-8.8-1.3-11.5-4.8C246.9-4,186.5-12.1,144.3,20.1c-8.4,6.4-15.7,14.2-21.6,23-44.9,2.7-80,39.9-80.1,84.9-11.8,0-21.3,9.6-21.3,21.3v256c0,58.9,47.8,106.6,106.7,106.7h170.7c58.9,0,106.6-47.8,106.7-106.7h10.7c41.2,0,74.7-33.4,74.7-74.7v-64c0-41.2-33.4-74.7-74.7-74.7ZM128,85.3c1.2,0,2.4.2,3.6.4,9.4,1.5,18.8-3.4,22.8-12.1,12.6-26.6,44.3-38.1,71-25.5,7.7,3.6,14.4,9.1,19.6,15.8,11.6,15.4,30.5,23.6,49.7,21.6,9.1-.7,18.2,1.3,26.2,5.8,12.9,7.6,20.7,21.6,20.4,36.6h-85.3c-35.3,0-64,28.7-64,64v64c0,11.8-9.6,21.3-21.3,21.3s-21.3-9.6-21.3-21.3v-64c0-35.3-28.7-64-64-64,0-23.6,19.1-42.7,42.7-42.7ZM362.7,405.3c0,35.3-28.7,64-64,64h-170.7c-35.3,0-64-28.7-64-64v-234.7h21.3c11.8,0,21.3,9.6,21.3,21.3v64c0,35.3,28.7,64,64,64s64-28.7,64-64v-64c0-11.8,9.6-21.3,21.3-21.3h106.7v234.7ZM448,330.7c0,17.7-14.3,32-32,32h-10.7v-128h10.7c17.7,0,32,14.3,32,32v64Z"/>
</svg>