<?xml version="1.0" encoding="UTF-8"?>
<svg id="Layer_1" xmlns="http://www.w3.org/2000/svg" version="1.1" viewBox="0 0 528.6 82">
  <!-- Generator: Adobe Illustrator 30.3.0, SVG Export Plug-In . SVG Version: 2.1.3 Build 182)  -->
  <defs>
    <style>
      .st0 {
        fill: #012d25;
      }
    </style>
  </defs>
  <path class="st0" d="M143.6,20.5c12.9,0,8.9,2.6-2.9,7.5-32.4,13.7-66.7,20.3-68.4,20.6h38.7c5.4,0,4.8,1.4.8,4.8-5.2,4.5-9.9,6.8-10.7,7,10.1-2.3,26.1-6.2,32.2-8,0,1.6-1.2,2.7-2.9,3.2-10.8,3.2-36.2,8.8-55.7,13.3-2.6.5-4.6-1.4-1.9-2.1,14.2-3.5,29.9-10.5,32.9-14.3.8-1,.4-1.2-1.2-1.2h-42.2c-4,0-5.7-2.2-3.2-3.1,0,0,45-9,68.7-20.7,5.4-2.7,5.4-2.6-.6-2.6h-57.9c0,0-45.4,54.7-45.4,54.7-2.7,3.2-5,2.9-6,0L.5,25.2c-1.2-3.7-.4-4.8,3.8-4.8h63L83.1,1.5l4.2-1.3c1.8-.6,2.4.3,1.6,1.3l-15.8,19h70.4ZM23.2,73.7L63.6,25H4.5c-1.2,0-1.5.8-1.2,1.7l17.4,46.6c.4,1.2,1.5,1.5,2.4.4Z"/>
  <path class="st0" d="M124.3,57.2s0-2.4,2.9-3.2l19.7-5.6c1.8-.5,2.4.3,1.6,1.2l-4.7,5.8c-.9,1.2-.6,1.4.6,1.2,4.9-1,14.8-3.6,29.4-8.2,2.2-.7,2.7,0,1.6,1.2l-5.8,7.1,16.4-4.5s0,2.4-2.9,3.2l-20.6,6c-1.8.5-2.4-.3-1.6-1.3l5.8-7c-10.1,3.5-21.9,6.7-29,8-3.9.8-4.6,0-2.8-2.2l4.9-5.9s-15.5,4.2-15.5,4.2Z"/>
  <path class="st0" d="M234.6,55.4c-10.8,3.2-29.2,7.7-38.4,7.7s-4.3-2.4-2-3.9c.2,1.5,1.7,1.5,2.8,1.5,3.9,0,12.1-2.2,12.4-3.2,0-.3-.3-.4-2.5-.4h-13.3c-7.6,0-3.1-3.3-.8-4.4-2,.7-5.4,1.8-9.2,2.8l-6.8,1.8s0-2.4,2.9-3.2l3.7-1.1c17-4.9,25.2-5.5,33.3-5.5s10.1,2.1,9.6,3.2c-.7,1.6-3.4,2.4-4.9,2.4v-.4c.5-1.4-1.8-2.4-7.6-2.4-10.5,0-14.9,2.7-15.1,3.5-.1.5,0,.7,2.1.7h9.6c8.6,0,8.9,1.3,3.2,3.9,8.7-1.7,18.7-4.8,23.9-6.2,0,1.6-1.2,2.7-2.9,3.2h0Z"/>
  <path class="st0" d="M244.8,51.4c-4,2.1-10.3,4.1-16.7,5.8,0,0-.1-2.4,2.9-3.2,7.6-2.1,11.3-3.8,16.9-6.4,12.6-15.1,19.2-23,25.3-29.5,3.7-3.9,5.9-5.5,7.2-5.5s1.5,1.7.7,4.7c-3.7,13.1-15.6,23.3-26.8,29.8l-7.8,9.5c10-3.5,21.9-6.7,29-8,3.9-.8,4.6,0,2.8,2.2l-4.9,5.9,16.4-4.5s0,2.4-2.9,3.2l-20.6,6c-1.8.5-2.4-.3-1.6-1.2l4.7-5.8c1-1.2.6-1.5-.6-1.2-6.7,1.4-14.8,3.6-29.4,8.2-1.9.5-2.7,0-1.6-1.2l7.1-8.8h0ZM278,18.8s-2.2,2.4-5.9,7c-4.6,5.5-13.8,16.6-13.8,16.6,9.9-6.5,16.9-14.8,20-23.3.2-.6.1-.8-.4-.3Z"/>
  <path class="st0" d="M280.9,57.2s0-2.3,3.1-3.2c0,0,6.7-1.8,14.9-5.6,2.3-1.1,2.4-.4,2.2,1-.9,5.9,1.6,8.9,1.6,8.9,0,0,6.9-1.5,15.3-5.9.2-2.1.2-3.4,4-4.2,2.9-.5,2.6,0,2.5,1.2,0,.9-.1,1.5-.1,2.4-.1,4.4,1.8,6.4,1.8,6.4,0,0,6.9-1.5,15.3-5.9.6-1.7,2-3.4,5.8-4.2,2.9-.5,4,.1,3.6,1.2-.4,1.3-2.1,2.4-4.8,4-.4,1.5,1.5,2.4,5,1.5,4.2-1.1,10.1-2.9,10.1-2.9,0,0,0,2.3-2.9,3.2l-5.3,1.5c-6.8,2.1-11.1,1.1-11.7-1.5-8.1,3.9-14.9,6.2-18.6,6.7-.8.1-1.4,0-2.1-.7,0,0-1.8-2.4-2.3-6.2l-.4.2c-8.1,3.9-14.9,6.2-18.6,6.7-.8.1-1.4,0-2.1-.7,0,0-2.7-3.5-2.4-8.7-5.2,2.5-13.8,4.6-13.8,4.6h0Z"/>
  <path class="st0" d="M405.9,55.4l-9,2.6c-5.6,1.7-7.7,1-8.9,0-7.5,2.7-14.7,3.6-19.1,3.6s-7.1-.2-7.6-2.3c-.5-2.3,4.6-5.7,7-6.9l-17,4.8c0-1.6,1.7-2.9,3-3.2,5.6-1.7,11.9-3.3,20.4-4.9,18.1-3.4,23-1.1,23,1.7s-2.2,3.5-4.3,4.9c0,0,.4.5,3.3-.2,4-1.1,12.1-3.3,12.1-3.3,0,0,0,2.3-2.9,3.2h0ZM386.8,50.2c-7.7,0-17.8,4.7-17.1,7.4.2.8,1.6,1.1,3.8,1.1,4,0,9.3-1.3,12.5-2.6,0,0-1-1-1-1.7s1.3-1.1,5.3-1.9c.2-.2.4-.6.4-.9,0-.9-2-1.3-4-1.3Z"/>
  <path class="st0" d="M453.9,55.4l-9,2.6c-5.6,1.7-7.7,1-8.9,0-7.5,2.7-14.7,3.6-19.1,3.6s-7.1-.2-7.6-2.3c-.5-2.3,4.6-5.7,7-6.9l-17,4.8c0-1.6,1.7-2.9,3-3.2,5.6-1.7,11.9-3.3,20.4-4.9,18.1-3.4,23-1.1,23,1.7s-2.2,3.5-4.3,4.9c0,0,.4.5,3.3-.2,4-1.1,12.1-3.3,12.1-3.3,0,0,0,2.3-2.9,3.2h0ZM434.9,50.2c-7.7,0-17.8,4.7-17.1,7.4.2.8,1.6,1.1,3.8,1.1,4,0,9.3-1.3,12.5-2.6,0,0-1-1-1-1.7s1.3-1.1,5.3-1.9c.2-.2.4-.6.4-.9,0-.9-2-1.3-4-1.3Z"/>
  <path class="st0" d="M501.2,47.2l-7.9,9.6,16.3-4.5s0,2.3-2.9,3.2l-20.6,6c-1.8.5-2.6,0-1.5-1.2l7.2-8.7s-14.2,6-31.5,10c-1.5.4-2.8,0-2.8-1.2s1.2-4.7,6-7.6c0,0-3,1.2-9.3,2.9l-6.8,1.8s0-2.4,2.9-3.2l3.6-1.1c14.8-4.2,18.4-4.7,24.2-4.7s7.9,1.6,8.9,2.7c4-1.5,7.8-3.2,7.8-3.2,11.7-14.2,19.4-23.3,25.3-29.6,3.7-3.9,5.9-5.5,7.2-5.5s1.5,1.7.7,4.7c-3.6,13.1-15.6,23.3-26.8,29.8h0ZM478.2,50.8c-6.5,0-11.4,3.2-12.1,5.3-.3.8,0,1,2.6.3,11.2-2.9,15.4-4.3,15.4-4.3-.8-.5-1.9-1.2-5.9-1.2h0ZM524.8,18.8s-2.2,2.4-5.9,7c-4.6,5.5-13.8,16.6-13.8,16.6,9.9-6.5,16.9-14.8,20-23.3.3-.6.1-.8-.4-.3Z"/>
</svg>