<?xml version="1.0" encoding="UTF-8"?>
<svg id="Layer_1" xmlns="http://www.w3.org/2000/svg" version="1.1" viewBox="0 0 512 512">
  <!-- Generator: Adobe Illustrator 30.4.0, SVG Export Plug-In . SVG Version: 2.1.4 Build 226)  -->
  <defs>
    <style>
      .st0 {
        fill: #3f3f3f;
      }
    </style>
  </defs>
  <path class="st0" d="M256.3,512H109.2c-60.3,0-109.1-48.9-109.2-109.2v-102.4c0-60.3,48.9-109.2,109.3-109.2,7.5,0,15.1.8,22.4,2.3l295.2,62.1L469.7.4l42.1,7.1-55.3,329.6c-2.2,18.4-7,36.5-14.2,53.6-32.4,73.8-105.4,121.4-186,121.4ZM109.1,233.7c-36.7,0-66.4,29.8-66.4,66.6v102.4c0,36.8,29.8,66.6,66.5,66.6h147.2c63.6,0,121.2-37.6,146.8-95.8,5.7-13.7,9.4-28.1,11.1-42.9l5.5-32.9-296.9-62.5c-4.5-1-9.2-1.4-13.8-1.4Z"/>
  <rect class="st0" x="196.9" y="208.6" width="42.7" height="229.5" transform="translate(-143.1 470.3) rotate(-78.1)"/>
  <rect class="st0" x="138.4" y="323.7" width="42.7" height="152.2" transform="translate(-264.6 472.9) rotate(-78)"/>
</svg>