<?xml version="1.0" encoding="UTF-8"?>
<svg id="Layer_1" xmlns="http://www.w3.org/2000/svg" version="1.1" viewBox="0 0 24 24">
  <!-- Generator: Adobe Illustrator 30.4.0, SVG Export Plug-In . SVG Version: 2.1.4 Build 226)  -->
  <defs>
    <style>
      .st0 {
        fill: #3f3f3f;
      }
    </style>
  </defs>
  <path class="st0" d="M24,18c0,3.4-5.2,6-12,6S0,21.4,0,18s3-4.8,7.8-5.6c.6,0,1.1.3,1.2.8,0,.5-.3,1.1-.8,1.2-3.6.6-6.2,2.2-6.2,3.7s4.1,4,10,4,10-2.1,10-4-2.6-3-6.2-3.7c-.5,0-.9-.6-.8-1.2,0-.5.6-.9,1.2-.8,4.8.9,7.8,3,7.8,5.6h0ZM11,18V2.7c0-1.4.7-2,1.2-2.3.7-.4,1.7-.5,2.5-.1,0,0,5.3,3.6,5.3,3.6.7.5,1.1,1.4,1,2.2,0,.9-.6,1.6-1.3,2l-6.7,3.3v6.7c0,.6-.4,1-1,1s-1-.4-1-1h0ZM13,9.1l5.8-2.8c.2,0,.2-.3.2-.4,0,0,0-.3-.2-.4l-5.1-3.4c0,0-.1,0-.2,0s-.2,0-.3,0c-.1,0-.2.3-.2.6v6.4h0Z"/>
</svg>