<?xml version="1.0" encoding="UTF-8"?>
<svg id="Layer_1" data-name="Layer 1" xmlns="http://www.w3.org/2000/svg" viewBox="0 0 77.37 10.23">
  <defs>
    <style>
      .cls-1 {
        fill: #fff;
      }
    </style>
  </defs>
  <path class="cls-1" d="M.3,8.06c.16-.6.35-1.25.58-1.94.23-.69.48-1.39.76-2.09.28-.7.56-1.38.85-2.03.29-.65.56-1.23.83-1.74.06-.11.14-.17.22-.18.08,0,.21.02.37.07l.43.11c.06.02.12.05.16.1.04.05.05.1.03.14-.56,1.1-1.07,2.18-1.52,3.24-.45,1.06-.84,2.06-1.17,3.01-.33.95-.58,1.81-.76,2.57.5-.7,1.09-1.47,1.76-2.31.67-.84,1.46-1.76,2.39-2.78s2.02-2.15,3.29-3.4l.24-.54c.06-.14.14-.21.24-.22.1,0,.22.01.38.06l.35.1c.06.02.12.05.16.1.04.05.05.1.03.14-.56,1.1-1.06,2.17-1.51,3.23-.44,1.06-.83,2.06-1.15,3.01s-.57,1.8-.74,2.57c.39-.54.83-1.13,1.3-1.75.48-.62,1.02-1.3,1.64-2.03.62-.73,1.32-1.52,2.12-2.38.8-.86,1.71-1.78,2.74-2.78.09-.09.16-.13.23-.13s.14.02.24.06l.28.11c.11.04.19.11.23.2.04.09,0,.2-.14.32-.95.9-1.78,1.7-2.5,2.42-.71.72-1.34,1.38-1.88,1.97-.54.6-1.03,1.15-1.47,1.67-.44.52-.85,1.01-1.25,1.49-.4.48-.8.97-1.22,1.46-.08.09-.16.15-.25.19s-.16.06-.22.06-.12,0-.17-.01c-.05,0-.11-.02-.16-.05l-.44-.18c-.12-.06-.17-.16-.16-.31.04-.4.13-.87.28-1.42.14-.55.32-1.14.53-1.76.21-.63.45-1.27.7-1.92.26-.65.52-1.28.78-1.89-.82.83-1.52,1.58-2.12,2.25-.6.67-1.13,1.28-1.59,1.85s-.9,1.1-1.31,1.62c-.41.52-.85,1.04-1.3,1.58-.08.09-.16.15-.25.19s-.16.06-.22.06-.12,0-.17-.01-.11-.02-.16-.05l-.44-.18c-.06-.02-.11-.07-.13-.13-.02-.06-.03-.12-.02-.19.04-.44.14-.96.29-1.56Z"/>
  <path class="cls-1" d="M11.81,8.67c0-.38.09-.8.26-1.24.18-.44.41-.88.71-1.31.3-.43.63-.82,1-1.16.37-.35.76-.63,1.15-.84.4-.21.78-.32,1.15-.32s.62.09.79.26c.18.18.26.4.26.67,0,.3-.09.61-.27.93-.18.32-.42.63-.71.91-.29.28-.61.51-.95.68-.34.18-.68.26-1.02.26-.43,0-.77-.1-1.01-.3-.11.25-.2.49-.26.74-.06.24-.1.47-.1.69,0,.5.26.76.79.76.59,0,1.24-.17,1.93-.52.7-.34,1.4-.81,2.12-1.4.72-.59,1.41-1.26,2.08-1.99l.34.34c-.76.87-1.54,1.64-2.33,2.29-.8.66-1.56,1.17-2.3,1.53-.74.36-1.4.55-1.98.55-.52,0-.93-.13-1.22-.4s-.44-.64-.44-1.13ZM16.08,4.8c0-.21-.1-.32-.29-.32-.23,0-.49.1-.77.31s-.57.48-.85.82c-.28.34-.53.7-.74,1.09.1.08.22.14.35.17.13.04.26.05.39.05.22,0,.45-.07.67-.21.22-.14.43-.32.62-.54.19-.22.34-.45.45-.7.11-.24.17-.47.17-.68Z"/>
  <path class="cls-1" d="M18.78,9.42s.02.06.06.06c.22,0,.53-.1.95-.29.42-.19.88-.46,1.4-.82.52-.35,1.05-.77,1.6-1.26.55-.49,1.06-1.02,1.54-1.61l.34.34c-.47.59-.99,1.15-1.56,1.68-.57.53-1.14,1-1.71,1.4s-1.11.73-1.6.96c-.5.23-.91.35-1.24.35-.17,0-.33-.07-.49-.22-.16-.15-.23-.32-.23-.52,0-.11.07-.33.2-.66.13-.33.31-.73.53-1.21s.47-1,.76-1.57.58-1.14.88-1.72c.3-.58.6-1.15.89-1.69.29-.54.56-1.03.81-1.46s.45-.79.61-1.05c.09-.14.21-.17.37-.07l.59.31c.08.04.12.11.12.2,0,.13-.23.58-.68,1.36-.45.78-1.13,1.86-2.02,3.25-.28.48-.55.95-.8,1.41-.26.46-.48.89-.68,1.28-.2.39-.35.72-.46,1s-.17.46-.17.55Z"/>
  <path class="cls-1" d="M27.09,4.38c-.23,0-.49.09-.78.26-.29.18-.58.41-.87.71-.29.3-.56.63-.8.99-.24.36-.43.73-.58,1.11-.15.38-.22.73-.22,1.06,0,.27.06.47.18.59.12.12.31.18.56.18.39,0,.83-.1,1.31-.29.48-.2.99-.47,1.53-.82s1.07-.75,1.61-1.21,1.06-.95,1.56-1.47l.34.34c-.78.85-1.56,1.59-2.36,2.23-.8.64-1.56,1.13-2.28,1.49-.72.36-1.35.53-1.88.53-.46,0-.84-.13-1.13-.39-.29-.26-.44-.63-.44-1.12,0-.38.09-.8.27-1.24.18-.44.42-.87.73-1.3s.65-.82,1.04-1.17.78-.63,1.18-.85c.4-.21.79-.32,1.17-.32s.63.08.8.23c.17.16.26.36.26.62,0,.33-.13.62-.4.88-.26.26-.57.47-.92.63-.06.03-.11.03-.14,0-.03-.04-.05-.07-.05-.11,0-.09.05-.17.14-.25.2-.17.36-.33.47-.5.12-.16.17-.3.17-.41,0-.26-.16-.4-.47-.4Z"/>
  <path class="cls-1" d="M28.98,8.64c0-.39.08-.79.25-1.2.17-.41.4-.81.68-1.21s.62-.77.98-1.11c.37-.34.76-.64,1.16-.9.41-.26.82-.45,1.22-.58.06-.02.12,0,.2.05.08.05.14.1.2.17.06.06.1.11.11.14.03.06.03.11,0,.14.35.05.61.18.76.39.16.21.23.48.23.8s-.08.69-.25,1.1c-.16.41-.39.83-.68,1.25s-.62.81-.99,1.16-.77.64-1.18.85c-.42.22-.84.32-1.26.32-.34,0-.61-.07-.83-.21-.22-.14-.38-.32-.48-.53-.1-.21-.16-.43-.16-.64ZM34,4.94c-.09-.11-.23-.17-.41-.17-.23,0-.48.1-.75.31-.27.2-.54.54-.82,1.01-.06.1-.11.17-.14.2-.03.03-.06.04-.1.04-.09,0-.18-.06-.26-.19-.09-.13-.14-.24-.14-.35-.39.4-.72.83-.98,1.3-.26.47-.4.93-.4,1.39,0,.22.06.4.17.55s.29.22.51.22c.32,0,.64-.09.97-.28.33-.18.64-.42.94-.72.3-.3.57-.62.8-.96.23-.34.42-.68.55-1.01.14-.33.2-.62.2-.87,0-.2-.05-.36-.14-.47Z"/>
  <path class="cls-1" d="M38.86,4.22s-.01.09-.04.13c-.46.67-.87,1.27-1.22,1.81-.35.53-.67,1.05-.95,1.55,1.27-1.3,2.27-2.28,2.99-2.93.72-.65,1.22-.97,1.48-.97.13,0,.23.04.31.12l.32.31s.06.09.06.15-.02.12-.05.17c-.18.27-.37.58-.56.93-.19.35-.38.71-.57,1.07-.19.37-.37.72-.53,1.04.47-.53.96-1.04,1.45-1.55.5-.5.97-.96,1.42-1.37.45-.41.85-.74,1.21-.98.35-.24.62-.37.79-.37.05,0,.09,0,.13.02.04.01.1.04.17.09l.31.22c.06.03.09.07.1.1s.02.07.02.09c0,.06-.02.11-.06.17-.36.46-.7.93-1.03,1.41s-.62.94-.88,1.38c-.26.44-.46.85-.61,1.21-.15.36-.22.67-.22.92,0,.09.04.13.12.13.28,0,.62-.09,1.03-.28.4-.18.85-.44,1.33-.77.48-.33.98-.71,1.49-1.14s1-.89,1.48-1.38l.34.32c-1.24,1.28-2.38,2.27-3.41,2.96-1.04.7-1.89,1.04-2.55,1.04-.11,0-.23-.04-.34-.12-.12-.08-.21-.19-.29-.32-.08-.13-.12-.27-.12-.4,0-.62.19-1.3.56-2.02.37-.72.87-1.47,1.49-2.26-.38.24-.83.59-1.36,1.04-.53.46-1.09,1-1.69,1.62s-1.18,1.31-1.76,2.06c-.1.13-.21.15-.32.07l-.3-.22c-.11-.08-.14-.19-.07-.34.28-.64.58-1.31.89-2,.31-.7.65-1.35,1.02-1.96-.35.2-.78.53-1.28.98-.5.45-1.06,1-1.66,1.65-.6.65-1.22,1.38-1.87,2.18-.04.06-.09.08-.15.08s-.11-.01-.15-.04l-.43-.29c-.11-.08-.14-.19-.07-.34.25-.47.48-.92.71-1.33s.45-.83.69-1.24c.24-.41.49-.84.76-1.29.27-.45.57-.94.91-1.48.04-.06.09-.11.14-.13s.14,0,.24.05l.47.24c.08.05.12.09.12.14Z"/>
  <path class="cls-1" d="M46.86,8.72c0-.4.09-.83.26-1.28s.41-.9.71-1.34.63-.84,1-1.19.75-.64,1.13-.85c.39-.21.76-.32,1.1-.32s.61.09.79.26c.18.18.26.4.26.67,0,.25-.08.53-.25.85s-.39.62-.67.9-.58.52-.92.71-.67.28-1,.28c-.2,0-.38-.04-.55-.11-.16-.07-.3-.19-.41-.35-.14.3-.26.59-.34.88-.08.29-.13.56-.13.82,0,.5.26.76.79.76.5,0,1.04-.17,1.64-.52.6-.34,1.21-.78,1.82-1.31.06-.06.13-.08.19-.08s.11.04.14.11.02.15-.05.22c-.35.44-.76.84-1.22,1.19-.46.36-.93.64-1.4.85s-.89.32-1.28.32c-.52,0-.93-.13-1.22-.39s-.44-.62-.44-1.09ZM50.79,4.43c-.19,0-.42.09-.67.28-.26.19-.52.44-.78.74-.26.31-.51.65-.73,1.01.1.12.21.21.33.27s.25.09.37.09c.22,0,.44-.08.65-.23.21-.15.4-.34.57-.56.17-.22.3-.45.4-.68.1-.23.15-.43.15-.6,0-.22-.1-.32-.29-.32Z"/>
  <path class="cls-1" d="M56.59,9.31c0-.15.07-.4.2-.74.13-.34.31-.74.53-1.21.22-.46.47-.95.74-1.47.28-.52.56-1.03.86-1.54-.37.06-.78.12-1.22.2-.07,0-.14-.06-.22-.19-.07-.12-.11-.25-.11-.37,0-.1.06-.16.17-.17.35-.04.68-.08.97-.11.29-.04.58-.07.84-.1.22-.36.44-.7.65-1.01s.4-.59.58-.83c.06-.07.11-.11.16-.12s.12,0,.21.05l.52.24c.14.06.17.16.07.3-.14.19-.29.39-.43.61-.14.21-.28.43-.43.64.28-.02.57-.05.88-.07.31-.02.65-.05,1.01-.07.05,0,.09.03.12.13.03.09.05.18.05.27,0,.09-.02.13-.08.13-.46.05-.89.09-1.27.14s-.76.09-1.14.15c-.37.59-.72,1.18-1.04,1.78-.33.59-.62,1.13-.87,1.63-.25.49-.45.9-.6,1.21-.15.32-.22.5-.22.54s.02.07.06.07c.25,0,.58-.08,1.01-.23.42-.16.91-.39,1.45-.71.54-.32,1.12-.72,1.73-1.21.61-.49,1.23-1.06,1.84-1.73l.34.34c-.58.66-1.18,1.25-1.8,1.78s-1.22.99-1.8,1.36c-.58.38-1.12.66-1.61.86-.49.2-.91.3-1.25.3-.3,0-.52-.09-.67-.26-.15-.17-.23-.36-.23-.57Z"/>
  <path class="cls-1" d="M67.92,5.4c0,.24-.05.51-.14.8s-.23.59-.4.89c.21-.03.39-.07.55-.13.16-.05.3-.1.41-.15.2-.09.34-.13.43-.13s.13.04.13.11-.08.17-.25.28c-.17.11-.39.22-.67.32-.28.1-.58.17-.92.22-.28.42-.61.81-.99,1.17-.38.36-.78.66-1.21.89s-.86.34-1.29.34c-.34,0-.63-.07-.85-.21-.22-.14-.39-.32-.5-.54-.11-.22-.16-.44-.16-.67,0-.43.1-.88.31-1.35.2-.47.48-.93.82-1.37.34-.45.73-.86,1.15-1.22.42-.37.86-.67,1.31-.9.25.12.4.26.47.42.19-.05.38-.07.55-.07.38,0,.68.11.91.34.23.22.35.54.35.96ZM63.06,8.57c0,.45.23.68.68.68.3,0,.61-.07.91-.22s.59-.34.86-.58c.28-.24.53-.51.76-.81-.62-.03-1.09-.2-1.42-.49s-.5-.69-.5-1.19v-.06c-.38.41-.69.84-.93,1.3-.24.46-.37.92-.37,1.37ZM66.51,4.74c-.18,0-.38.05-.58.14-.2.09-.38.23-.52.42-.14.19-.22.42-.22.71s.07.51.2.67.31.27.53.34c.22.06.47.1.73.12.18-.3.33-.61.44-.91.11-.3.17-.57.17-.81,0-.45-.25-.67-.76-.67Z"/>
  <path class="cls-1" d="M68.35,9.54c0-.06.03-.14.09-.26.06-.12.13-.24.22-.37s.17-.24.25-.32c.08-.09.15-.13.2-.13.09,0,.21.03.36.1.15.07.29.15.41.25.12.1.19.2.19.3,0,.04-.01.08-.04.11-.03.03-.06.07-.1.11-.32.26-.57.5-.74.71-.1,0-.21-.02-.34-.06s-.24-.1-.34-.17c-.1-.07-.15-.16-.15-.25Z"/>
  <path class="cls-1" d="M72,9.54c0-.06.03-.14.09-.26.06-.12.13-.24.22-.37s.17-.24.25-.32c.08-.09.15-.13.2-.13.09,0,.21.03.36.1.15.07.29.15.41.25.12.1.19.2.19.3,0,.04-.01.08-.04.11-.03.03-.06.07-.1.11-.32.26-.57.5-.74.71-.1,0-.21-.02-.34-.06s-.24-.1-.34-.17c-.1-.07-.15-.16-.15-.25Z"/>
  <path class="cls-1" d="M75.65,9.54c0-.06.03-.14.09-.26.06-.12.13-.24.22-.37s.17-.24.25-.32c.08-.09.15-.13.2-.13.09,0,.21.03.36.1.15.07.29.15.41.25.12.1.19.2.19.3,0,.04-.01.08-.04.11-.03.03-.06.07-.1.11-.32.26-.57.5-.74.71-.1,0-.21-.02-.34-.06s-.24-.1-.34-.17c-.1-.07-.15-.16-.15-.25Z"/>
</svg>