<?xml version="1.0" encoding="UTF-8"?>
<svg id="Layer_1" data-name="Layer 1" xmlns="http://www.w3.org/2000/svg" viewBox="0 0 53.67 9.35">
  <defs>
    <style>
      .cls-1 {
        fill: #fff;
      }
    </style>
  </defs>
  <path class="cls-1" d="M9.76,0c-1.52,3.09-3.01,6.26-4.44,9.35h-1.13c.07-2,.14-4.1.32-6.1-1.17,2.02-2.28,4.1-3.36,6.1H0C.54,6.26,1.15,3.09,1.82,0h.91c-.61,2.63-1.16,5.31-1.64,7.95,1.1-2.04,2.23-4.14,3.44-6.15h.9c-.18,2.03-.26,4.14-.32,6.19,1.25-2.65,2.48-5.35,3.73-7.99h.92Z"/>
  <path class="cls-1" d="M13.39,6.09c-.54,1.21-1.46,2.3-3.18,2.3-1.22-.01-1.99-.77-1.99-1.83,0-1.61,1.03-3.05,2.43-3.05.9,0,1.33.67,1.33,1.29,0,1.38-1.46,2.14-2.9,1.81.06.6.46,1.03,1.31,1.03,1.21,0,2.09-.88,2.82-2.24l.18.68ZM9.11,6c.97.24,2.05-.28,2.05-1.14,0-.32-.19-.61-.55-.61-.74,0-1.34.82-1.5,1.75Z"/>
  <path class="cls-1" d="M16.02,6.09c-.46,1.02-1.44,2.3-2.4,2.3-1.14,0-1.25-.9-.66-2.75.4-1.25,1.06-3.07,1.69-4.85h.89c-.78,2.09-1.42,3.89-1.75,4.96-.46,1.38-.48,1.82,0,1.82.54,0,1.38-.94,2.06-2.17l.17.67Z"/>
  <path class="cls-1" d="M20.3,6.09c-.55,1.21-1.46,2.3-3.18,2.3-1.03,0-1.83-.71-1.83-1.9,0-1.57,1.07-3,2.36-3,1.12,0,1.63,1.07,1.27,2.12h-.86c.25-.79,0-1.36-.5-1.36-.76,0-1.4,1.1-1.4,2.15,0,.8.49,1.24,1.15,1.24,1.2,0,2.09-.88,2.82-2.24l.18.68Z"/>
  <path class="cls-1" d="M25.38,5.6c-.41.36-1.18.66-1.89.44-.29,1.22-1.16,2.35-2.41,2.35-.94,0-1.55-.73-1.55-1.7,0-1.67,1.09-3.19,2.53-3.19,1.03,0,1.52.89,1.52,1.7v.1c.55.22,1.28.1,1.69-.42l.11.72ZM22.73,5.25c0-.54-.26-1-.8-1-.83,0-1.55,1.25-1.55,2.35,0,.66.34,1.01.8,1.01.82,0,1.55-1.28,1.55-2.36Z"/>
  <path class="cls-1" d="M29.6,7.4c0-.95.96-2,.96-2.7,0-.28-.13-.42-.41-.42-1.21,0-2.05,2.19-2.58,3.99h-.9c.88-2.35,1.12-3.03,1.12-3.56,0-.28-.14-.43-.4-.43-1.12,0-2.04,2-2.6,3.99h-.84c.49-1.55,1.02-3.11,1.54-4.65h.82l-.38,1.08c.42-.64,1.13-1.2,1.85-1.2.6,0,.96.44.84,1.19.52-.78,1.19-1.19,1.87-1.19.6,0,.98.4.98,1,0,.8-1,2.06-1,2.73,0,.24.11.36.35.36.56,0,1.36-.98,2.03-2.16l.18.67c-.47,1.02-1.46,2.29-2.41,2.29-.62,0-1.01-.38-1.01-1Z"/>
  <path class="cls-1" d="M36.71,7.12c-.44.62-1.34,1.27-2.45,1.27-1.22-.01-1.99-.77-1.99-1.83,0-1.61,1.03-3.05,2.43-3.05.9,0,1.33.67,1.33,1.29,0,1.3-1.48,2.12-2.9,1.81.06.6.46,1.03,1.31,1.03.68,0,1.46-.61,1.81-1.1l.46.58ZM33.16,5.98c.97.23,2.05-.34,2.05-1.13,0-.32-.19-.61-.55-.61-.74,0-1.34.82-1.5,1.74Z"/>
  <path class="cls-1" d="M42.31,6.09c-.46,1.02-1.44,2.3-2.4,2.3-1.61,0-1.2-1.96-.47-4.07h-.65l.24-.71h.66c.22-.6.44-1.2.65-1.76h.86c-.25.65-.48,1.24-.67,1.76h1.09l-.25.71h-1.1c-.76,2.18-.9,3.26-.19,3.26.54,0,1.39-.94,2.06-2.17l.17.67Z"/>
  <path class="cls-1" d="M41.53,6.69c0-1.67,1.09-3.19,2.53-3.19,1.03,0,1.52.89,1.52,1.7,0,1.5-.98,3.19-2.51,3.19-.94,0-1.55-.73-1.55-1.7ZM44.73,5.25c0-.54-.26-1-.8-1-.83,0-1.55,1.25-1.55,2.35,0,.66.34,1.01.8,1.01.82,0,1.55-1.28,1.55-2.36Z"/>
  <path class="cls-1" d="M45.92,7.9c0-.4.35-.74.66-.73.26,0,.44.17.44.44,0,.41-.36.74-.68.74-.25,0-.42-.19-.42-.46Z"/>
  <path class="cls-1" d="M49.25,7.9c0-.4.35-.74.66-.73.26,0,.44.17.44.44,0,.41-.36.74-.68.74-.25,0-.42-.19-.42-.46Z"/>
  <path class="cls-1" d="M52.57,7.9c0-.4.35-.74.66-.73.26,0,.44.17.44.44,0,.41-.36.74-.68.74-.25,0-.42-.19-.42-.46Z"/>
</svg>