<?xml version="1.0" encoding="UTF-8"?>
<svg id="Layer_1" data-name="Layer 1" xmlns="http://www.w3.org/2000/svg" viewBox="0 0 63.18 14.27">
  <defs>
    <style>
      .cls-1 {
        fill: #fff;
      }
    </style>
  </defs>
  <path class="cls-1" d="M4.02,5.34c-.61,1.45-1.55,6.26-1.7,8.34-.1.19-.6.05-.94-.07C-.17,11.89-.3,4.03.43.39c.14-.17,1.36.03,1.29.53-.65,4.9-.39,8.83.1,10.11l.08-.09c.41-3.3,1.6-6.91,2.42-9.05.17-.39,1.43.24,1.46.36-.54,2.84-.48,5.61.24,8.92C6.59,7.54,8.25.77,8.85.44c.29-.15,1.19.34,1.09.53-1.48,3.83-2.5,8.23-3.2,13.24-.27.05-.7.17-1.26-.15-.63-.36-1.22-6.01-1.34-8.71h-.12Z"/>
  <path class="cls-1" d="M11.16,3.52c.65,0,1.4.51,1.4,2.08,0,2.18-.6,4.15-1.94,4.15-.73,0-.99-.71-.99-.71,0,0-.31.9-.31,2.28,0,.8.31,1.4,1.17,1.4,1.31,0,2.36-2.13,2.36-3.25,0,0,0-.19.24-.19.27,0,.49.34.49.82,0,1.48-.92,3.98-2.81,3.98-1.31,0-2.54-1.21-2.54-3.33,0-2.84,1.41-7.21,2.91-7.21ZM10.26,8.73c.6,0,1.11-1.92,1.11-3.49,0-.71-.12-.8-.2-.8-.07,0-.15.07-.25.31-.41.92-.88,2.31-1.07,3.56,0,0,.08.43.43.43Z"/>
  <path class="cls-1" d="M13.15,11.19c.15-2.64.94-8.13,1.53-11.04.03-.14.17-.15.25-.15.41,0,1.14.46,1.09.77-.61,3.59-1.22,7.47-1.45,11.18-.03.46-.07.92-.09,1.38-.19.29-1.28-.31-1.36-.6-.1-.24-.02-.99.02-1.53Z"/>
  <path class="cls-1" d="M18.73,4.15c.87,0,1.7.82,1.7,1.74,0,1.6-.65,2.35-1.26,2.35-.48,0-.75-.31-.75-.82v-.1s.58-.63.58-1.75c0-.26-.1-.41-.31-.41-.88,0-1.72,2.67-1.72,5.27,0,1.58.48,2.08,1.19,2.08,1.4,0,2.4-2.18,2.5-3.23,0,0,.17-.02.27-.02.2,0,.53.15.53.95,0,.6-.66,3.42-2.99,3.42-1.74,0-2.91-1.51-2.91-3.74s1-5.73,3.16-5.73Z"/>
  <path class="cls-1" d="M23,3.73c.22.12.39.27.44.43,0,0,.24-.2.6-.2,1.79,0,2.08,1.65,2.02,3.42-.07,1.87-.71,5.92-2.91,5.92-1.79,0-2.43-2.35-2.38-4.22.08-2.21,1.16-5.02,2.23-5.34ZM22.84,12.1c1.58,0,2.11-4.54,2.14-5.55.02-.49.12-1.7-.56-1.7-.99,0-1.79,2.98-1.96,3.95-.02.07-.39-.07-.49-.15,0,0-.1.48-.12,1.11-.05,1.29.29,2.35.99,2.35Z"/>
  <path class="cls-1" d="M29.2,7.38c-.53,1.5-1.34,4.03-1.33,5.63,0,0-.22.26-.58.26-.76,0-1.14-.82-1.14-2.21,0-2.94.8-7.04,1.19-7.04.53,0,1.07.34,1.02.6-.34,1.68-.87,3.86-.87,4.97h.07c.65-1.89,1.24-3.64,1.77-4.9.07-.15.22-.15.37-.15.46,0,1.14.22,1.09.77-.1,1.21-.37,3.1-.41,4.44h.07c.65-1.89,1.21-4.07,2.16-5.9.07-.15.22-.15.37-.15.46,0,1.24.31,1.19.85-.14,1.74-1.04,4.3-1.04,6.21,0,.87.22,1.29.7,1.29.56,0,.9-.9,1.04-1.34,0,0,.37.03.37.46,0,.73-.73,2.04-1.92,2.04s-1.48-1.23-1.48-2.6c0-.73.34-2.5.51-3.37h-.2c-.7,1.51-1.5,4.7-1.48,6.29,0,0-.22.25-.58.25-.77,0-.9-.73-.92-2.02-.02-1.41.05-3.01.17-4.36h-.15Z"/>
  <path class="cls-1" d="M37.32,3.52c.65,0,1.4.51,1.4,2.08,0,2.18-.6,4.15-1.94,4.15-.73,0-.99-.71-.99-.71,0,0-.31.9-.31,2.28,0,.8.31,1.4,1.17,1.4,1.31,0,2.36-2.13,2.36-3.25,0,0,0-.19.24-.19.27,0,.49.34.49.82,0,1.48-.92,3.98-2.81,3.98-1.31,0-2.54-1.21-2.54-3.33,0-2.84,1.41-7.21,2.91-7.21ZM36.42,8.73c.6,0,1.11-1.92,1.11-3.49,0-.71-.12-.8-.2-.8-.07,0-.15.07-.25.31-.41.92-.88,2.31-1.07,3.56,0,0,.08.43.43.43Z"/>
  <path class="cls-1" d="M42.37,4.68c.19-.15.97-.36,1.82-.53.31-1.16.61-2.02.8-2.16.29-.2,1.17.44,1.12.63l-.34,1.26c.32-.05.6-.08.8-.1.37-.03.7-.1.8.12.1.24.25.05.46.26.08.08.36.46.36.56,0,.12-.03.25-.25.25-.7.02-1.65.14-2.52.27-.56,2.18-1.09,4.59-1.09,6.14,0,.44.19.71.54.71,1,0,2.38-1.21,2.45-2.11,0,0,.61-.15.61.87,0,1.16-1.62,2.48-2.71,2.48-1.16,0-2.13-1.21-2.13-2.96,0-1.02.34-3.06.77-4.88l-.77.17c-.44.1-.97-.78-.73-.99Z"/>
  <path class="cls-1" d="M49.49,3.73c.22.12.39.27.44.43,0,0,.24-.2.6-.2,1.79,0,2.08,1.65,2.02,3.42-.07,1.87-.71,5.92-2.91,5.92-1.79,0-2.43-2.35-2.38-4.22.08-2.21,1.16-5.02,2.23-5.34ZM49.34,12.1c1.58,0,2.11-4.54,2.14-5.55.02-.49.12-1.7-.56-1.7-.99,0-1.79,2.98-1.96,3.95-.02.07-.39-.07-.49-.15,0,0-.1.48-.12,1.11-.05,1.29.29,2.35.99,2.35Z"/>
  <path class="cls-1" d="M54.14,10.75c.29,0,.75.29.75,1,0,.46-.22,1.82-1.12,1.82-.46,0-.73-.12-.61-.61-.29-.12-.54-.31-.54-.75,0-.49.39-1.46,1.53-1.46Z"/>
  <path class="cls-1" d="M58.29,10.75c.29,0,.75.29.75,1,0,.46-.22,1.82-1.12,1.82-.46,0-.73-.12-.61-.61-.29-.12-.54-.31-.54-.75,0-.49.39-1.46,1.53-1.46Z"/>
  <path class="cls-1" d="M62.44,10.75c.29,0,.75.29.75,1,0,.46-.22,1.82-1.12,1.82-.46,0-.73-.12-.61-.61-.29-.12-.54-.31-.54-.75,0-.49.39-1.46,1.53-1.46Z"/>
</svg>