<?xml version="1.0" encoding="UTF-8"?>
<svg id="Layer_1" data-name="Layer 1" xmlns="http://www.w3.org/2000/svg" viewBox="0 0 49.99 9.32">
  <defs>
    <style>
      .cls-1 {
        fill: #fff;
      }
    </style>
  </defs>
  <path class="cls-1" d="M.17,8.35V3.51C.17,1.62.11,1.09,0,.72c.1-.07.32-.18.64-.18.65,0,.65.52.65,1.55,0,1.79-.01,3.41-.05,5.76h.05c.48-1.01,1.44-3.21,2.11-5.11.22-.61.32-1.08.32-1.73.1-.07.24-.18.55-.18.42,0,.59.28.59.9,0,1.02-.05,2.64-.2,6.02l.06.02c1.16-1.97,2.6-5.75,3.09-7.34.4,0,.71.1.71.43,0,.48-.52,1.62-3.06,6.6-.41.8-.64,1.31-.68,1.8,0,0-.17.02-.4.02-.75,0-.84-.31-.84-.82,0-.46.05-1.25.18-4.83h-.04c-.49,1.13-1.13,2.59-1.43,3.31-.59,1.42-.79,1.86-.86,2.35,0,0-.18.02-.41.02-.82,0-.82-.4-.82-.97Z"/>
  <path class="cls-1" d="M7.48,7.27c0-2.18,1.62-4.21,2.92-4.21.22,0,.31.1.4.36h.1c.14-.6.28-.84.58-.84.23,0,.42.13.5.2-.7,2.11-.77,3.38-2.06,3.38-.36,0-.78-.14-1.12-.28-.19.58-.3,1.2-.3,1.77,0,.44.06,1.1.6,1.1s1.39-.62,1.8-1.63l.12.06c-.26,1-.71,2.03-1.83,2.03s-1.69-.78-1.69-1.96ZM10.82,3.68s-.1-.07-.2-.07c-.66,0-1.34.91-1.75,2.03.25.11.58.22.84.22.68,0,.84-.84,1.12-2.17Z"/>
  <path class="cls-1" d="M11.58,8.41c0-1.04,1.15-5.25,1.79-7.56.05-.18.17-.59.2-.85.73,0,.97.18.97.55,0,.31-.8,2.63-1.68,6.09-.18.73-.26,1.42-.26,1.6,0,.2.04.28.1.32.49-.38,1.15-1.57,1.15-1.57l.12.06s-.78,2.17-1.63,2.17c-.54,0-.76-.32-.76-.82Z"/>
  <path class="cls-1" d="M14.15,7.27c0-2.17,1.62-4.21,2.92-4.21.22,0,.31.1.4.36h.06c.14-.53.34-.84.64-.84.2,0,.47.17.55.26-.28.37-1.02,1.69-1.31,2.48l-.16-.07c.06-.61.12-1.16.22-1.59-.04-.02-.08-.05-.17-.05-1.03,0-2.13,2.17-2.13,4.05,0,.44.05,1.1.52,1.1.52,0,1.39-.62,1.8-1.63l.12.06c-.26,1-.71,2.03-1.83,2.03-1.06,0-1.61-.78-1.61-1.96Z"/>
  <path class="cls-1" d="M18.02,7.27c0-2.15,1.73-4.45,3.38-4.45.22,0,.34.06.34.24,0,.14-.05.31-.05.31-1.5,0-2.66,2.46-2.66,4.29,0,.6.1,1.12.5,1.12.72,0,1.83-1.91,1.83-3.53,0-.85-.25-1.43-.25-1.43,0,0,.23-.12.59-.12.7,0,.72.78.72,1.26,0,2.13-1.51,4.26-2.95,4.26-.96,0-1.45-.84-1.45-1.96Z"/>
  <path class="cls-1" d="M28.47,8.59c0-.91.42-3.17,1.07-4.81h-.04c-1.1.9-2.39,2.83-3.41,5.33-.53,0-.66-.12-.66-.49,0-.9.66-3.39,1.12-4.8h-.04c-.64.64-2.31,3.05-3.37,5.29-.49,0-.66-.05-.66-.43,0-.5.91-3.31,1.4-4.93.11-.37.18-.66.18-.76.68.02.86.17.86.37,0,.29-.25.97-.94,3.29h.04c1.45-2.18,2.55-3.63,3.08-3.63.16,0,.46.08.59.32,0,0-.83,2.77-.92,3.31h.04c1.52-2.35,2.73-3.71,3.36-3.71.26,0,.5.19.64.43-.56,1.19-1.39,3.9-1.39,5.23.47-.46,1.03-1.61,1.03-1.61l.12.06s-.71,2.18-1.54,2.18c-.32,0-.56-.26-.56-.65Z"/>
  <path class="cls-1" d="M30.9,7.27c0-2.18,1.62-4.21,2.92-4.21.22,0,.31.1.4.36h.1c.14-.6.28-.84.58-.84.23,0,.42.13.5.2-.7,2.11-.77,3.38-2.06,3.38-.36,0-.78-.14-1.12-.28-.19.58-.3,1.2-.3,1.77,0,.44.06,1.1.6,1.1s1.39-.62,1.8-1.63l.12.06c-.26,1-.71,2.03-1.83,2.03s-1.69-.78-1.69-1.96ZM34.25,3.68s-.1-.07-.2-.07c-.66,0-1.34.91-1.75,2.03.25.11.58.22.84.22.68,0,.84-.84,1.12-2.17Z"/>
  <path class="cls-1" d="M37.32,8.41c0-.65.54-2.53,1.09-4.4-.11.01-.2.01-.26.01-.32,0-.42-.17-.42-.35,0-.19.06-.28.06-.28.14.01.29.01.43.01h.36c.16-.48.37-1.1.37-1.33.68.02.86.17.86.37,0,.1-.08.42-.2.88.32-.04.61-.06.84-.06.14,0,.2.06.2.19,0,.08-.02.25-.02.25-.29.02-.72.08-1.16.16-.32,1.19-1.15,3.77-1.15,4.51,0,.12.04.19.1.24.49-.38,1.15-1.62,1.15-1.62l.12.06s-.8,2.17-1.66,2.17c-.54,0-.71-.32-.71-.82Z"/>
  <path class="cls-1" d="M40.12,7.27c0-2.15,1.73-4.45,3.38-4.45.22,0,.34.06.34.24,0,.14-.05.31-.05.31-1.5,0-2.66,2.46-2.66,4.29,0,.6.1,1.12.5,1.12.72,0,1.83-1.91,1.83-3.53,0-.85-.25-1.43-.25-1.43,0,0,.23-.12.59-.12.7,0,.72.78.72,1.26,0,2.13-1.51,4.26-2.95,4.26-.96,0-1.45-.84-1.45-1.96Z"/>
  <path class="cls-1" d="M44.7,9.06c.24-.85.25-1.45.25-1.45.25,0,.91.06.91.47,0,.48-.42,1.15-.84,1.15-.11,0-.22-.05-.32-.17Z"/>
  <path class="cls-1" d="M46.76,9.06c.24-.85.25-1.45.25-1.45.25,0,.91.06.91.47,0,.48-.42,1.15-.84,1.15-.11,0-.22-.05-.32-.17Z"/>
  <path class="cls-1" d="M48.83,9.06c.24-.85.25-1.45.25-1.45.25,0,.91.06.91.47,0,.48-.42,1.15-.84,1.15-.11,0-.22-.05-.32-.17Z"/>
</svg>