<?xml version="1.0" encoding="UTF-8"?>
<svg id="Layer_1" data-name="Layer 1" xmlns="http://www.w3.org/2000/svg" viewBox="0 0 64.29 10.76">
  <defs>
    <style>
      .cls-1 {
        fill: #fff;
      }
    </style>
  </defs>
  <path class="cls-1" d="M.91,10.67c-.29,0-.51-.15-.69-.45-.09-.16-.15-.34-.18-.54-.03-.2-.05-.4-.05-.61,0-.3.02-.59.07-.87s.1-.51.15-.69c.04-.15.1-.39.19-.73.09-.34.18-.73.29-1.17.1-.44.21-.89.31-1.36.1-.46.18-.9.24-1.3.06-.4.09-.73.09-.98,0-.3-.02-.55-.05-.76-.03-.21-.06-.4-.08-.58.04-.02.1-.04.19-.04.2,0,.39.1.57.31s.29.39.34.55c.05.14.07.33.07.59,0,.38-.04.83-.13,1.34-.09.51-.19.99-.31,1.46-.12.46-.22.83-.31,1.09-.07.24-.16.55-.27.96-.11.4-.21.81-.31,1.24-.1.42-.18.78-.23,1.08s-.07.46-.05.5c.08-.16.19-.37.35-.61.16-.25.33-.5.5-.75.17-.25.31-.47.41-.64.48-.78,1-1.57,1.55-2.38.55-.81,1.06-1.59,1.51-2.35.46-.76.77-1.45.95-2.07.19-.05.33-.02.45.09.11.11.2.25.25.42.06.17.09.31.1.44,0,.04,0,.08,0,.12,0,.04,0,.08,0,.12,0,.41-.09.9-.26,1.47-.17.57-.39,1.34-.65,2.32-.05.21-.13.5-.23.87s-.22.76-.33,1.16c-.12.4-.22.77-.32,1.1-.09.33-.16.56-.2.7.33-.58.73-1.2,1.2-1.85.46-.65.95-1.31,1.46-1.98s1-1.33,1.49-1.98.92-1.28,1.31-1.88c.39-.6.69-1.16.9-1.66.04-.01.09-.02.17-.02.15,0,.25.07.31.2s.08.28.08.44-.02.3-.06.41c-.05.12-.16.32-.33.59-.17.27-.37.55-.59.86-.22.31-.44.61-.66.91s-.39.54-.53.73c-1.02,1.35-1.91,2.53-2.67,3.54s-1.34,1.89-1.74,2.63c-.04.01-.07.02-.11.03-.04,0-.07,0-.11,0-.14,0-.27-.04-.39-.12-.12-.08-.22-.19-.28-.33-.06-.19-.09-.38-.09-.59,0-.31.05-.67.14-1.1s.2-.89.33-1.41c.15-.56.33-1.2.56-1.94.22-.74.42-1.41.58-2.02-.09.11-.16.22-.22.33-.25.37-.53.8-.85,1.29s-.65.99-.99,1.51c-.33.52-.65,1.01-.94,1.47-.29.46-.54.85-.73,1.18-.2.33-.32.54-.37.64-.12.24-.25.44-.36.62-.12.18-.2.32-.25.42-.04.01-.07.02-.1.03-.03,0-.06,0-.1,0Z"/>
  <path class="cls-1" d="M10.67,10.76c-.46,0-.82-.13-1.1-.4-.27-.27-.41-.64-.41-1.12,0-.37.07-.76.21-1.17.14-.41.28-.73.42-.97.28-.52.63-1,1.03-1.43.4-.43.82-.78,1.25-1.05.43-.27.82-.4,1.18-.4.33,0,.62.09.86.28.24.19.36.43.36.74,0,.12-.03.27-.09.43-.06.16-.16.33-.3.5-.5.63-1.04,1.12-1.64,1.48-.6.35-1.29.62-2.05.79-.05.16-.09.32-.13.47-.04.16-.07.3-.09.44-.01.06-.02.12-.03.18,0,.06,0,.11,0,.18,0,.25.06.42.18.53.12.11.26.16.44.16.27,0,.57-.07.88-.2s.61-.28.89-.45c.28-.17.49-.31.62-.44.35-.28.72-.62,1.11-1.01.39-.39.74-.77,1.05-1.14.2-.5.42-1.01.67-1.54.25-.53.5-1.05.76-1.54.26-.5.5-.92.71-1.28.46-.76.89-1.34,1.28-1.75.4-.41.75-.69,1.07-.84.32-.15.57-.22.77-.2-.32.36-.68.8-1.06,1.32-.38.52-.79,1.15-1.23,1.88-.54.94-1.02,1.8-1.42,2.56-.4.77-.75,1.55-1.03,2.36-.16.47-.24.85-.24,1.15,0,.42.14.63.43.63.22,0,.47-.11.75-.33.28-.22.5-.42.66-.59.25-.25.47-.48.66-.7.19-.22.38-.44.57-.66.04-.04.07-.06.09-.06.07,0,.11.06.11.17,0,.06-.02.12-.07.17-.14.16-.27.33-.4.49-.13.17-.27.33-.42.49-.12.16-.26.32-.42.47-.16.16-.3.3-.44.44-.21.2-.47.37-.77.52-.3.15-.59.22-.85.22-.24,0-.43-.08-.59-.23-.16-.15-.24-.42-.24-.81,0-.09,0-.18.02-.29.01-.1.03-.22.06-.34.03-.1.05-.21.08-.34.03-.13.07-.27.12-.42-.24.24-.49.49-.77.75-.28.27-.53.5-.75.72-.3.26-.68.52-1.15.79-.47.27-1,.4-1.58.4ZM10.5,8.2c.32-.14.7-.33,1.12-.59s.84-.57,1.25-.94.73-.76.99-1.18c.09-.14.13-.26.13-.37,0-.17-.1-.26-.3-.26-.14,0-.3.05-.5.15-.62.33-1.15.79-1.6,1.36-.45.57-.81,1.18-1.1,1.84Z"/>
  <path class="cls-1" d="M19.9,10.76c-.48,0-.87-.12-1.17-.37-.3-.25-.45-.64-.45-1.17,0-.37.06-.76.18-1.16.12-.4.24-.72.36-.96.26-.52.58-1,.95-1.43.37-.43.76-.78,1.18-1.05.42-.27.8-.4,1.16-.4s.64.12.84.36.3.5.3.79c0,.25-.07.46-.21.63-.17.24-.32.4-.45.5-.12.1-.22.15-.28.15s-.09-.04-.09-.13c0-.07.03-.19.09-.35.02-.07.07-.2.15-.39.07-.19.14-.37.21-.56.06-.19.09-.31.07-.37-.19-.04-.45.06-.79.31s-.69.56-1.05.95-.66.8-.89,1.24c-.05.1-.14.29-.26.56s-.24.57-.33.88c-.1.32-.15.61-.15.88,0,.21.05.39.15.53.1.14.27.21.5.21.2,0,.43-.05.71-.15.47-.15.91-.4,1.31-.74.4-.35.78-.71,1.12-1.1.12-.14.24-.27.35-.39.11-.12.22-.25.32-.37.03-.02.05-.05.07-.06s.03-.03.05-.03c.06,0,.09.05.09.15,0,.09-.03.16-.07.22-.12.16-.25.32-.39.48-.14.16-.27.32-.41.48-.41.46-.87.88-1.38,1.27-.51.39-1.11.59-1.78.59Z"/>
  <path class="cls-1" d="M24.7,10.61c-.46,0-.8-.15-1.03-.45-.23-.3-.34-.68-.34-1.13,0-.52.14-1.09.41-1.71.25-.56.57-1.07.96-1.52s.81-.83,1.27-1.11c.46-.28.9-.42,1.32-.42.51,0,.88.16,1.12.46.23.31.35.7.35,1.17,0,.51-.13,1.05-.39,1.64-.14.3-.33.62-.59.97-.26.35-.56.68-.89,1-.33.32-.69.59-1.07.79-.38.2-.75.31-1.11.31ZM25.05,10.24c.26,0,.52-.09.78-.27.26-.18.51-.4.74-.66s.44-.52.62-.79.31-.49.4-.68c.21-.4.37-.78.46-1.14.1-.37.15-.68.15-.96,0-.59-.22-.89-.67-.89-.27,0-.56.11-.86.33s-.6.5-.88.86-.53.76-.74,1.21c-.45.89-.67,1.62-.67,2.17,0,.45.14.71.43.78.04.01.07.02.11.03.04,0,.08,0,.13,0Z"/>
  <path class="cls-1" d="M27.99,10.59c.53-.99.98-1.95,1.33-2.87.35-.92.76-1.85,1.22-2.8.14-.25.31-.42.52-.51.21-.09.42-.14.61-.14.16,0,.3.02.43.06-.04.09-.13.26-.29.51-.16.25-.32.54-.49.86-.12.22-.31.57-.56,1.03-.25.46-.48.94-.69,1.44.11-.16.28-.39.51-.68.23-.29.49-.6.78-.94s.59-.65.9-.95.61-.54.91-.73c.3-.19.56-.29.8-.29s.42.06.51.2c.09.13.14.28.14.46,0,.22-.08.47-.25.75-.17.28-.34.59-.51.94-.1.19-.22.41-.36.66s-.28.5-.41.74c-.13.24-.23.44-.31.6.12-.24.31-.54.56-.9.25-.37.54-.74.86-1.13.33-.39.67-.76,1.01-1.11.35-.35.68-.64,1.01-.85.33-.22.62-.33.86-.33s.42.06.51.19.14.27.14.45c0,.24-.08.51-.23.84-.16.32-.35.65-.58.98-.23.33-.45.66-.67.97-.22.31-.39.58-.51.82-.17.35-.26.61-.26.8,0,.2.08.3.24.3.14,0,.29-.05.45-.15.29-.14.56-.33.84-.59.27-.25.53-.52.76-.81.12-.15.26-.3.4-.46s.24-.26.29-.33c.02-.04.06-.06.09-.06.07,0,.11.05.11.15,0,.06-.03.12-.09.19-.12.16-.25.33-.39.49-.14.17-.28.33-.43.49-.12.16-.26.32-.4.47-.14.16-.29.3-.46.44-.53.5-1.03.74-1.49.74-.26,0-.45-.08-.56-.23-.11-.15-.17-.35-.17-.58,0-.32.08-.7.25-1.12.17-.43.37-.83.6-1.22.02-.04.11-.15.24-.35.14-.2.28-.43.45-.69.16-.26.3-.51.43-.74.12-.23.19-.4.19-.5,0-.09-.05-.11-.16-.07-.1.04-.28.16-.53.37-.3.26-.63.59-1,.98-.37.4-.75.83-1.12,1.31-.38.48-.71.98-1.01,1.51-.06.12-.15.25-.26.37-.11.12-.26.19-.45.19h-.06c-.07,0-.16-.02-.25-.07-.09-.05-.14-.16-.14-.33,0-.31.1-.67.3-1.1.2-.42.43-.85.69-1.29.26-.44.48-.84.67-1.2.06-.14.11-.26.16-.37.04-.11.06-.2.06-.26,0-.1-.05-.13-.16-.1-.1.03-.28.15-.53.36-.3.25-.63.58-1.01.98-.38.41-.76.85-1.14,1.32-.38.47-.74.93-1.06,1.38-.32.45-.57.85-.74,1.18-.05.11-.12.18-.2.2-.08.02-.21.03-.38.05-.12,0-.22,0-.3,0s-.15.03-.24.08Z"/>
  <path class="cls-1" d="M39.58,10.76c-.46,0-.82-.13-1.1-.4-.27-.27-.41-.64-.41-1.12,0-.37.07-.76.21-1.17.14-.41.28-.73.42-.97.28-.52.63-1,1.03-1.43.4-.43.82-.78,1.25-1.05.43-.27.82-.4,1.18-.4.33,0,.62.09.86.28.24.19.36.43.36.74,0,.12-.03.27-.09.43-.06.16-.16.33-.3.5-.5.63-1.04,1.12-1.64,1.48-.6.35-1.29.62-2.05.79-.05.16-.09.32-.13.47-.04.16-.07.3-.09.44-.01.06-.02.12-.03.18,0,.06,0,.11,0,.18,0,.25.06.42.18.53.12.11.26.16.44.16.27,0,.56-.07.87-.21.31-.14.6-.31.87-.49.27-.19.48-.33.61-.45.14-.12.27-.25.4-.38.13-.13.28-.28.44-.44.12-.14.24-.27.35-.4s.22-.26.32-.4c.04-.04.07-.06.09-.06.08,0,.11.06.11.17,0,.06-.03.12-.07.17-.22.27-.45.54-.67.81-.22.27-.45.52-.69.77-.27.29-.65.57-1.12.85-.48.28-1.01.43-1.59.43ZM39.42,8.2c.32-.14.7-.33,1.12-.59s.84-.57,1.25-.94.73-.76.99-1.18c.09-.14.13-.26.13-.37,0-.17-.1-.26-.3-.26-.14,0-.3.05-.5.15-.62.33-1.15.79-1.6,1.36-.45.57-.81,1.18-1.1,1.84Z"/>
  <path class="cls-1" d="M47.17,10.54c-.27,0-.5-.08-.69-.24-.19-.16-.28-.43-.28-.82,0-.1,0-.2.02-.3.01-.1.03-.2.06-.32.1-.5.3-1.1.61-1.81s.71-1.52,1.19-2.43h-.71c-.14,0-.2-.04-.2-.11,0-.04.03-.08.1-.12.07-.04.16-.06.29-.06h.67c.21-.36.38-.64.51-.85.13-.2.24-.36.33-.47.32-.41.62-.7.88-.86.27-.17.5-.26.7-.29.2-.02.34-.04.43-.04-.17.19-.37.43-.58.72s-.42.6-.61.92-.37.6-.5.86h1.9c.14,0,.2.03.2.09,0,.05-.04.1-.11.14s-.17.06-.3.06h-1.88c-.2.36-.38.68-.53.96-.16.28-.31.57-.46.88-.16.31-.34.69-.57,1.15-.17.38-.3.71-.38.98-.08.27-.12.5-.12.69,0,.24.05.4.15.5s.22.15.37.15.32-.05.52-.15c.27-.14.54-.33.82-.59s.53-.53.78-.8c.12-.14.24-.27.35-.39.11-.12.22-.25.32-.39.04-.04.07-.06.09-.06.07,0,.11.05.11.15,0,.07-.03.14-.08.19-.26.32-.53.65-.82.98-.33.38-.71.76-1.12,1.11-.41.36-.9.54-1.47.54Z"/>
  <path class="cls-1" d="M51.4,10.61c-.46,0-.8-.15-1.03-.45-.23-.3-.34-.68-.34-1.13,0-.52.14-1.09.41-1.71.25-.56.57-1.07.96-1.52s.81-.83,1.27-1.11c.46-.28.9-.42,1.32-.42.51,0,.88.16,1.12.46.23.31.35.7.35,1.17,0,.51-.13,1.05-.39,1.64-.14.3-.33.62-.59.97-.26.35-.56.68-.89,1-.33.32-.69.59-1.07.79-.38.2-.75.31-1.11.31ZM51.75,10.24c.26,0,.52-.09.78-.27.26-.18.51-.4.74-.66s.44-.52.62-.79.31-.49.4-.68c.21-.4.37-.78.46-1.14.1-.37.15-.68.15-.96,0-.59-.22-.89-.67-.89-.27,0-.56.11-.86.33s-.6.5-.88.86-.53.76-.74,1.21c-.45.89-.67,1.62-.67,2.17,0,.45.14.71.43.78.04.01.07.02.11.03.04,0,.08,0,.13,0Z"/>
  <path class="cls-1" d="M55.9,10.61c-.14,0-.24-.04-.32-.11s-.14-.15-.2-.24c-.03-.07-.04-.12-.04-.15,0-.09.02-.16.06-.23.04-.07.08-.12.12-.16.09-.06.18-.13.28-.2.1-.07.2-.13.32-.18.1-.05.19-.09.26-.12.08-.03.16-.08.24-.14.04-.02.07-.02.09,0,.02.03.03.06.02.08-.07.11-.14.28-.19.51-.05.23-.12.44-.21.63-.09.19-.24.29-.45.29Z"/>
  <path class="cls-1" d="M59.67,10.61c-.14,0-.24-.04-.32-.11s-.14-.15-.2-.24c-.03-.07-.04-.12-.04-.15,0-.09.02-.16.06-.23.04-.07.08-.12.12-.16.09-.06.18-.13.28-.2.1-.07.2-.13.32-.18.1-.05.19-.09.26-.12.08-.03.16-.08.24-.14.04-.02.07-.02.09,0,.02.03.03.06.02.08-.07.11-.14.28-.19.51-.05.23-.12.44-.21.63-.09.19-.24.29-.45.29Z"/>
  <path class="cls-1" d="M63.44,10.61c-.14,0-.24-.04-.32-.11s-.14-.15-.2-.24c-.03-.07-.04-.12-.04-.15,0-.09.02-.16.06-.23.04-.07.08-.12.12-.16.09-.06.18-.13.28-.2.1-.07.2-.13.32-.18.1-.05.19-.09.26-.12.08-.03.16-.08.24-.14.04-.02.07-.02.09,0,.02.03.03.06.02.08-.07.11-.14.28-.19.51-.05.23-.12.44-.21.63-.09.19-.24.29-.45.29Z"/>
</svg>