<?xml version="1.0" encoding="UTF-8"?>
<svg id="Layer_1" data-name="Layer 1" xmlns="http://www.w3.org/2000/svg" viewBox="0 0 56.41 9.61">
  <defs>
    <style>
      .cls-1 {
        fill: #fff;
      }
    </style>
  </defs>
  <path class="cls-1" d="M0,8.19c0-1.94,1.2-4.41,2.63-6.15.16-.19.88-1.08,1.2-1.08.16,0,.35.19.35.34,0,.31-.94,1.09-1.13,1.33C1.98,3.96,1.01,5.88.76,7.65c-.02.13-.04.3-.04.46,0,.29.06.55.3.55.67,0,1.96-.88,2.46-1.3.4-1.99,1.09-4.03,2.4-5.02.25-.2.54-.35.77-.35.29,0,.53.23.53.8,0,1.63-1.99,3.83-3.01,4.85-.05.36-.11,1.03.4,1.03.8,0,2.91-1.87,3.86-3.47.54-.91,1.2-2.51,1.2-3.62,0-.52-.14-.9-.14-1.16s.17-.42.32-.42c.13,0,.26.08.35.26.1.23.17.86.17,1.27,0,1.27-.65,2.83-1.27,3.89-1.09,1.86-3.17,3.97-4.61,3.97-.55,0-.98-.31-1.06-1.13-.7.53-1.69,1.14-2.54,1.14-.55,0-.84-.26-.84-1.21ZM6.37,3.36c.06-.19.08-.34.08-.42,0-.07-.02-.11-.06-.11-.07,0-.28.14-.52.43-.66.78-1.16,2.01-1.54,3.29.85-.97,1.69-2.05,2.03-3.19Z"/>
  <path class="cls-1" d="M11.78,4.56c.5,0,.83.36.83.74,0,1.06-1.86,2.43-3.05,2.66.12.43.47.56.72.56,1.22,0,2.21-.92,3.08-1.91.08-.1.2-.16.31-.16.13,0,.25.16.25.29,0,.31-1.71,2.47-3.65,2.47-1.07,0-1.45-.64-1.45-1.35,0-1.51,1.83-3.31,2.95-3.31ZM11.34,6.2c.26-.24.48-.55.48-.72,0-.1-.08-.13-.2-.13-.62.01-1.69,1.01-2,1.86.55-.13,1.22-.54,1.73-1.01Z"/>
  <path class="cls-1" d="M12.84,8.36c0-.36.07-.72.14-.91.55-1.61,2.61-5.5,4.34-5.5.54,0,.7.48.7.77,0,1.44-3.15,3.84-4.14,4.43-.46.62-.29,1.4.07,1.4.78,0,1.91-.7,2.88-1.7.14-.14.49-.65.77-.65.14,0,.25.11.25.28,0,.12-.23.42-.35.55-.77.89-2.4,2.27-3.71,2.27-.7,0-.96-.44-.96-.92ZM17.23,2.81c0-.06-.02-.1-.08-.1-.2,0-.36.13-.59.32-.9.78-1.76,2.25-2.17,2.97,1.06-.68,2.84-2.48,2.84-3.2Z"/>
  <path class="cls-1" d="M16.54,8.02c0-.95,1.46-3.27,3.29-3.27.29,0,.64.19.64.44,0,.16-.08.36-.42.36-.08,0-.26-.08-.4-.08-1.09,0-2.25,1.61-2.31,2.36-.02.26-.04.7.54.7.65,0,1.5-.32,2.12-.77.58-.41,1.04-.86,1.46-1.31.13-.13.28-.24.37-.25.17-.01.24.14.24.24,0,.35-.42.74-.61.92-.96.94-2.4,1.93-3.72,1.93-.92,0-1.2-.68-1.2-1.27Z"/>
  <path class="cls-1" d="M20.92,7.86c.01-1.03.82-1.92,1.71-2.45.19-.52.7-.76,1.22-.76.74,0,1.52.47,1.52,1.36,0,.16-.02.31-.04.46.36-.02.67-.06,1.08-.38.08-.06.16-.1.22-.1.13,0,.29.08.29.23,0,.11-.02.28-.14.37-.41.32-1.01.47-1.67.5-.52,1-1.61,2.18-2.81,2.18-.82,0-1.39-.49-1.39-1.42ZM24.31,7.1c-.7-.11-1.17-.29-1.62-1.01-.54.46-1.05,1.12-1.05,1.7,0,.42.25.76.75.76.77,0,1.54-.74,1.92-1.45ZM24.68,6.04c0-.58-.46-.76-.84-.76s-.5.28-.5.43c0,.35.58.71,1.28.74.04-.17.06-.31.06-.42Z"/>
  <path class="cls-1" d="M30.3,8.54c0-.17.04-.37.11-.6.17-.52.61-1.32.84-1.81-.53.42-1.13.94-1.6,1.49s-.72.85-.89,1.15c-.07.13-.18.19-.3.19-.2,0-.41-.14-.41-.5,0-.34.18-.8.35-1.23.13-.35.37-.97.47-1.39-.5.35-1.33,1-1.88,1.62-.29.32-.5.66-.88,1.26-.1.16-.25.3-.47.25-.23-.05-.31-.28-.28-.47.13-.47.37-1,.59-1.43.31-.61.46-.92.61-1.34.11-.29.14-.44.2-.56.07-.14.22-.3.43-.3.14,0,.26.07.26.28,0,.32-.26.9-.49,1.44.48-.46,1.4-1.35,1.99-1.61.17-.07.31-.11.42-.11.17,0,.3.1.32.31.05.49-.47,1.49-.61,2.06.59-.64,2.33-2.28,2.99-2.28.19,0,.31.13.31.32,0,.16-.08.37-.19.55-.31.52-1.14,1.86-1.14,2.31,0,.13.01.22.12.22.4,0,1.62-1.12,1.88-1.43.14-.16.44-.65.77-.65.18,0,.29.16.29.29,0,.04-.01.08-.04.12-.3.55-1.87,1.92-2.49,2.24-.2.11-.56.23-.79.23-.3,0-.5-.22-.5-.62Z"/>
  <path class="cls-1" d="M36,4.56c.5,0,.83.36.83.74,0,1.06-1.86,2.43-3.05,2.66.12.43.47.56.72.56,1.22,0,2.21-.92,3.08-1.91.08-.1.2-.16.31-.16.13,0,.25.16.25.29,0,.31-1.71,2.47-3.65,2.47-1.07,0-1.45-.64-1.45-1.35,0-1.51,1.83-3.31,2.95-3.31ZM35.55,6.2c.26-.24.48-.55.48-.72,0-.1-.08-.13-.2-.13-.62.01-1.69,1.01-2,1.86.55-.13,1.22-.54,1.73-1.01Z"/>
  <path class="cls-1" d="M40.78,8.55c0-1.03.98-2.53,1.33-3.11-.24.02-.3.06-.54.06-.23,0-.34-.12-.34-.28s.11-.34.32-.4c.38-.11.65-.1,1.06-.13.26-.37,1.1-1.57,1.42-1.86.1-.08.19-.12.29-.12.17,0,.3.13.3.31,0,.07-.01.14-.06.23-.08.14-.41.52-.5.65l-.56.77c.56-.01,1.07,0,1.63,0,.18,0,.4-.04.56-.01.24.04.38.2.38.38,0,.13-.11.28-.32.3-.08.01-.16.01-.23.01h-.53s-.86-.02-.86-.02c-.38,0-.77.01-1.12.04-.34.49-1.55,2.22-1.55,3.07,0,.3.13.44.53.44.92,0,2.36-.94,2.9-1.38.36-.29.68-.73,1.02-1.01.08-.07.17-.11.24-.11.2,0,.23.28.23.38,0,.08-.05.18-.12.25-.98,1.13-2.89,2.58-4.35,2.58-.59,0-1.13-.28-1.13-1.06Z"/>
  <path class="cls-1" d="M45.44,7.86c.01-1.03.82-1.92,1.71-2.45.19-.52.7-.76,1.22-.76.74,0,1.52.47,1.52,1.36,0,.16-.02.31-.04.46.36-.02.67-.06,1.08-.38.08-.06.16-.1.22-.1.13,0,.29.08.29.23,0,.11-.02.28-.14.37-.41.32-1.01.47-1.67.5-.52,1-1.61,2.18-2.81,2.18-.82,0-1.39-.49-1.39-1.42ZM48.84,7.1c-.7-.11-1.17-.29-1.62-1.01-.54.46-1.05,1.12-1.05,1.7,0,.42.25.76.75.76.77,0,1.54-.74,1.92-1.45ZM49.21,6.04c0-.58-.46-.76-.84-.76s-.5.28-.5.43c0,.35.58.71,1.28.74.04-.17.06-.31.06-.42Z"/>
  <path class="cls-1" d="M50.38,8.72c0-.32.77-.98,1.09-.98.23,0,.43.2.43.42,0,.31-.77,1.02-1.08,1.02-.24,0-.44-.22-.44-.46Z"/>
  <path class="cls-1" d="M52.63,8.72c0-.32.77-.98,1.09-.98.23,0,.43.2.43.42,0,.31-.77,1.02-1.08,1.02-.24,0-.44-.22-.44-.46Z"/>
  <path class="cls-1" d="M54.89,8.72c0-.32.77-.98,1.09-.98.23,0,.43.2.43.42,0,.31-.77,1.02-1.08,1.02-.24,0-.44-.22-.44-.46Z"/>
</svg>