<?xml version="1.0" encoding="UTF-8"?>
<svg id="Layer_1" data-name="Layer 1" xmlns="http://www.w3.org/2000/svg" xmlns:xlink="http://www.w3.org/1999/xlink" viewBox="0 0 3774.66 2890.96">
  <defs>
    <style>
      .cls-1 {
        fill: #f97319;
      }

      .cls-2 {
        fill: #383d51;
      }

      .cls-3 {
        fill: url(#radial-gradient);
      }

      .cls-4 {
        fill: url(#linear-gradient);
      }

      .cls-5 {
        fill: #fff;
      }
    </style>
    <radialGradient id="radial-gradient" cx="2522.83" cy="5274.29" fx="2522.83" fy="5274.29" r="4484.33" gradientTransform="translate(-7929.9349 9509.6749) rotate(-99.1316) scale(1 2.0842)" gradientUnits="userSpaceOnUse">
      <stop offset=".61" stop-color="#fff"/>
      <stop offset=".8" stop-color="#fff"/>
      <stop offset=".87" stop-color="#fcfcfc"/>
      <stop offset=".91" stop-color="#f9f9f9"/>
      <stop offset=".94" stop-color="#fff"/>
    </radialGradient>
    <linearGradient id="linear-gradient" x1="1876.56" y1="1179.3" x2="1884.2" y2="1394.03" gradientUnits="userSpaceOnUse">
      <stop offset=".1" stop-color="#a04800"/>
      <stop offset=".14" stop-color="#ab4d00"/>
      <stop offset=".38" stop-color="#e76c00"/>
      <stop offset=".49" stop-color="#ff7900"/>
    </linearGradient>
  </defs>
  <path id="circles_in_perspective" data-name="circles in perspective" class="cls-3" d="M1742.95,1303.27c-27.99-5.94-38.06-16.05-29.62-28.08,7.97-11.37,31.59-23.15,65.76-33.33,32.85-9.79,72.53-17.23,112.63-21.23,40-3.99,77.22-4.24,105.63-.61,29.44,3.76,46.77,11.34,48.04,21.67,1.34,10.93-15.43,23.65-48.4,35.71-34.5,12.63-81.45,22.62-131.04,27.69-49.74,5.09-93.81,4.37-123-1.82ZM1989.48,1222.59c-26.4-3.43-61.13-3.22-98.52.51-37.47,3.74-74.5,10.71-105.05,19.87-31.69,9.5-53.41,20.46-60.51,31-7.49,11.11,2.15,20.39,28.21,25.81,27.08,5.63,67.71,6.25,113.47,1.58,45.63-4.66,88.91-13.83,120.88-25.42,30.66-11.12,46.49-22.89,45.57-33.05-.87-9.64-16.76-16.74-44.06-20.29ZM1689.88,1320.64c-18.97-4.44-31.3-10.38-36.87-17.56-5.19-6.68-4.32-14.11,2.27-22.04,6.35-7.63,17.69-15.34,33.48-22.93,15.8-7.6,35.5-14.8,58.47-21.45,22.38-6.48,46.79-12.13,72.68-16.86,24.66-4.51,49.91-8.05,75.29-10.57,25.34-2.52,49.83-3.93,73.01-4.19,24.27-.27,46.34.72,65.72,3.01,19.84,2.34,35.88,5.9,47.59,10.68,11.69,4.76,18.68,10.54,20.54,17.25,1.93,6.96-1.74,14.57-11.24,22.65-10.21,8.68-26.68,17.47-49.17,26.07-23.22,8.88-51.2,16.92-83.04,23.79-31.32,6.76-64.56,11.99-98.42,15.47-33.93,3.49-66.23,4.99-95.62,4.45-29.99-.55-55.17-3.19-74.7-7.76ZM2026.45,1210.49c-35.94-4.31-82.34-3.89-131.96,1.05-49.77,4.95-99.25,14.09-140.74,26.18-43.58,12.7-74.64,27.55-86.36,42.1-12.6,15.65-1.37,29.05,33.81,37.11,37.14,8.51,94.7,9.69,160.23,2.95,65.26-6.7,126.57-20.03,170.7-36.75,41.59-15.76,61.52-32.13,58.12-45.97-3.16-12.88-26.24-22.17-63.81-26.67ZM1633.45,1339.1c-23.45-6.07-37.96-14.07-43.59-23.6-5.19-8.78-2.6-18.42,7.15-28.59,9.3-9.7,24.68-19.4,45.36-28.87,20.53-9.4,45.59-18.24,74.41-26.36,27.91-7.86,58.05-14.69,89.82-20.4,30.16-5.42,60.96-9.69,91.85-12.75,30.84-3.06,60.69-4.8,89.06-5.2,29.77-.41,57.03.68,81.22,3.31,24.91,2.71,45.41,6.91,60.82,12.61,15.5,5.73,25.37,12.76,28.98,21.01,3.78,8.64.52,18.19-10.19,28.42-11.64,11.11-31.52,22.48-59.5,33.69-29.16,11.69-64.93,22.35-106.15,31.49-40.77,9.04-84.31,16.03-128.77,20.63-44.59,4.61-86.91,6.49-125.15,5.58-38.85-.92-70.98-4.68-95.33-10.98ZM2061.62,1198.98c-23.2-2.56-49.39-3.64-78.03-3.26-27.31.37-56.07,2.04-85.8,4.99-29.78,2.95-59.45,7.07-88.48,12.31-30.56,5.51-59.52,12.1-86.29,19.68-27.61,7.82-51.55,16.32-71.07,25.35-19.64,9.08-34.14,18.37-42.78,27.63-9.04,9.69-11.22,18.87-5.98,27.19,5.67,9.01,19.77,16.56,42.31,22.27,23.36,5.92,54.02,9.43,90.97,10.26,36.34.82,76.51-.98,118.8-5.35,42.18-4.36,83.51-10.97,122.25-19.51,39.21-8.64,73.33-18.74,101.26-29.82,26.85-10.66,46.06-21.47,57.45-32.07,10.51-9.78,13.9-18.92,10.55-27.22-3.21-7.93-12.44-14.71-27.12-20.25-14.62-5.51-34.18-9.59-58.04-12.23ZM1573.35,1358.77c-27.64-7.97-43.82-18.3-48.79-30.41-4.54-11.05.43-23.04,13.97-35.54,12.79-11.81,32.63-23.51,58.51-34.83,25.48-11.14,55.99-21.55,90.61-31.05,33.34-9.15,69.02-17.07,106.39-23.68,35.38-6.26,71.39-11.19,107.47-14.76,36.01-3.56,70.91-5.63,104.18-6.18,35-.57,67.27.57,96.21,3.47,29.94,3,54.99,7.76,74.33,14.28,19.59,6.61,32.73,14.81,38.58,24.52,6.19,10.27,3.94,21.75-7.43,34.17-12.47,13.63-35.34,27.73-68.61,41.76-35.01,14.77-78.83,28.35-129.99,40.03-50.91,11.62-105.67,20.6-161.73,26.44-56.26,5.86-109.5,8.1-157.23,6.68-48.25-1.44-87.51-6.55-116.49-14.9ZM2095.13,1188.02c-27.96-2.85-59.2-3.99-93.12-3.45-32.27.51-66.15,2.52-101.11,5.98-35.04,3.46-69.98,8.27-104.3,14.35-36.22,6.43-70.76,14.12-102.98,23.01-33.42,9.22-62.79,19.3-87.21,30.09-24.77,10.94-43.65,22.22-55.67,33.59-12.7,12.01-17.11,23.5-12.39,34.06,5.17,11.55,21.05,21.37,47.85,28.92,28.04,7.9,65.79,12.71,112.03,14.02,45.69,1.3,96.57-.87,150.32-6.46,53.57-5.57,105.91-14.11,154.64-25.17,49.03-11.12,91.14-24.07,124.95-38.17,32.19-13.43,54.48-26.94,66.82-40.04,11.28-11.96,13.79-23.04,8.15-32.97-5.35-9.41-17.77-17.38-36.49-23.81-18.5-6.36-42.59-11-71.49-13.95ZM1509.2,1379.77c-31.49-10.17-48.68-23.13-52.21-38.1-3.18-13.51,4.88-28,22.85-42.92,16.81-13.96,41.54-27.66,72.89-40.8,30.62-12.84,66.65-24.73,107.02-35.55,38.65-10.35,79.69-19.28,122.41-26.72,40.34-7.03,81.26-12.58,122.23-16.61,40.87-4.03,80.53-6.42,118.47-7.13,39.99-.75,77.09.4,110.69,3.51,34.93,3.23,64.59,8.45,88.04,15.7,23.93,7.4,40.72,16.68,49.3,27.79,9.15,11.86,8.53,25.25-2.89,39.9-12.66,16.25-38,33.24-76.31,50.32-40.73,18.17-92.82,34.99-154.54,49.53-61.83,14.57-128.83,25.8-197.65,33.02-69.11,7.25-134.28,9.83-192.2,7.71-58.25-2.13-104.79-8.9-138.13-19.66ZM2127.09,1177.56c-32.64-3.07-68.75-4.22-107.71-3.51-36.98.68-75.68,3-115.56,6.93-39.98,3.94-79.9,9.37-119.23,16.24-41.63,7.27-81.56,15.99-119.11,26.1-39.18,10.55-74.05,22.14-103.58,34.62-30.19,12.76-53.86,26.05-69.8,39.56-17,14.41-24.36,28.37-20.83,41.35,3.9,14.35,20.94,26.73,51.66,36.42,32.45,10.23,77.47,16.62,133.57,18.6,55.73,1.96,118.33-.56,184.66-7.51,66.06-6.92,130.42-17.66,189.9-31.58,59.45-13.91,109.8-30.03,149.36-47.46,37.28-16.43,62.15-32.79,74.83-48.49,11.45-14.18,12.47-27.18,3.98-38.71-7.97-10.83-23.97-19.89-46.97-27.13-22.58-7.11-51.27-12.23-85.17-15.43ZM1440.58,1402.22c-34.88-12.73-52.36-28.65-53.55-46.79-1.06-16.18,10.84-33.31,33.92-50.76,21.37-16.16,51.39-31.86,88.47-46.8,35.95-14.48,77.54-27.8,123.6-39.85,43.87-11.47,90.06-21.33,137.91-29.55,45.04-7.73,90.62-13.86,136.2-18.33,45.45-4.46,89.61-7.17,131.98-8.05,44.75-.94,86.53.19,124.69,3.45,39.86,3.41,74.19,9.02,101.93,16.91,28.51,8.11,49.31,18.4,61.07,30.84,12.68,13.41,14.31,28.7,3.49,45.62-12.14,18.98-39.37,39.03-82.38,59.41-46.24,21.91-106.83,42.38-179.78,60.16-73.61,17.94-154.05,31.76-236.93,40.52-83.31,8.8-161.57,11.7-230.47,8.65-68.88-3.05-122.83-11.82-160.15-25.44ZM2157.6,1167.57c-37.22-3.24-78.04-4.37-121.81-3.47-41.46.85-84.71,3.49-129.23,7.86-44.64,4.39-89.27,10.4-133.35,17.99-46.79,8.06-91.92,17.73-134.71,28.97-44.88,11.8-85.31,24.83-120.13,38.97-35.87,14.56-64.75,29.85-85.13,45.55-21.96,16.91-33,33.49-31.43,49.09,1.76,17.44,19.24,32.72,53.46,44.89,36.53,12.98,88.92,21.31,155.52,24.14,66.54,2.83,141.97,0,222.21-8.47,79.84-8.42,157.37-21.68,228.45-38.87,70.54-17.06,129.34-36.74,174.46-57.84,42.06-19.67,68.95-39.07,81.26-57.46,11-16.44,9.89-31.34-2.01-44.43-11.06-12.17-31-22.25-58.53-30.22-26.83-7.77-60.18-13.3-99.02-16.68ZM1367,1426.3c-37.71-15.69-54.59-34.98-52.45-56.6,1.89-19.06,18.44-39,47.29-59.06,26.46-18.4,62.15-36.11,105.22-52.82,41.44-16.07,88.63-30.77,140.31-43.98,48.97-12.52,100.16-23.25,152.89-32.18,49.53-8.38,99.5-15.04,149.43-19.93,49.77-4.88,98.19-7.88,144.78-8.95,49.3-1.13,95.58-.07,138.22,3.3,44.74,3.53,83.77,9.46,115.94,17.92,33.3,8.75,58.44,19.96,73.85,33.67,16.76,14.9,21.31,32.1,11.77,51.32-10.82,21.81-39.28,45.13-86.58,69.08-51.46,26.06-120.73,50.63-205.64,72.09-86.36,21.82-181.6,38.63-280.08,49.13-99.09,10.56-191.8,13.71-272.54,9.45-80.21-4.24-141.61-15.47-182.42-32.44ZM2186.77,1158.03c-41.72-3.35-87.08-4.43-135.44-3.34-45.72,1.03-93.28,3.97-142.17,8.76-49.04,4.81-98.12,11.35-146.73,19.61-51.72,8.78-101.88,19.33-149.8,31.65-50.52,12.98-96.54,27.39-136.82,43.13-41.81,16.34-76.28,33.63-101.64,51.56-27.59,19.51-43.11,38.85-44.31,57.29-1.36,20.86,15.73,39.42,52.91,54.45,40.13,16.23,99.98,26.91,177.75,30.87,78.19,3.98,167.77.88,263.44-9.3,95.1-10.12,187.13-26.27,270.75-47.23,82.34-20.65,149.79-44.32,200.19-69.48,46.45-23.18,74.71-45.8,85.87-67.01,9.86-18.74,5.98-35.54-9.89-50.14-14.62-13.45-38.83-24.47-71.11-33.1-31.24-8.35-69.29-14.21-113.01-17.73ZM1287.91,1452.19c-39.83-19.12-55.1-42.22-48.5-67.69,5.75-22.18,27.78-45.09,63.1-67.87,32.08-20.68,73.82-40.41,123.11-58.85,47.06-17.61,99.89-33.62,157.12-47.95,53.97-13.51,109.98-25.05,167.39-34.64,53.79-8.99,107.94-16.13,161.98-21.41,53.86-5.26,106.32-8.55,156.92-9.81,53.64-1.33,104.29-.35,151.31,3.08,49.54,3.61,93.3,9.81,130.05,18.75,38.28,9.32,68.08,21.39,87.6,36.29,21.42,16.36,29.55,35.44,22.03,57-8.64,24.76-37.54,51.55-88.62,79.39-56.28,30.67-134.39,59.88-232.04,85.55-100.19,26.34-211.82,46.6-327.71,59.07-116.73,12.56-225.44,15.88-318.99,10.03-92.27-5.77-161.12-20-204.74-40.94ZM2214.67,1148.9c-46.12-3.42-95.86-4.42-148.61-3.13-49.78,1.22-101.41,4.45-154.44,9.64-53.21,5.2-106.5,12.25-159.42,21.11-56.45,9.46-111.46,20.83-164.4,34.14-56.08,14.1-107.73,29.84-153.61,47.13-47.97,18.09-88.43,37.39-119.29,57.6-33.92,22.21-54.74,44.48-59.6,65.99-5.57,24.63,10.13,46.89,49.59,65.26,43.1,20.06,110.41,33.61,200.09,39.03,90.79,5.49,196.03,2.19,308.92-9.93,112.11-12.04,220.18-31.54,317.39-56.88,94.92-24.74,171.17-52.94,226.49-82.6,50.35-27,79.22-53.05,88.39-77.18,8.01-21.07.67-39.76-19.73-55.82-18.62-14.66-47.43-26.55-84.65-35.76-35.78-8.85-78.55-14.99-127.1-18.59ZM1202.66,1480.08c-41.07-23.12-53.52-50.52-41.2-80.24,10.6-25.56,38.99-51.61,81.51-77.21,38.22-23.01,86.39-44.75,142.11-64.91,52.82-19.12,111.29-36.38,173.99-51.75,58.86-14.43,119.53-26.72,181.42-36.93,57.87-9.55,115.97-17.14,173.91-22.79,57.73-5.63,114.02-9.2,168.45-10.65,57.81-1.54,112.66-.66,163.97,2.79,54.28,3.65,102.78,10.05,144.21,19.42,43.44,9.82,78.21,22.68,102.25,38.71,26.64,17.77,39.07,38.72,34.34,62.67-5.5,27.83-33.95,58.33-88.19,90.4-60.56,35.81-147.59,70.3-258.83,100.82-115.24,31.62-245.11,55.95-380.55,70.67-136.59,14.85-263.13,18.24-370.55,10.31-105.12-7.76-181.28-25.64-226.85-51.3ZM2241.4,1140.15c-50.43-3.45-104.41-4.35-161.36-2.85-53.65,1.41-109.15,4.93-166.1,10.48-57.15,5.58-114.45,13.08-171.48,22.51-60.97,10.08-120.68,22.22-178.53,36.47-61.57,15.16-118.86,32.17-170.47,50.97-54.36,19.81-101.16,41.13-138.06,63.65-40.96,25-67.95,50.38-77.46,75.22-11.02,28.79,2.13,55.25,43.03,77.49,45.25,24.61,119.91,41.67,222.27,48.97,104.43,7.45,227.1,4.06,359.35-10.28,131.18-14.23,257.08-37.66,369.07-68.1,108.33-29.45,193.49-62.78,253.21-97.47,53.64-31.16,82.27-60.86,88.5-88.04,5.38-23.45-6.1-44.01-31.6-61.49-23.07-15.81-56.78-28.5-99.12-38.22-40.44-9.28-87.95-15.65-141.25-19.29ZM1110.5,1510.24c-41.2-27.77-49.43-60.06-29.96-94.47,8.48-14.99,22.29-30.27,40.55-45.37,17.01-14.07,38.03-28.11,62.13-41.74,22.76-12.86,48.51-25.49,76.34-37.58,26.66-11.58,55.57-22.8,85.85-33.41,58.69-20.57,122.81-39.04,190.91-55.42,63.64-15.3,128.81-28.3,195.01-39.08,30.99-5.05,62.41-9.64,93.56-13.68,30.56-3.96,61.36-7.46,91.7-10.41,30.29-2.95,60.6-5.4,90.26-7.31,30.12-1.93,60.06-3.33,89.16-4.16,61.79-1.76,120.71-1,176.21,2.44,58.94,3.65,112.19,10.21,158.39,19.94,23.72,4.99,45.65,10.86,65.08,17.5,20.22,6.92,38.02,14.78,52.71,23.44,15.52,9.15,27.74,19.31,36.03,30.27,8.88,11.74,13.31,24.52,12.75,38.05-1.3,31.04-28.28,65.49-84.89,102.19-64.14,41.57-160.07,82.1-285.82,118.26-64.19,18.45-134.6,35.21-208.61,49.49-75.04,14.48-153.08,26.27-230.9,34.83-78.2,8.6-155.32,13.85-228.15,15.53-72.49,1.68-140-.18-199.95-5.38-118.8-10.31-201.97-32.68-248.35-63.94ZM2267.02,1131.77c-54.64-3.44-112.72-4.23-173.69-2.52-28.72.81-58.28,2.18-88.02,4.09-29.3,1.88-59.24,4.3-89.16,7.21-29.97,2.92-60.39,6.37-90.58,10.29-30.76,3.99-61.78,8.53-92.37,13.53-65.31,10.67-129.56,23.52-192.21,38.65-66.98,16.17-129.93,34.39-187.38,54.66-29.61,10.45-57.83,21.49-83.8,32.86-27.09,11.87-52.09,24.26-74.11,36.86-23.3,13.34-43.52,27.07-59.78,40.81-17.43,14.73-30.46,29.62-38.25,44.19-17.86,33.39-8.62,64.61,32.66,91.35,46.32,30.01,128.07,51.37,243.93,61.09,58.39,4.9,124.01,6.59,194.36,4.89,70.66-1.7,145.42-6.81,221.21-15.12,75.43-8.28,151.09-19.65,223.89-33.59,71.85-13.76,140.29-29.91,202.78-47.69,122.64-34.9,216.72-74.1,280.18-114.42,56.2-35.7,83.57-69.31,85.84-99.66.99-13.26-2.94-25.8-11.24-37.34-7.76-10.78-19.42-20.78-34.34-29.8-14.14-8.55-31.37-16.31-51.02-23.15-18.89-6.58-40.27-12.39-63.46-17.34-45.19-9.66-97.45-16.19-155.43-19.84ZM1010.57,1542.95c-39.97-33.2-42.31-71.03-14.08-110.63,12.17-17.06,30.07-34.34,52.63-51.29,20.89-15.7,45.96-31.28,74.13-46.31,26.47-14.12,55.97-27.92,87.47-41.05,30.05-12.53,62.33-24.63,95.86-36.04,64.66-21.99,134.43-41.62,207.85-58.94,68.31-16.11,137.85-29.77,208.17-41.1,32.87-5.29,66.16-10.11,99.12-14.35,32.33-4.16,64.89-7.83,96.96-10.95,32.01-3.11,64.05-5.71,95.42-7.74,31.86-2.07,63.58-3.58,94.44-4.51,65.62-1.97,128.46-1.35,188.06,2.05,63.53,3.62,121.52,10.29,172.58,20.32,26.34,5.17,50.93,11.28,73,18.23,23.06,7.27,43.7,15.57,61.15,24.76,18.52,9.76,33.66,20.65,44.66,32.45,11.85,12.72,19.01,26.66,20.76,41.49,4.06,34.38-20.25,73.08-78.3,114.85-66.79,48.06-171.5,95.54-312.72,138.28-72.72,22.01-153.2,42.03-238.35,59.08-86.64,17.35-177.07,31.41-267.38,41.47-90.81,10.12-180.22,16.07-264.3,17.6-83.5,1.53-160.67-1.32-228.45-8.23-133.33-13.6-223-41.52-268.68-79.46ZM2291.6,1123.72c-58.76-3.41-120.79-4.06-185.62-2.14-30.5.91-61.85,2.4-93.36,4.44-31.03,2.01-62.72,4.58-94.38,7.65-31.72,3.08-63.92,6.72-95.89,10.84-32.59,4.2-65.5,8.97-97.98,14.21-69.47,11.22-138.11,24.74-205.46,40.69-72.32,17.13-140.91,36.52-204.31,58.21-32.84,11.24-64.41,23.16-93.74,35.49-30.72,12.92-59.42,26.47-85.09,40.33-27.3,14.73-51.49,29.99-71.54,45.34-21.61,16.56-38.61,33.41-49.96,50.02-26.26,38.47-22.54,75.09,17.82,107.08,45.97,36.45,134.34,63.11,264.56,75.95,66.09,6.52,141.16,9.13,222.26,7.56,81.62-1.58,168.34-7.37,256.38-17.16,87.57-9.73,175.28-23.29,259.39-39.99,82.71-16.43,161.01-35.72,231.88-56.93,137.9-41.27,240.8-87.22,307.13-133.86,57.84-40.68,82.82-78.47,79.98-112.13-1.23-14.56-7.79-28.25-18.98-40.77-10.4-11.63-24.92-22.37-42.79-32.01-16.85-9.09-36.89-17.3-59.35-24.49-21.51-6.89-45.54-12.95-71.32-18.09-50.04-9.97-107.03-16.62-169.62-20.25ZM901.83,1578.53c-37.02-39.54-31.53-83.67,7.28-129.01,16.54-19.32,39.18-38.74,66.59-57.66,25.24-17.42,54.78-34.6,87.36-51.07,30.46-15.4,63.94-30.38,99.3-44.57,33.59-13.49,69.34-26.46,106.19-38.64,70.72-23.37,146.12-44.11,224.78-62.33,72.88-16.88,146.64-31.16,220.92-42.99,34.67-5.52,69.74-10.55,104.44-14.97,34.01-4.34,68.24-8.18,101.96-11.45,33.65-3.26,67.33-6,100.34-8.16,33.53-2.2,66.94-3.83,99.49-4.86,69.28-2.19,135.93-1.72,199.53,1.62,68.05,3.57,130.75,10.31,186.75,20.59,29.01,5.32,56.35,11.64,81.18,18.88,26.04,7.59,49.71,16.3,70.13,25.99,21.77,10.34,40.14,21.94,54.2,34.59,15.23,13.7,25.59,28.8,30.16,44.98,10.72,37.87-9.58,81.12-67.9,128.47-68.22,55.4-181.39,110.93-339.11,161.45-82.02,26.27-173.71,50.23-271.44,70.62-99.86,20.83-204.52,37.63-309.2,49.47-105.36,11.92-208.89,18.62-305.78,19.84-95.98,1.21-183.88-2.99-260.12-12.15-148.72-17.87-244.03-52.65-287.06-98.61ZM2315.2,1116c-62.78-3.35-128.64-3.86-197.17-1.71-32.2,1.01-65.26,2.62-98.45,4.79-32.67,2.13-66.03,4.85-99.34,8.08-33.38,3.24-67.27,7.05-100.94,11.35-34.34,4.39-69.04,9.37-103.34,14.85-73.47,11.73-146.36,25.88-218.29,42.61-77.57,18.04-151.8,38.55-221.25,61.63-36.15,12.02-71.17,24.81-104.01,38.1-34.54,13.97-67.17,28.7-96.78,43.84-31.64,16.17-60.21,33.01-84.51,50.07-26.35,18.5-47.95,37.46-63.52,56.29-36.44,44.09-40.12,86.84-2.32,124.98,43.78,44.17,138,77.39,283.42,94.27,74.42,8.64,159.98,12.52,253.22,11.23,94.09-1.3,194.51-7.84,296.66-19.36,101.51-11.45,203.04-27.63,300-47.68,94.97-19.64,184.22-42.71,264.23-68.03,154.18-48.78,265.62-102.53,333.66-156.32,58.37-46.15,79.63-88.42,70.41-125.55-3.94-15.89-13.59-30.75-28.09-44.25-13.39-12.48-31.07-23.93-52.14-34.15-19.79-9.59-42.81-18.22-68.22-25.74-24.24-7.18-51.01-13.46-79.45-18.75-54.96-10.23-116.68-16.96-183.8-20.54ZM783.06,1617.4c-31.94-46.99-16.3-98.29,35.14-149.98,21.67-21.78,49.73-43.49,82.6-64.5,30.08-19.23,64.51-38.07,101.85-56.04,34.74-16.72,72.44-32.88,111.82-48.14,37.27-14.44,76.59-28.27,116.84-41.21,76.85-24.71,157.88-46.52,241.69-65.6,77.34-17.61,155.19-32.47,233.28-44.77,36.4-5.73,73.17-10.95,109.52-15.56,35.61-4.51,71.44-8.52,106.72-11.93,35.2-3.41,70.46-6.28,105.02-8.56,35.12-2.32,70.14-4.07,104.31-5.2,72.8-2.41,143.13-2.09,210.65,1.15,72.48,3.49,139.89,10.26,200.88,20.74,31.73,5.45,61.9,11.95,89.6,19.44,29.15,7.88,56.02,16.97,79.63,27.14,25.29,10.89,47.2,23.18,64.68,36.66,19.05,14.68,33.09,30.96,41.03,48.5,18.79,41.52,4.1,89.65-53.07,143.17-68.09,63.74-189.14,128.69-364.4,188.47-92.16,31.44-196.4,60.21-308.46,84.68-115.05,25.13-236.22,45.27-357.63,59.24-122.32,14.08-242.25,21.6-353.86,22.25-110.22.65-210.11-5.42-295.47-17.55-164.91-23.44-264.56-66.79-302.38-122.41ZM2337.88,1108.58c-66.71-3.27-136.28-3.61-208.35-1.25-33.83,1.11-68.52,2.83-103.32,5.13-34.24,2.26-69.18,5.11-104.07,8.48-34.96,3.38-70.47,7.35-105.75,11.83-36.01,4.57-72.43,9.75-108.47,15.44-77.31,12.21-154.31,26.94-230.74,44.41-82.75,18.91-162.6,40.49-238.16,64.93-39.53,12.78-78.1,26.43-114.59,40.67-38.53,15.04-75.33,30.96-109.16,47.4-36.32,17.65-69.7,36.14-98.73,54.99-31.68,20.56-58.55,41.79-79.09,63.03-48.62,50.31-61.94,100.04-28.73,145.38,39.15,53.46,138.03,94.86,299.49,117.01,83.39,11.44,180.67,17.06,287.75,16.27,108.37-.8,224.67-8.14,343.24-21.74,117.71-13.5,235.23-32.88,346.93-57.04,108.91-23.55,210.4-51.23,300.37-81.5,171.5-57.7,290.97-120.56,359.24-182.48,57.54-52.18,73.55-99.27,56.56-140.01-7.19-17.26-20.42-33.29-38.64-47.76-16.74-13.31-37.89-25.45-62.43-36.23-22.93-10.08-49.12-19.09-77.61-26.91-27.09-7.43-56.66-13.9-87.82-19.33-59.94-10.44-126.37-17.21-197.94-20.71ZM652.81,1660.03c-24.2-55.76,4.33-115.25,70.73-173.98,27.64-24.44,61.87-48.63,100.83-71.85,35.44-21.13,75.19-41.7,117.65-61.2,39.3-18.05,81.44-35.43,125.03-51.76,41.08-15.38,84.08-30.07,127.78-43.76,83.05-26.02,169.67-48.85,258.56-68.75,81.71-18.29,163.51-33.69,245.27-46.44,38.05-5.93,76.45-11.34,114.38-16.11,37.14-4.67,74.49-8.83,111.27-12.38,36.69-3.54,73.45-6.55,109.49-8.95,36.64-2.44,73.21-4.3,108.92-5.53,76.19-2.62,150.07-2.48,221.41.66,76.84,3.38,148.93,10.16,214.96,20.79,34.5,5.55,67.57,12.22,98.23,19.92,32.39,8.14,62.62,17.58,89.64,28.2,29.06,11.42,54.82,24.38,76.1,38.67,23.31,15.65,41.56,33.12,53.44,52.07,28.44,45.35,21.17,98.74-33.11,159.08-65.93,73.29-193.91,149.32-387.75,220.28-103.24,37.79-221.59,72.52-350.12,102.07-132.7,30.51-273.24,54.83-414.36,71.4-142.36,16.71-281.55,25.1-410.24,24.83-126.64-.27-239.98-8.92-335.1-25.02-181.78-30.76-283.78-84.9-313.01-152.25ZM2359.69,1101.44c-70.55-3.16-143.7-3.34-219.19-.76-35.4,1.21-71.65,3.05-107.97,5.46-35.74,2.38-72.19,5.35-108.58,8.87-36.47,3.52-73.51,7.65-110.34,12.29-37.6,4.74-75.67,10.11-113.38,16-81,12.66-161.99,27.95-242.8,46.1-87.84,19.73-173.3,42.36-255.04,68.1-42.97,13.53-85.19,28.04-125.47,43.23-42.7,16.1-83.9,33.23-122.23,51-41.37,19.18-79.97,39.39-114.26,60.11-37.64,22.75-70.52,46.41-96.84,70.28-63.07,57.2-88.66,114.89-62.6,168.7,31.35,64.72,133.06,116.39,311.27,145.45,93.03,15.17,203.43,23.21,326.44,23.25,124.91.04,259.82-8.16,397.72-24.28,136.74-15.98,272.97-39.35,401.77-68.63,124.89-28.4,240.15-61.76,341-98.11,189.87-68.44,316.5-142,383.08-213.2,55.05-58.86,64.03-111.13,37.74-155.66-11.01-18.65-28.34-35.87-50.72-51.32-20.46-14.12-45.39-26.94-73.65-38.26-26.29-10.53-55.81-19.9-87.51-27.99-30.04-7.66-62.5-14.3-96.41-19.83-64.96-10.6-136.08-17.38-212.02-20.78ZM509.33,1706.98c-6.91-34.88,2.57-71.19,25.66-107.31,20.24-31.67,51.06-63.43,89.92-94.2,34.52-27.34,75.73-54.18,121.46-79.76,41.34-23.12,86.87-45.49,134.81-66.58,44.16-19.42,90.96-38.02,138.93-55.42,45.03-16.33,91.79-31.85,139-46.28,45.13-13.79,91.49-26.83,137.93-38.88,45.14-11.72,91.31-22.75,137.44-32.91,44.13-9.72,88.6-18.73,132.47-26.87,41.39-7.69,83.16-14.77,124.42-21.14,39.64-6.12,79.6-11.69,119.04-16.63,38.6-4.83,77.41-9.12,115.61-12.8,38.11-3.67,76.29-6.8,113.75-9.31,38.09-2.56,76.14-4.53,113.34-5.86,38.54-1.38,76.96-2.1,114.45-2.12,39.54-.03,78.95.72,117.39,2.26,39.97,1.61,79.25,4.09,116.91,7.45,38.54,3.44,76.22,7.88,112.06,13.29,37.3,5.63,73.34,12.43,107.06,20.34,35.75,8.38,69.51,18.14,100.13,29.18,33.09,11.93,63.02,25.54,88.47,40.63,28.04,16.62,51.05,35.29,67.51,55.68,18.46,22.87,28.92,48.21,29.69,75.49.87,31.07-10.85,65-36.86,100.88-28.98,39.96-75.41,81.93-139.95,124.16-69.42,45.42-159.38,90.88-267.98,133.95-115.33,45.73-249.67,87.96-397.31,123.94-153.45,37.4-317.05,67.03-481.75,86.82-166.39,19.99-328.55,29.29-477.29,27.54-145.74-1.72-274.23-14.02-379.72-35.49-100.66-20.49-178.2-48.89-231.33-82.92-49.76-31.87-77.58-68.34-85.27-107.11ZM2380.68,1094.57c-38.05-1.56-77.07-2.32-116.24-2.31-37.15,0-75.23.71-113.45,2.06-36.9,1.31-74.64,3.26-112.43,5.79-37.17,2.49-75.07,5.59-112.89,9.24-37.91,3.65-76.42,7.92-114.73,12.72-39.13,4.9-78.77,10.44-118.08,16.52-40.92,6.33-82.31,13.37-123.33,21.01-43.46,8.09-87.5,17.04-131.17,26.69-45.63,10.09-91.28,21.03-135.86,32.65-45.84,11.95-91.56,24.86-136.01,38.51-46.47,14.27-92.44,29.62-136.63,45.75-47.04,17.17-92.86,35.52-135.99,54.66-46.77,20.76-91.06,42.74-131.13,65.44-44.26,25.08-83.95,51.34-116.95,78.06-37.08,30.02-66.15,60.94-84.74,91.69-21.17,35.01-28.92,70.12-20.63,103.75,9.19,37.3,37.98,72.26,87.94,102.7,53.22,32.42,129.88,59.37,228.62,78.69,103.28,20.21,228.45,31.63,369.96,33,144.28,1.39,301.31-7.72,462.31-26.97,159.43-19.06,317.87-47.46,466.71-83.28,143.4-34.51,274.23-75.01,386.95-118.93,106.38-41.44,194.93-85.27,263.72-129.15,64.11-40.9,110.72-81.63,140.34-120.5,26.65-34.97,39.3-68.12,39.56-98.52.22-26.74-9.13-51.62-26.43-74.12-15.45-20.09-37.42-38.5-64.43-54.93-24.55-14.93-53.59-28.4-85.82-40.23-29.85-10.96-62.87-20.66-97.91-28.99-33.08-7.86-68.49-14.64-105.2-20.25-35.29-5.4-72.44-9.84-110.48-13.28-37.19-3.37-76.02-5.86-115.56-7.48ZM350.49,1758.96c1.18-41.6,20.43-84.28,54.03-126.19,29.16-36.36,69.36-72.45,117.5-107.05,42.43-30.5,91.48-60.18,144.71-88.26,47.8-25.21,99.58-49.45,153.37-72.17,49.3-20.82,101-40.66,153.51-59.13,49.1-17.27,99.71-33.63,150.48-48.77,48.38-14.44,97.83-28.05,147.12-40.6,47.8-12.17,96.51-23.61,145-34.13,46.31-10.04,92.85-19.34,138.65-27.74,43.16-7.91,86.64-15.21,129.53-21.77,41.17-6.29,82.63-12.03,123.51-17.11,40-4.97,80.2-9.4,119.76-13.21,39.47-3.8,79.01-7.04,117.83-9.67,39.48-2.67,78.95-4.75,117.58-6.18,40.05-1.48,80.03-2.3,119.12-2.42,41.27-.12,82.5.54,122.84,2.02,42,1.54,83.44,3.97,123.32,7.3,40.9,3.42,81.1,7.86,119.57,13.32,40.14,5.69,79.2,12.6,116.08,20.68,39.22,8.59,76.68,18.65,111.11,30.08,37.37,12.41,71.8,26.64,101.81,42.52,33.25,17.59,61.61,37.47,83.31,59.34,24.53,24.7,40.91,52.3,47.09,82.24,7.1,34.43.77,72.4-21.32,112.95-24.89,45.69-69.55,94.22-135.43,143.56-71.75,53.75-168.16,108.11-287.75,160.06-128.48,55.81-281.03,107.7-451.11,152-178.19,46.42-369.7,82.99-563.11,106.87-195.74,24.17-385.75,34.39-558.33,30.29-168.25-4-313.84-21.49-430.13-50.37-109.84-27.27-190.69-64.02-241.98-107.08-47.44-39.83-68.99-84.6-67.66-131.41ZM2400.9,1087.95c-39.95-1.49-80.81-2.17-121.72-2.07-38.75.1-78.41.89-118.15,2.35-38.34,1.41-77.52,3.46-116.71,6.11-38.54,2.6-77.81,5.82-117,9.59-39.29,3.78-79.2,8.18-118.92,13.12-40.59,5.05-81.74,10.75-122.59,17.01-42.55,6.52-85.67,13.77-128.47,21.64-45.41,8.35-91.52,17.58-137.38,27.56-48,10.45-96.19,21.8-143.44,33.88-48.7,12.45-97.49,25.94-145.19,40.24-50.02,15-99.82,31.18-148.06,48.25-51.55,18.25-102.21,37.83-150.42,58.35-52.55,22.37-102.98,46.22-149.39,70.99-51.6,27.54-98.95,56.62-139.64,86.43-46.09,33.77-84.19,68.91-111.34,104.24-31.22,40.63-48.21,81.9-47.49,122,.81,45,23.92,87.89,72.06,125.89,51.89,40.98,132.19,75.78,240.11,101.45,114.01,27.12,255.86,43.37,419.09,46.8,167.25,3.52,350.99-6.52,540.1-29.72,186.94-22.94,372.17-57.9,544.82-102.22,165.08-42.38,313.62-92.03,439.27-145.52,117.25-49.92,212.35-102.26,283.72-154.13,65.71-47.76,110.88-94.83,136.79-139.27,23.04-39.53,30.63-76.63,24.94-110.33-4.95-29.37-20.02-56.48-43.2-80.79-20.55-21.55-47.74-41.18-79.87-58.57-29.04-15.72-62.5-29.82-98.96-42.14-33.62-11.36-70.3-21.36-108.79-29.9-36.21-8.04-74.64-14.93-114.18-20.61-37.91-5.45-77.58-9.89-117.99-13.32-39.42-3.34-80.41-5.78-122-7.33ZM173.7,1816.81c12.23-49.68,44.06-99.88,90.7-148.49,40.03-41.71,91.33-82.63,150.21-121.46,51.45-33.93,109.31-66.67,170.8-97.4,54.86-27.41,113.37-53.59,173.38-77.99,54.72-22.24,111.54-43.33,168.75-62.88,53.29-18.21,107.83-35.39,162.21-51.25,51.67-15.07,104.2-29.24,156.34-42.27,50.44-12.61,101.64-24.44,152.45-35.3,48.44-10.35,96.99-19.92,144.67-28.55,44.87-8.13,90-15.62,134.45-22.35,42.64-6.46,85.53-12.35,127.81-17.57,41.34-5.1,82.87-9.66,123.73-13.59,40.76-3.92,81.62-7.27,121.73-10.01,40.81-2.78,81.64-4.96,121.65-6.49,41.5-1.59,82.99-2.5,123.62-2.71,42.94-.22,85.95.36,128.14,1.76,44,1.46,87.55,3.82,129.64,7.12,43.26,3.38,85.97,7.82,127.08,13.3,43.01,5.74,85.16,12.74,125.27,20.96,42.81,8.77,84.1,19.11,122.55,30.91,41.91,12.87,81.15,27.71,116.13,44.36,38.98,18.55,73.29,39.66,100.97,63.04,31.51,26.61,54.91,56.59,67.71,89.39,14.86,38.1,15.61,80.56-.8,126.39-18.73,52.3-59.65,108.55-125.27,166.44-72.51,63.96-174.6,129.46-305.58,192.72-142.65,68.91-316.09,133.52-512.87,188.88-208.18,58.57-434.17,104.48-663.29,133.71-232.38,29.65-456.87,40.74-658.27,32.88-195.11-7.61-360.01-32.68-487.11-71.99-118.58-36.67-200.64-84.66-246.87-139.61-42.14-50.09-53.88-105.28-39.93-161.96ZM2420.39,1081.57c-41.81-1.41-84.46-2.01-127.06-1.81-40.31.19-81.49,1.08-122.69,2.65-39.73,1.51-80.28,3.67-120.81,6.42-39.85,2.71-80.44,6.04-120.94,9.94-40.6,3.9-81.85,8.43-122.92,13.51-41.99,5.19-84.58,11.05-126.92,17.47-44.13,6.7-88.91,14.15-133.43,22.23-47.3,8.59-95.43,18.1-143.44,28.39-50.33,10.79-101.02,22.54-150.92,35.06-51.54,12.93-103.43,26.99-154.4,41.92-53.62,15.71-107.33,32.72-159.74,50.73-56.22,19.32-111.95,40.16-165.53,62.1-58.69,24.04-115.76,49.81-169.1,76.76-59.7,30.16-115.64,62.25-165.11,95.43-56.51,37.91-105.34,77.77-142.92,118.31-43.7,47.13-72.64,95.66-82.28,143.53-10.97,54.45,3.17,107.27,46.72,154.99,47.62,52.19,129.66,97.53,246.48,131.97,124.88,36.81,285.55,60.05,474.64,66.76,194.92,6.92,411.57-4,635.59-32.37,220.99-27.99,439.15-71.7,640.57-127.41,190.8-52.77,359.63-114.41,499.24-180.28,128.57-60.66,229.57-123.61,302.08-185.26,65.84-55.98,107.73-110.5,127.95-161.35,17.76-44.68,18.65-86.16,5.54-123.47-11.31-32.19-33.14-61.65-63.12-87.86-26.37-23.06-59.39-43.91-97.13-62.26-33.91-16.49-72.13-31.21-113.07-43.98-37.59-11.73-78.08-22.01-120.13-30.75-39.43-8.19-80.93-15.17-123.33-20.9-40.55-5.48-82.74-9.92-125.5-13.31-41.63-3.3-84.75-5.68-128.34-7.16ZM-24.27,1881.6c27.09-59.48,75.05-118.61,137.8-175,53.21-47.81,117.6-94.16,188.87-137.65,61.72-37.67,129.41-73.7,199.98-107.23,62.55-29.72,128.28-57.92,194.9-84.04,60.44-23.69,122.6-46.05,184.67-66.68,57.59-19.14,116.14-37.14,174.17-53.7,54.97-15.68,110.59-30.39,165.56-43.89,53.06-13.03,106.72-25.23,159.81-36.41,50.53-10.64,101.04-20.47,150.55-29.33,46.54-8.33,93.25-16.01,139.21-22.91,44.06-6.61,88.33-12.65,131.93-18,42.63-5.23,85.42-9.91,127.53-13.95,42-4.03,84.11-7.5,125.47-10.33,42.09-2.88,84.22-5.17,125.56-6.8,42.89-1.69,85.84-2.71,127.97-3,44.57-.32,89.31.17,133.31,1.48,45.96,1.37,91.59,3.67,135.87,6.91,45.59,3.34,90.82,7.75,134.58,13.24,45.91,5.76,91.18,12.83,134.61,21.17,46.5,8.94,91.79,19.51,134.43,31.66,46.7,13.3,91.09,28.72,131.44,46.13,45.22,19.51,86.16,41.86,120.6,66.79,39.52,28.6,71.14,61.09,91.95,96.98,24.43,42.11,34.32,89.58,25.77,141.43-9.89,59.99-44.38,125.4-107.46,193.67-70.84,76.67-177.14,156.35-319.54,234.32-157.67,86.34-355.16,168.21-584.22,238.75-245.3,75.55-514.96,134.51-789.69,171.01-279.44,37.12-547.69,48.84-784.58,34.88-227.66-13.42-414.21-49.87-551.27-104.31-125.94-50.01-205.56-113.48-241.75-184.33-32.43-63.48-29.43-131.95,1.95-200.86ZM2439.19,1075.42c-43.63-1.33-88.02-1.83-132.25-1.54-41.82.28-84.47,1.27-127.07,2.94-41.06,1.61-82.93,3.87-124.75,6.73-41.11,2.81-82.96,6.26-124.71,10.26-41.86,4.02-84.4,8.67-126.76,13.88-43.33,5.32-87.32,11.33-131.08,17.91-45.65,6.86-92.03,14.5-138.22,22.79-49.13,8.82-99.24,18.59-149.34,29.17-52.62,11.12-105.78,23.24-158.3,36.19-54.38,13.4-109.35,28-163.62,43.55-57.26,16.41-114.97,34.24-171.65,53.19-61.05,20.41-122.07,42.5-181.3,65.89-65.22,25.76-129.41,53.53-190.3,82.76-68.61,32.94-134.16,68.26-193.63,105.12-68.54,42.48-130.02,87.64-180.26,134.1-59.11,54.66-103.37,111.81-127,169.08-27.28,66.14-26.71,131.56,8.2,191.94,38.81,67.12,119.34,126.92,243.92,173.73,135.12,50.77,316.96,84.44,537.28,96.4,228.84,12.42,487.03.8,755.61-34.55,264.23-34.78,523.86-90.62,760.72-162.12,221.78-66.94,413.96-144.73,568.44-226.99,140.03-74.56,245.62-150.97,317.06-224.74,63.84-65.93,99.94-129.29,111.93-187.59,10.39-50.53,2.6-96.91-19.67-138.15-19.01-35.22-48.81-67.17-86.57-95.35-32.96-24.6-72.46-46.69-116.34-66-39.2-17.25-82.49-32.56-128.17-45.77-41.76-12.08-86.2-22.61-131.92-31.51-42.73-8.32-87.34-15.38-132.64-21.13-43.2-5.49-87.91-9.91-133.01-13.26-43.82-3.25-89.03-5.56-134.59-6.95ZM-247.48,1954.65c46.95-71.46,115.49-141.24,198.07-206.7,69.12-54.79,148.92-107.24,234.42-155.88,73.36-41.74,152-81.3,232.53-117.82,70.88-32.14,144.36-62.44,217.98-90.33,66.45-25.17,134.16-48.81,201.24-70.53,62-20.07,124.63-38.88,186.35-56.12,58.3-16.29,117.01-31.52,174.79-45.47,55.65-13.44,111.74-25.99,167.07-37.48,52.57-10.92,105-20.99,156.27-30.06,48.15-8.52,96.4-16.37,143.82-23.43,45.42-6.76,91.02-12.93,135.89-18.4,43.86-5.35,87.87-10.15,131.18-14.29,43.19-4.14,86.5-7.71,129.05-10.64,43.31-2.99,86.7-5.37,129.31-7.1,44.24-1.79,88.59-2.91,132.18-3.3,46.14-.42,92.57-.03,138.34,1.2,47.87,1.28,95.56,3.5,142,6.68,47.91,3.28,95.64,7.65,142.07,13.14,48.82,5.77,97.27,12.88,144.08,21.33,50.29,9.08,99.71,19.87,146.76,32.34,51.75,13.71,101.61,29.69,147.75,47.84,52.02,20.46,100.27,44.06,142.31,70.58,48.63,30.67,89.85,65.83,120.28,105.03,36.11,46.53,57.65,99.61,59.73,158.33,2.45,69-21.96,145.43-79.12,226.47-65.43,92.76-173.25,190.88-326.36,288.48-173,110.27-398.24,216.4-667.02,308.64-292.39,100.34-619.14,178.45-954.21,225.28-342.07,47.81-667.72,59.55-949.26,35.27-267.75-23.09-478.08-77.32-622.32-154.45-130.03-69.53-200.88-154.89-219.2-247.48-16.09-81.3,8.65-166.88,63.99-251.12ZM2457.33,1069.49c-45.41-1.25-91.49-1.65-137.31-1.26-43.28.37-87.34,1.47-131.3,3.24-42.35,1.7-85.48,4.07-128.54,7.04-42.31,2.91-85.37,6.47-128.32,10.58-43.06,4.13-86.83,8.9-130.44,14.22-44.61,5.45-89.94,11.59-135.08,18.32-47.11,7.02-95.05,14.84-142.86,23.32-50.91,9.03-102.94,19.05-155.1,29.92-54.87,11.43-110.46,23.91-165.57,37.27-57.19,13.86-115.25,28.98-172.85,45.14-60.95,17.1-122.72,35.74-183.79,55.61-66.03,21.49-132.56,44.87-197.74,69.73-72.14,27.52-143.96,57.37-213.05,89-78.38,35.88-154.64,74.69-225.45,115.54-82.37,47.53-158.74,98.64-224.29,151.89-78.1,63.45-141.92,130.85-184.26,199.61-49.71,80.75-69.21,162.39-49.02,239.53,22.88,87.45,96.27,167.56,225.85,232.35,143.11,71.56,348.35,121.36,607,141.98,271.32,21.64,583.59,9.82,910.97-35.41,320.96-44.34,634.41-117.78,915.98-212.09,259.76-87,478.88-187.31,648.69-291.91,150.98-92.99,258.78-186.83,325.73-275.89,58.75-78.15,85.62-152.11,86.08-219.11.39-57.21-18.48-109.07-51.97-154.64-28.28-38.49-67.37-73.07-114-103.3-40.38-26.18-87.05-49.52-137.61-69.79-44.9-18-93.6-33.87-144.28-47.49-46.12-12.4-94.66-23.15-144.16-32.2-46.1-8.43-93.88-15.54-142.09-21.3-45.87-5.49-93.08-9.87-140.5-13.16-45.99-3.19-93.26-5.42-140.74-6.73ZM-501.07,2037.64c73.41-86.24,168.19-168.82,275.17-244.91,88.3-62.81,186.17-122.12,288.02-176.47,86.53-46.18,177.33-89.53,268.76-129.22,79.91-34.68,161.66-67.16,242.68-96.87,72.75-26.68,146.23-51.62,218.48-74.42,66.52-21,133.3-40.6,198.74-58.52,61.65-16.88,123.44-32.62,184.01-47.01,58.22-13.83,116.7-26.73,174.22-38.51,54.57-11.18,108.86-21.48,161.86-30.76,49.71-8.7,99.45-16.72,148.27-23.92,46.73-6.89,93.6-13.19,139.71-18.79,45.04-5.47,90.23-10.37,134.68-14.62,44.33-4.24,88.79-7.91,132.49-10.95,44.49-3.09,89.09-5.57,132.92-7.39,45.54-1.89,91.25-3.11,136.24-3.59,47.68-.52,95.74-.23,143.25.9,49.75,1.19,99.46,3.32,148.04,6.42,50.21,3.21,100.44,7.54,149.54,13,51.76,5.76,103.43,12.91,153.69,21.44,54.18,9.19,107.87,20.19,159.5,32.94,57.04,14.09,112.73,30.62,165.09,49.49,59.39,21.41,115.69,46.28,166.25,74.42,58.97,32.83,111.32,70.82,153.21,113.61,50.31,51.39,86.54,110.79,102.75,177.44,19.38,79.66,10.11,169.48-36.2,266.5-54.2,113.55-158.78,236.29-320.37,360.89-187.27,144.4-444.32,286.21-763.05,411.11-354.05,138.75-758.65,246.8-1177.24,309.29-429.54,64.13-833.74,74.37-1172.9,31.68-317.95-40.02-552.85-123.47-697.31-236.28-127.06-99.22-177.9-216.57-165.74-339.69,10.41-105.48,66.99-213.52,155.25-317.2ZM2474.84,1063.76c-47.15-1.15-94.88-1.46-142.24-.97-44.7.47-90.13,1.66-135.39,3.53-43.58,1.8-87.93,4.26-132.18,7.33-43.47,3.01-87.69,6.67-131.79,10.88-44.22,4.23-89.17,9.11-133.97,14.55-45.85,5.57-92.46,11.84-138.92,18.71-48.53,7.17-97.96,15.15-147.34,23.82-52.64,9.24-106.55,19.49-160.71,30.62-57.07,11.73-115.06,24.56-172.75,38.3-59.99,14.3-121.13,29.93-182.08,46.69-64.67,17.78-130.57,37.21-196.14,58.02-71.16,22.58-143.42,47.25-214.84,73.61-79.45,29.33-159.44,61.35-237.41,95.49-89.08,39.01-177.24,81.55-260.88,126.77-98.25,53.11-192.1,110.92-276.1,171.96-101.46,73.73-190.24,153.44-257.49,236.34-80.51,99.24-129.42,202.07-133.23,301.85-4.42,115.82,51.88,225.4,180.43,317.29,145.33,103.88,375.19,179.89,681.67,215.5,325.84,37.86,711.39,27.1,1119.96-32.97,398.65-58.62,784.78-159.16,1124.47-288.32,307.28-116.84,557.35-249.94,741.85-386.11,160.11-118.18,265.9-235.14,323.06-343.88,49.09-93.38,62.01-180.18,46.61-257.47-12.94-64.9-45.82-122.92-92.94-173.26-39.33-42.02-89.22-79.39-145.92-111.77-48.7-27.8-103.26-52.41-161.07-73.62-51.03-18.73-105.48-35.14-161.4-49.16-50.67-12.7-103.45-23.65-156.82-32.82-49.54-8.51-100.53-15.66-151.67-21.42-48.54-5.47-98.25-9.81-147.97-13.03-48.13-3.12-97.43-5.27-146.8-6.48ZM-791.71,2132.75c108.68-104.67,236.97-202.73,373.99-291.35,111.39-72.04,230.45-139.11,351.03-199.78,101.38-51.02,205.68-98.46,308.99-141.5,89.66-37.35,180.24-72.08,269.06-103.67,79.35-28.22,158.8-54.46,236.36-78.36,71.14-21.92,142.12-42.32,211.33-60.9,65.01-17.46,129.88-33.7,193.23-48.51,60.76-14.2,121.6-27.43,181.27-39.5,56.52-11.43,112.64-21.95,167.3-31.43,51.22-8.88,102.41-17.05,152.58-24.39,47.99-7.02,96.1-13.44,143.38-19.15,46.17-5.57,92.49-10.58,138.04-14.93,45.43-4.34,90.98-8.11,135.79-11.24,45.62-3.18,91.38-5.76,136.4-7.68,46.79-1.99,93.82-3.3,140.17-3.89,49.16-.62,98.82-.43,148.02.6,51.59,1.09,103.29,3.13,153.98,6.15,52.48,3.13,105.21,7.4,156.98,12.83,54.71,5.74,109.63,12.9,163.41,21.49,58.16,9.29,116.25,20.46,172.66,33.48,62.59,14.45,124.43,31.49,183.46,51.08,67.36,22.35,132.49,48.49,192.54,78.32,70.66,35.09,135.87,76.08,191.35,122.76,67.49,56.77,122.16,123.33,156.96,199.17,42.39,92.39,55.34,198.71,27.26,316.09-33.74,141.06-126.6,297.69-291.35,460.93-197.28,195.48-489.79,392.98-872.77,570.56-438.13,203.15-955.15,362.35-1496.99,450.79-560.25,91.45-1078.47,96.23-1494,17.83-381.54-71.98-636.96-207.05-764.91-379.55-108.85-146.75-119.13-312.85-55.44-480.31,52.93-139.16,156.28-277.23,289.93-405.95ZM2491.77,1058.22c-48.85-1.06-98.19-1.27-147.04-.67-46.07.56-92.83,1.86-139.35,3.83-44.77,1.89-90.3,4.46-135.68,7.62-44.58,3.11-89.91,6.86-135.12,11.18-45.33,4.33-91.42,9.32-137.36,14.87-47.04,5.68-94.89,12.08-142.62,19.07-49.89,7.31-100.78,15.45-151.68,24.29-54.32,9.43-110.06,19.91-166.18,31.29-59.23,12.01-119.58,25.17-179.82,39.3-62.77,14.72-127,30.86-191.3,48.19-68.42,18.44-138.51,38.67-208.68,60.4-76.44,23.67-154.63,49.64-232.59,77.54-87.17,31.19-175.86,65.45-263.43,102.24-100.75,42.33-202.12,88.89-300.25,138.86-116.45,59.3-230.81,124.66-337.01,194.66-130.22,85.83-250.83,180.41-351.3,280.89-122.94,122.96-215,254-257.33,385.15-50.59,156.71-29.44,310.76,85.14,445.52,133.62,157.17,385.59,278.68,752.6,342.07,397.7,68.69,888.13,62.22,1416.08-22.16,511.56-81.76,1001.22-227.64,1419.41-414.16,368.13-164.19,653.02-347.75,848.84-530.66,164.77-153.91,261.04-302.48,300.04-437.11,32.65-112.7,25.04-215.29-11.96-304.83-30.5-73.81-80.98-138.8-144.61-194.41-52.45-45.83-114.83-86.18-182.92-120.79-57.99-29.47-121.21-55.35-186.86-77.5-57.6-19.44-118.13-36.38-179.55-50.75-55.4-12.97-112.57-24.1-169.89-33.38-53.04-8.58-107.28-15.74-161.37-21.48-51.21-5.44-103.42-9.72-155.42-12.87-50.25-3.04-101.54-5.1-152.75-6.21ZM-1128.16,2242.85c155.92-127.93,327.11-244.89,501.19-348.37,139.19-82.73,283.09-158.57,425.09-226.26,118.12-56.31,237.34-108.14,353.62-154.75,100.16-40.15,200.14-77.23,297.17-110.74,86.24-29.78,171.89-57.35,254.89-82.34,75.86-22.84,151.11-44.02,224.1-63.25,68.38-18.02,136.32-34.75,202.43-49.96,63.28-14.56,126.44-28.11,188.22-40.45,58.44-11.67,116.32-22.4,172.61-32.06,52.69-9.04,105.27-17.35,156.76-24.83,49.22-7.15,98.5-13.68,146.92-19.49,47.27-5.68,94.66-10.78,141.27-15.23,46.48-4.43,93.1-8.3,138.96-11.52,46.71-3.28,93.59-5.95,139.75-7.96,48-2.09,96.3-3.5,143.97-4.18,50.61-.72,101.83-.64,152.68.3,53.39.99,107.04,2.93,159.82,5.87,54.74,3.05,109.94,7.25,164.39,12.63,57.67,5.7,115.88,12.86,173.23,21.49,62.22,9.37,124.85,20.68,186.22,33.95,68.39,14.78,136.73,32.32,202.87,52.6,75.94,23.28,150.74,50.71,221.35,82.26,83.83,37.45,163.85,81.64,235.4,132.53,88.22,62.75,165.96,137.45,225.07,224.05,73.56,107.78,118.79,234.77,120.19,378.64,1.74,178.53-63.98,383.64-219.92,605.01-195.1,276.97-523.32,568.68-990.86,839.88-559.04,324.27-1252.71,583.16-1994.75,720.84-776.74,144.14-1475.27,131.67-1993.67-25.55-460.65-139.7-716.15-375.99-785.79-657.33-56.51-228.28,13.6-472.93,165.63-707.51,121.56-187.58,294.33-366.77,491.18-528.28ZM2508.13,1052.86c-50.52-.96-101.42-1.06-151.73-.36-47.4.66-95.44,2.05-143.18,4.12-45.92,1.99-92.58,4.64-139.06,7.9-45.65,3.2-92.05,7.04-138.31,11.46-46.4,4.43-93.57,9.51-140.62,15.17-48.18,5.79-97.23,12.3-146.19,19.42-51.21,7.45-103.5,15.73-155.89,24.74-55.96,9.62-113.48,20.31-171.52,31.93-61.35,12.28-124.03,25.76-186.79,40.25-65.53,15.13-132.83,31.76-200.5,49.66-72.2,19.1-146.55,40.11-221.42,62.76-81.86,24.77-166.2,52.06-250.99,81.51-95.29,33.11-193.27,69.69-291.18,109.25-113.48,45.85-229.47,96.74-343.93,151.9-137.29,66.16-275.67,140.08-408.62,220.44-165.69,100.16-327.03,212.86-471.93,335.47-181.88,153.91-337.79,323.39-442.16,499.29-129.36,218.02-177.86,442.8-105.96,649.91,87.6,252.35,346.53,460.87,789.53,581.45,494.42,134.58,1147.26,141.62,1867.92,12.01,690.66-124.22,1339.65-355.64,1869.36-647.07,447.87-246.42,769.02-513.72,966.29-770.09,159.3-207.03,232.47-400.43,239.78-570.1,5.93-137.73-31.55-260.01-97.81-364.34-53.5-84.22-126-157.13-209.57-218.58-67.97-49.98-144.73-93.49-225.68-130.43-68.32-31.18-141.03-58.34-215.13-81.43-64.62-20.13-131.59-37.57-198.75-52.29-60.32-13.22-121.99-24.51-183.36-33.86-56.6-8.63-114.12-15.79-171.17-21.49-53.89-5.39-108.57-9.6-162.84-12.67-52.34-2.96-105.59-4.92-158.62-5.93Z"/>
  <g id="starpole">
    <g id="starpole-2" data-name="starpole">
      <g>
        <path class="cls-2" d="M1900.77,1235.21c-.97,0-1.78-.38-2.27-1.08-.57-.8-.64-1.91-.22-3.12l29.18-86.27c.73-2,2.36-3.32,4.07-3.32.21,0,.43.02.65.06.88.22,1.53.71,1.91,1.41.44.82.48,1.84.11,2.89l-29.18,86.21c-.67,1.91-2.41,3.23-4.26,3.23Z"/>
        <path class="cls-5" d="M1931.53,1142.91c.12,0,.25.01.37.04,1.01.25,1.26,1.26.88,2.33l-29.18,86.23h0c-.44,1.26-1.64,2.21-2.84,2.21s-1.51-.95-1.07-2.21l29.18-86.29c.46-1.26,1.48-2.3,2.65-2.3M1931.53,1139.91c-2.38,0-4.53,1.68-5.47,4.28v.03s-.02.03-.02.03l-29.18,86.29c-.79,2.24-.08,3.76.42,4.45.77,1.09,2.05,1.71,3.5,1.71,2.47,0,4.8-1.73,5.67-4.21l.17-.48v-.02l29.03-85.76c.5-1.42.43-2.87-.21-4.07-.58-1.07-1.57-1.83-2.78-2.14l-.08-.02-.08-.02c-.31-.06-.62-.09-.93-.09h0Z"/>
      </g>
      <path class="cls-2" d="M1903.6,1231.5l29.18-86.23c.38-1.07.13-2.08-.88-2.33-1.32-.25-2.52.88-3.03,2.27l-29.18,86.29c-.44,1.26-.13,2.21,1.07,2.21s2.39-.95,2.84-2.21h0Z"/>
      <path class="cls-2" d="M1839,1258.42h.88c23.32.38,37.82.25,42.23,5.99,3.91,5.04,2.58,10.59-.25,18.91,1.32-.13,2.58-.32,3.91-.5,2.96-8.38,5.42-14.06,11.85-18.66,7.12-5.04,19.73-5.86,32.02-5.86h1.2c.95,0,2.02-.76,2.33-1.76.32-.95-.19-1.76-1.13-1.76h-1.2c-12.35,0-23.76-.19-27.35-5.8-3.03-4.73-.19-16.14,3.15-26.66l.19-.5c.5-1.39.13-2.46-1.26-2.46s-2.14,1.13-2.65,2.58v.25c-.06,0-.44,1.01-.44,1.01-3.85,10.78-8,20.67-13.93,25.09-9.64,7.19-35.3,6.37-47.46,6.37h-.76c-.95,0-2.08.69-2.52,1.64-.5,1.13,0,2.08,1.13,2.08l.06.06h0Z"/>
      <path class="cls-2" d="M1881.92,1288.17c-1.2.19-1.95.5-2.27,1.39-.13.38-.13.44-.25.69,0,0-.19.5-.13.44l-.25.82c-.32.95,0,1.83,1.01,1.95,1.07.13,2.27-.76,2.65-1.83,0,0,.32-1.01.44-1.32.19-.57.32-.88.5-1.51s-.69-.76-1.7-.63h0,0Z"/>
    </g>
    <g>
      <path id="ring" class="cls-4" d="M1895.77,1231.76h0c-.18.44-.36.87-.54,1.3-48.62,3.94-95.38,16.81-109,30.05-.22.21-.42.42-.62.63-1.09,1.15-1.9,2.27-2.43,3.37h-8.96c.55-.73,1.2-1.47,1.96-2.22.56-.55,1.21-1.13,1.92-1.72,17.04-14.06,66.46-27.25,117.66-31.41h0ZM1986.36,1244.64h0c1.32,3.24.07,6.76-3.69,10.46-2.94,2.9-7.37,5.83-13.17,8.72-2.24,1.12-4.66,2.21-7.22,3.29h-11.43c3.55-1.29,6.86-2.62,9.88-3.99,6.79-3.08,11.85-6.22,15.05-9.33,3.34-3.24,4.47-6.28,3.37-9.02-3.2-7.96-24.49-12.91-55.55-12.91-4.86,0-9.96.12-15.17.36-.55.03-1.1.05-1.65.08.04-.13.07-.26.11-.4.51-.03,1.02-.05,1.53-.08-.51.02-1.02.05-1.53.08.08-.3.17-.61.26-.91h.14c.43-.03.85-.06,1.27-.08,6.18-.31,12.22-.47,17.95-.47,33.87,0,56.24,5.31,59.85,14.2h0ZM1928.69,1230.85c-.72,0-1.45,0-2.18,0h-.05c.75,0,1.49,0,2.23,0ZM1772.5,1275.36h0c-1.05-2.59-.47-5.35,1.72-8.24h8.95c-.87,1.8-.96,3.52-.28,5.13,3.36,7.89,24.63,12.8,55.5,12.8,4.86,0,9.96-.12,15.17-.36,34.8-1.6,72.16-8.45,97.27-17.57h11.43c-26.82,11.24-70.36,19.88-111.98,21.97-6.18.31-12.22.47-17.95.47-33.87,0-56.24-5.31-59.85-14.2h0ZM1853.6,1285.07c7.69-.35,15.44-.96,23.1-1.77-7.66.81-15.4,1.41-23.1,1.77ZM1830.19,1289.15c.72,0,1.44,0,2.16,0h.04c-.74,0-1.48,0-2.21,0Z"/>
      <g id="flag">
        <path class="cls-1" d="M1896.64,1170.73c-.74-.25-1.55-.38-3.41-.63-.68-.13-3.78-.69-2.42-1.89,1.86-1.64,4.4-6.48,7.13-7.49.9-.33,3.17.1,5.57.65l2.98-1.74c-2.1.31-2.91.49-3.46.67-1.79.49-3.03-.98-4.95-.25-4.27,4.54-12.62,8.04-24.62,7.55,2.54,1.59,7.05,3.99,11.5,4.79,3.09.55,4.14.55,8.78.74,3.58.11,3.82-.31,4.09-1.16-.01-.31-.18-.88-1.19-1.24Z"/>
        <path class="cls-1" d="M1918.78,1169.67c-3.1-.93-4.21-1.18-7.31-1.61-3.78-.56-4.03-.5-7.31-.74-2.23-.19-3.66-.12-6.26-.12-1.86,0-2.91,0-4.71.31-2.29.37-2.48.56-2.85.87,3.53-4.89,5.21-12.08,6.63-13.32,2.73-2.42,10.1-6.26,14.63-7.68,3.47-1.05,11.72-2.85,16.37-2.79-3.53,4.71-8.43,14.12-9.3,25.09h.12,0,0Z"/>
      </g>
    </g>
  </g>
</svg>