<?xml version="1.0" encoding="UTF-8"?>
<svg id="Layer_1" data-name="Layer 1" xmlns="http://www.w3.org/2000/svg" viewBox="0 0 640.36 639.54">
  <defs>
    <style>
      .cls-1 {
        fill: #e0f9a2;
      }
    </style>
  </defs>
  <path d="M414.5,251.67c-25.19-25.19-58.7-39.06-94.32-39.06v.03c-35.62,0-69.13,13.87-94.35,39.06-52.03,52.03-52.03,136.66.11,188.77l94.24,92.16,94.32-92.27c25.21-25.19,39.09-58.7,39.09-94.35s-13.87-69.13-39.09-94.35ZM395.74,421.44v-.03l-75.56,73.91-75.48-73.8c-41.62-41.62-41.62-109.34,0-150.94,20.17-20.14,46.96-31.24,75.48-31.24s55.31,11.1,75.46,31.24c20.17,20.15,31.27,46.96,31.27,75.48s-11.1,55.31-31.16,75.38Z"/>
  <circle cx="320.18" cy="346.04" r="26.68"/>
  <path class="cls-1" d="M614.88,213.57L361.4,14.31c-24.28-19.08-58.17-19.08-82.45,0L25.48,213.57C9.29,226.29,0,245.4,0,266v373.54h640.36v-373.54c0-20.6-9.28-39.73-25.48-52.43ZM414.5,440.36l-94.32,92.27-94.24-92.16c-52.14-52.11-52.14-136.74-.11-188.77,25.21-25.19,58.73-39.06,94.35-39.06v-.03c35.62,0,69.13,13.87,94.32,39.06,25.21,25.21,39.09,58.7,39.09,94.35s-13.87,69.16-39.09,94.35Z"/>
</svg>