<?xml version="1.0" encoding="UTF-8"?>
<svg id="Layer_1" data-name="Layer 1" xmlns="http://www.w3.org/2000/svg" viewBox="0 0 498.68 498.64">
  <defs>
    <style>
      .cls-1 {
        fill: #a4dddd;
      }
    </style>
  </defs>
  <path class="cls-1" d="M486.5,12.18l-.02-.02c-7.85-7.83-18.28-12.15-29.36-12.15l-124.66.04c-22.92,0-41.55,18.66-41.55,41.58l.04,163.27c0,9.1,5.07,17.27,13.24,21.28,3.37,1.66,6.96,2.47,10.53,2.47,5.11,0,10.16-1.66,14.42-4.92l45.02-34.56c1.82-1.4,4.05-2.15,6.34-2.15h80.46c20.83,0,37.72-16.89,37.72-37.72V41.55c0-11.09-4.32-21.53-12.18-29.38Z"/>
  <path d="M455.2,378.51l-64.03-64.03c-14.9-14.9-39.06-14.9-53.96,0l-38.23,38.22c-3.02,3.02-7.59,3.9-11.52,2.2-65.08-28.26-113.26-76.5-143.47-143.74-1.77-3.95-.92-8.58,2.14-11.64l38.06-38.07c14.9-14.9,14.9-39.06,0-53.96L120.15,43.46c-14.9-14.9-39.07-14.9-53.97,0l-32.82,32.83C11.84,97.76,0,126.83,0,158.18c0,149.56,190.9,340.46,340.48,340.46,31.33,0,60.42-11.84,81.88-33.33l32.83-32.83c14.9-14.9,14.9-39.06,0-53.97ZM437.53,420.79l-29.85,29.85v-.02c-17.56,17.58-41.41,27.26-67.19,27.26-137.46,0-319.7-182.26-319.7-319.7,0-25.81,9.68-49.66,27.26-67.19l29.85-29.85c8.44-8.44,22.11-8.44,30.55,0l58.07,58.07c8.44,8.44,8.44,22.11,0,30.55l-45,45c-2.95,2.95-3.85,7.37-2.3,11.24h0c33.76,84.07,92.19,142.45,173.64,173.55,3.83,1.45,8.16.53,11.06-2.37l45.02-45c8.44-8.43,22.11-8.43,30.54,0l58.07,58.07c8.44,8.44,8.44,22.11,0,30.55Z"/>
</svg>