<?xml version="1.0" encoding="UTF-8"?>
<svg id="Layer_1" data-name="Layer 1" xmlns="http://www.w3.org/2000/svg" viewBox="0 0 561.16 561.2">
  <defs>
    <style>
      .cls-1 {
        fill: #f9b767;
      }
    </style>
  </defs>
  <path d="M557.39,221.15l-84.63-86.29-.46-.48v35.8l3.57,3.68,46.34,47.73,1.77,1.82-2.18,1.29-46.49,27.57-3.01,1.79-142.29,84.39c-29.42,17.45-65.98,17.56-95.51.3l-145.64-85.13-3.03-1.77-46.47-27.13-2.21-1.29,1.78-1.83,46.35-47.75,3.57-3.68v-35.73l.11-.12h0s-.57.58-.57.58L3.72,222.49C1.35,224.94,0,228.59,0,232.51l.12,246.69c.01,21.89,8.73,42.5,24.55,58.03,15.74,15.45,36.51,23.96,58.47,23.96h394.85c22.23,0,43.12-8.64,58.82-24.34,15.69-15.69,24.34-36.56,24.34-58.77l.02-248.12c0-3.4-1.34-6.54-3.77-8.82ZM519.26,519.36c-11.13,11.06-26.36,17.15-42.91,17.15l-392-.02c-16.31,0-31.4-6.1-42.48-17.16-11.1-11.08-17.21-26.16-17.2-42.47l.1-228.31v-3.48s3.01,1.76,3.01,1.76l132.1,77.23,74.05,41.69c14.47,7.41,29.96,11.16,46.03,11.16,19.31,0,39.07-5.57,57.14-16.11l199.37-116.3.02,232.39c0,16.36-6.11,31.45-17.22,42.49Z"/>
  <path d="M414.1,380.87c-2.26-2.81-5.31-3.4-7.47-3.4v-1.48h0v1.48c-3.17,0-6.63,1.27-9.06,3.32-3.75,3.17-7.28,10.36-2.96,15.74l73.16,91.03c2.02,2.51,4.87,3.04,6.9,3.04,3.17,0,6.72-1.25,9.03-3.19,2.42-2.03,4.19-4.81,4.85-7.65.52-2.21.6-5.53-1.98-8.73l-72.48-90.15Z"/>
  <path d="M166.11,396.52c2.41-3,2.32-6.26,1.81-8.47-.65-2.86-2.34-5.62-4.63-7.58-2.38-2.04-5.97-3.36-9.14-3.36v-1.49h0v1.49c-2.08,0-4.99.55-7.11,3.19l-72.62,90.33c-1.65,2.05-2.36,4.57-2.04,7.27.4,3.39,2.35,6.83,5.1,8.97,2.51,1.95,5.65,3.07,8.61,3.07,2.27,0,5.52-.67,8.1-3.89l71.92-89.53Z"/>
  <g>
    <path class="cls-1" d="M472.22,134.27v-.8s-.17-79.17-.17-79.17c-.03-14.53-5.7-28.16-15.95-38.39-10.28-10.26-24-15.91-38.64-15.91H143.74c-14.62,0-28.34,5.65-38.63,15.92-10.26,10.24-15.93,23.86-15.97,38.36l-.17,79.24v.79s0,.01,0,.01l-.11.12v119.17l145.64,85.13c29.53,17.26,66.09,17.14,95.51-.3l142.29-84.39v-119.68h0s-.08-.1-.08-.1ZM371.37,203.72c-.11,11.7-6.51,22.56-16.69,28.33-4.95,2.8-10.55,4.28-16.21,4.28-10.1,0-19.58-4.65-25.77-12.4-8.59,7.81-19.83,12.27-31.54,12.39h-.46c-12.6,0-24.46-4.88-33.42-13.75-8.96-8.87-13.96-20.7-14.08-33.31v-.08s0-.08,0-.08c.46-14.44,5.79-26.58,15.41-35.12,8.55-7.58,19.9-11.76,31.98-11.76,12.07,0,23.43,4.18,31.97,11.76,9.63,8.54,14.96,20.68,15.42,35.12v.06s0,.06,0,.06v14.46c0,5.77,4.69,10.46,10.46,10.46s10.46-4.69,10.46-10.46v-14.38c-.89-21.14-8.63-38.79-22.38-51.06-12.26-10.94-28.58-16.97-45.95-16.97s-33.68,6.03-45.94,16.97c-13.76,12.28-21.49,29.94-22.38,51.09-.21,17.66,6.58,34.37,19.11,47.06,13.3,13.47,31.62,21.2,50.25,21.2,13.75,0,26.95-4.29,38.16-12.41.15-.11.31-.22.47-.33,1.85-1.23,4-1.88,6.21-1.88,3.77,0,7.27,1.87,9.36,5.01,3.41,5.13,2.04,12.08-3.06,15.52-14.97,10.83-32.59,16.56-50.96,16.56-24.71,0-48.98-10.23-66.59-28.07-16.71-16.93-25.75-39.25-25.44-62.77.03-24.24,9.48-47.03,26.62-64.17,17.14-17.14,39.93-26.59,64.17-26.62h0c24.24.03,47.03,9.48,64.17,26.62s26.59,39.93,26.62,64.17v14.5Z"/>
    <path class="cls-1" d="M280.58,164.29c-13.75,0-24.93,11.18-24.93,24.93s11.18,24.93,24.93,24.93,24.93-11.18,24.93-24.93-11.18-24.93-24.93-24.93Z"/>
  </g>
</svg>