<?xml version="1.0" encoding="UTF-8"?>
<svg id="Layer_1" data-name="Layer 1" xmlns="http://www.w3.org/2000/svg" xmlns:xlink="http://www.w3.org/1999/xlink" viewBox="0 0 1754.4 388.92">
  <defs>
    <style>
      .cls-1 {
        filter: url(#drop-shadow-1);
      }

      .cls-2 {
        fill: url(#linear-gradient-4);
      }

      .cls-3 {
        fill: url(#linear-gradient-3);
      }

      .cls-4 {
        fill: #d3d3d3;
        stroke-width: 13.28px;
      }

      .cls-4, .cls-5, .cls-6 {
        stroke: #231f20;
        stroke-miterlimit: 10;
      }

      .cls-7 {
        fill: #fff;
      }

      .cls-5 {
        fill: url(#linear-gradient);
        stroke-width: 12.79px;
      }

      .cls-6 {
        fill: url(#linear-gradient-2);
        stroke-width: 14px;
      }
    </style>
    <linearGradient id="linear-gradient" x1="877.26" y1="253.2" x2="877.26" y2="419.3" gradientUnits="userSpaceOnUse">
      <stop offset="0" stop-color="#138b05"/>
      <stop offset="1" stop-color="#0a4104"/>
    </linearGradient>
    <filter id="drop-shadow-1" x=".04" y="18.47" width="1755" height="283" filterUnits="userSpaceOnUse">
      <feOffset dx="0" dy="7"/>
      <feGaussianBlur result="blur" stdDeviation="10"/>
      <feFlood flood-color="#000" flood-opacity=".33"/>
      <feComposite in2="blur" operator="in"/>
      <feComposite in="SourceGraphic"/>
    </filter>
    <linearGradient id="linear-gradient-2" x1="877.26" y1="68.27" x2="877.26" y2="249.03" gradientUnits="userSpaceOnUse">
      <stop offset="0" stop-color="#fff"/>
      <stop offset=".23" stop-color="#fafafa"/>
      <stop offset=".49" stop-color="#ededed"/>
      <stop offset=".75" stop-color="#d8d8d8"/>
      <stop offset="1" stop-color="#bcbcbc"/>
    </linearGradient>
    <linearGradient id="linear-gradient-3" x1="885.38" y1="72.76" x2="885.38" y2="236.67" gradientUnits="userSpaceOnUse">
      <stop offset=".16" stop-color="#777"/>
      <stop offset=".26" stop-color="#a0a0a0"/>
      <stop offset=".36" stop-color="#c2c2c2"/>
      <stop offset=".47" stop-color="#ddd"/>
      <stop offset=".57" stop-color="#efefef"/>
      <stop offset=".68" stop-color="#fbfbfb"/>
      <stop offset=".8" stop-color="#fff"/>
    </linearGradient>
    <linearGradient id="linear-gradient-4" x1="885.38" y1="56.33" x2="885.38" y2="232.46" gradientUnits="userSpaceOnUse">
      <stop offset=".19" stop-color="#17a507"/>
      <stop offset=".32" stop-color="#117f05"/>
      <stop offset=".65" stop-color="#052401"/>
      <stop offset=".79" stop-color="#000"/>
    </linearGradient>
  </defs>
  <rect class="cls-4" x="248.1" y="6.64" width="1258.32" height="290.07"/>
  <rect class="cls-5" x="333.01" y="220.92" width="1088.5" height="158.17"/>
  <g class="cls-1">
    <rect id="pill" class="cls-6" x="37.19" y="49.17" width="1680.13" height="207.42" rx="103.71" ry="103.71"/>
  </g>
  <g>
    <path class="cls-7" d="M457.6,327.78c-6.96.76-7.33,1.51-8.32,5.48-.37,1.51-1.74,7.75-1.61,10.21,0,1.7.75,2.08,5.47,2.46-1.37,2.83-1.61,3.31-2.73,3.31l-4.22.28c-9.07.38-17.89,2.08-27.2,2.08s-20.99-2.08-29.19-7.56c-6.71-4.44-11.18-12.19-11.18-20.98,0-13.23,7.83-23.91,23.35-30.81,8.32-3.69,19.01-5.39,27.08-5.39s16.4,1.98,19.75,3.21c1.86.66,2.86.66,4.47.47,1.49-.09,2.61-.09,2.61,1.04-.37,4.63.5,10.77.75,13.7.12,2.55-2.11,3.5-3.85,3.5-.75,0-1.12-.19-1.12-.95-.25-3.97-1.49-7.56-4.97-10.87-3.48-3.31-10.43-6.24-20.99-6.24-8.32,0-16.15,2.46-21.49,6.24-8.45,6.05-12.42,15.4-12.42,24.76s4.72,15.69,9.56,19.28c5.84,4.25,14.16,6.52,23.11,6.52,3.73,0,7.33-.76,9.44-1.8,1.49-.66,2.24-1.61,2.48-2.74l1.99-10.21c.87-4.06-.87-4.72-12.67-5.95,1.74-2.74,2.24-3.02,3.11-3.02,3.35,0,9.32.76,13.79.76s10.68-.38,14.78-.19c1.12.09,1.37.38,1.24,1.13l-.99,2.27Z"/>
    <path class="cls-7" d="M509.89,325.04c0,6.14-1.86,11.43-4.97,14.65-3.85,4.35-11.55,8.13-19.01,10.68-1.74.57-3.6.94-4.97.94-10.19,0-15.9-7.75-15.9-15.5,0-7.18,3.48-14.65,9.81-18.99,3.11-1.98,15.65-7.37,19.75-7.37,7.33,0,15.28,6.14,15.28,15.59ZM482.19,317.2c-3.35,2.17-6.96,8.88-6.96,16.73,0,5.29,2.48,11.72,10.43,11.72,2.73,0,5.22-.66,7.45-2.08,3.73-2.36,6.83-9.36,6.83-16.54,0-5.01-1.49-8.03-3.23-9.54-1.86-1.61-4.47-2.55-7.95-2.55-2.61,0-4.72,1.13-6.58,2.27Z"/>
    <path class="cls-7" d="M539.95,342.24c0,.76-.12,1.32-.5,1.51-1.12.76-13.04,7.75-14.41,7.75-4.72,0-6.09-4.16-6.09-6.43,0-4.54,3.6-18.8,6.83-33.64,3.35-14.74,3.98-18.33,4.1-19.28.25-1.04-.25-1.23-1.37-.94-1.86.47-6.71,1.7-8.07,2.08-.62.09-.25-2.36.12-2.55,2.36-1.32,16.89-7.94,18.26-7.94,1.49,0,2.48,2.65,1.49,6.62-4.22,15.97-9.44,36.29-11.3,47.34-.87,4.82,0,6.33,1.49,6.33,1.12,0,5.09-1.04,8.82-2.27l.62,1.42Z"/>
    <path class="cls-7" d="M545.17,317.39c-.62,0-1.12-.66-.75-1.04,2.98-2.65,5.22-3.78,9.69-4.16,1.12-8.13,3.35-15.97,7.33-19.56,3.48-3.21,9.81-6.43,14.29-8.03,3.11-1.23,6.09-1.8,7.95-1.8,2.86,0,7.58,1.32,7.58,3.59,0,1.99-2.86,4.54-4.84,4.54-1.24,0-2.73-.38-4.47-1.04-2.61-.95-4.72-1.42-6.21-1.42-3.35,0-5.96,2.36-7.45,5.48-2.24,4.91-3.85,12.19-4.6,17.86,5.71,0,9.81-.47,11.55-1.7.5-.38,1.86.09,1.74.76-1.12,2.83-3.35,4.82-6.46,5.58-1.99.38-5.84.57-8.07.66-3.23,20.22-5.47,33.55-6.58,37.61-1.86,7.09-5.22,10.77-9.57,13.7-4.47,3.02-13.42,7.37-19.13,7.37-4.1,0-9.07-1.89-8.94-3.97,0-1.04,2.36-3.5,4.1-4.63.5-.47.99-.38,1.49-.19,2.11,1.04,6.71,2.74,10.68,2.74,5.59,0,8.2-3.4,10.68-10.39,1.99-5.86,6.46-28.73,8.07-41.96h-8.07Z"/>
    <path class="cls-7" d="M654.97,297.92c-2.36-2.55-5.96-4.35-11.18-4.35-5.71,0-9.81,3.78-9.81,8.13,0,5.01,2.36,7.09,2.86,7.46.75.57,1.37.57,1.99.57,3.23-.19,12.92-1.61,14.66-1.8.87-.09,1.49.57,1.37,1.7-.12,2.93-1.61,5.58-2.98,5.58-5.47-.19-12.79-.57-14.91-.76-1.24-.09-2.24.19-3.6.76-4.84,1.8-12.67,5.86-12.67,13.42,0,5.29,2.86,9.26,7.33,12.28,4.1,2.83,11.06,4.54,17.39,4.54,7.08,0,15.4-1.23,21.61-4.91,5.34-3.02,7.83-7.46,8.07-10.77.25-2.27-.62-3.5-1.49-3.5-3.23,0-10.31.66-12.67,1.13-2.11.28-3.48.85-6.96,6.14-.62.85-1.12,1.32-1.99,1.23-.99,0-2.36-1.04-2.24-2.55.25-4.35,7.58-9.64,19.38-11.34,3.73-.47,18.01-2.55,20.75-2.93,5.47-.76,7.58-2.17,6.71-5.2-.37-.95.25-1.23,1.37-1.23,2.86,0,6.71,2.83,6.58,5.95-.12,2.74-3.98,5.2-7.95,6.05-4.1.85-14.16,1.8-16.65,2.17.25.66,1.12,4.63.99,5.76-.62,5.67-6.09,10.77-12.92,14.27-7.83,4.06-18.01,5.58-25.84,5.58-8.32,0-17.64-1.13-24.97-5.95-6.09-3.87-8.94-9.07-8.94-14.65,0-5.95,4.47-9.45,8.07-11.62,2.61-1.42,8.32-4.35,13.91-6.33.75-.28.75-.76,0-1.04-4.1-1.89-8.07-4.73-8.07-9.26,0-2.36,1.49-4.73,4.72-6.8,6.46-3.88,15.78-6.14,22.98-6.14,6.46,0,15.03,1.89,14.66,5.1-.25,2.83-5.47,5.01-7.21,5.01-.62,0-1.37-.47-2.36-1.7Z"/>
    <path class="cls-7" d="M757.95,293.57c7.08-3.59,17.39-6.71,27.45-6.71,7.95,0,14.53,1.23,18.51,2.65,1.74.57,3.6,1.23,6.58,1.23.99,0,1.37,0,1.49,1.32.62,2.65.99,9.45.87,12.38.12,1.42-1.86,2.74-4.6,2.83-2.24-12.19-13.17-16.44-25.22-16.44-7.7,0-14.91,2.36-19.75,6.05-8.7,6.33-12.42,15.88-12.42,24.76,0,13.61,11.3,25.99,29.07,25.99,13.79,0,19.25-7.09,24.22-14.08.25-.19,4.22,1.13,3.98,2.74-.37,2.17-1.61,5.48-3.48,10.39-.37,1.04-1.24,1.98-3.48,2.27-1.99.09-6.46.85-11.55,1.8-3.11.47-7.83.95-12.17.95-9.32,0-20.99-2.46-27.95-7.18-7.08-4.72-11.68-12.38-11.68-21.64,0-12.76,7.7-22.96,20.12-29.29Z"/>
    <path class="cls-7" d="M862.04,325.04c0,6.14-1.86,11.43-4.97,14.65-3.85,4.35-11.55,8.13-19.01,10.68-1.74.57-3.6.94-4.97.94-10.19,0-15.9-7.75-15.9-15.5,0-7.18,3.48-14.65,9.81-18.99,3.11-1.98,15.65-7.37,19.75-7.37,7.33,0,15.28,6.14,15.28,15.59ZM834.34,317.2c-3.35,2.17-6.96,8.88-6.96,16.73,0,5.29,2.48,11.72,10.43,11.72,2.73,0,5.22-.66,7.45-2.08,3.73-2.36,6.83-9.36,6.83-16.54,0-5.01-1.49-8.03-3.23-9.54-1.86-1.61-4.47-2.55-7.95-2.55-2.61,0-4.72,1.13-6.58,2.27Z"/>
    <path class="cls-7" d="M869.99,320.22c1.86-1.61,17.27-10.87,20.25-10.87.75,0,1.99,1.42,1.61,2.08-5.84,10.11-9.07,23.34-9.44,26.46-.25,2.55,1.49,3.97,4.1,3.97s6.58-2.46,10.43-5.86c3.97-3.4,11.43-12.38,15.28-24.1,1.99-.94,6.33-2.27,8.32-2.65.75,0,1.37,1.42,1.12,2.08-3.11,6.99-7.7,20.03-8.07,28.54,0,1.42.87,1.51,9.19-2.93.62-.09,1.74.95,1.74,1.98-1.49,1.32-16.65,12.85-18.38,12.85-.87,0-3.23-.85-3.35-2.83,0-2.46,2.86-10.11,4.35-16.44-1.24-.38-3.11,1.51-8.45,6.62-2.98,2.83-9.56,8.13-14.66,11.06-1.24.66-2.11,1.13-3.11,1.13-2.98,0-7.45-3.68-7.33-8.88.12-3.21,1.37-9.73,5.09-21.92.12-.57-.37-.76-1.12-.57-1.74.47-5.59,2.17-7.45,2.83l-.12-2.55Z"/>
    <path class="cls-7" d="M986.13,340.44c.25,1.23-17.02,11.15-20.12,11.15-.62,0-3.73-1.61-3.23-2.46,4.35-8.03,8.32-20.51,9.07-27.4.5-3.59-.5-5.1-2.98-5.1-4.72.09-14.29,8.6-19.38,16.82-4.22,6.52-7.83,14.84-8.82,16.44-.25.38-4.72,1.42-6.21,1.42-.99,0-1.99-1.42-1.99-2.08.12-1.32,3.11-8.79,5.22-14.84,2.24-6.71,3.48-13.32,3.48-14.93,0-1.13-.37-1.7-.99-1.7-1.62,0-5.71,2.65-8.57,4.25-1.24-1.13-1.62-1.7-1.37-2.17,2.24-2.36,12.92-10.02,16.27-10.02,1.12,0,2.24.47,2.86,1.89.87,2.08.87,4.82-2.48,17.29,6.09-6.71,12.79-12.47,19.13-15.97,3.6-1.98,8.45-3.78,10.68-3.78,3.97,0,5.59,5.1,5.09,8.13-.62,4.06-5.22,20.03-5.84,24-.12.95,1.12.95,9.69-2.93l.5,1.98Z"/>
    <path class="cls-7" d="M1011.72,316.25c-.75,0-1.24.47-1.37,1.23-2.24,7.37-4.1,16.44-4.1,22.21,0,3.88,1.37,4.35,3.11,4.35,2.11,0,6.71-1.61,10.31-3.69,1.37-.09,1.86,2.17.99,2.93-.99.76-12.79,8.22-19.38,8.22-1.37,0-2.98-.85-3.85-1.7-1.49-1.61-1.62-4.44-.99-8.79.75-5.01,3.35-16.82,5.22-23.91-1.49-.47-1.49-.57-6.46-.66-.75,0-1.37-.76-.75-1.23,2.48-1.8,5.09-2.83,8.7-3.59,2.24-5.2,6.34-10.02,10.06-12.38,1.24-.85,2.61-.95,3.6-.95.75,0,.75.28.5.85-2.61,4.63-4.35,8.88-5.09,12,3.98,0,5.84-.28,9.07-.47.87-.09,1.99.28,2.11.76l.37,3.78c0,.38-1.37,1.04-2.36,1.04h-9.69Z"/>
    <path class="cls-7" d="M1046.62,313.42c.12,1.32-.62,7.37-.87,10.02,0,.47.62.85,1.12.19,1.74-2.27,9.56-11.53,11.55-12.95,1.12-.85,3.85-1.42,5.59-1.42,2.61,0,6.71,1.32,6.71,3.87,0,1.61-.25,5.01-1.74,5.95-.87.57-1.49.47-2.11.19-.87-.57-2.73-1.42-5.96-1.42-5.96,0-12.17,8.22-14.16,13.14-2.36,5.86-4.97,17.95-5.59,18.62-.99.76-5.47,1.79-8.07,1.79-.5,0-1.86-1.13-1.62-1.79,2.24-7.37,6.34-19.56,6.83-29.58,0-1.61-.5-2.17-1.99-1.61-3.11,1.04-6.09,2.65-7.08,3.02-.62.28-2.24-.95-2.48-1.32,2.24-1.98,13.91-10.58,16.15-10.58,2.36,0,3.73,2.27,3.73,3.87Z"/>
    <path class="cls-7" d="M1120.9,313.04c.12,2.08-3.11,8.88-7.08,16.07-4.84,8.69-10.56,17.67-12.05,19.66-2.73,4.16-4.6,8.13-5.84,10.77-3.11,6.9-9.44,11.25-13.91,13.42-3.73,1.51-8.57,2.83-11.92,2.83-3.6,0-6.21-2.55-6.34-5.01,0-.47.5-1.13,1.24-1.23,13.79-.66,23.98-5.48,28.82-17.29-1.86-1.42-1.86-2.55-1.86-3.59,0-2.65.25-18.99-5.09-28.35-1.12-2.27-2.61-3.4-4.47-3.4-1.62,0-3.6,1.42-5.96,5.2-.87.76-2.86-.57-2.98-1.98,1.86-4.44,8.45-10.58,12.92-10.58,2.61,0,5.34,1.98,6.96,3.78,4.22,5.1,5.84,17.58,6.46,27.31.12,1.42,1.37,1.32,1.99,0,6.21-10.3,9.94-20.7,9.19-26.93,0-.95,0-1.23.99-2.08,1.62-1.32,3.23-2.36,4.72-2.36,1.86,0,4.1,1.61,4.22,3.78Z"/>
    <path class="cls-7" d="M1176.43,293.57c7.08-3.59,17.39-6.71,27.45-6.71,7.95,0,14.53,1.23,18.51,2.65,1.74.57,3.6,1.23,6.58,1.23.99,0,1.37,0,1.49,1.32.62,2.65.99,9.45.87,12.38.12,1.42-1.86,2.74-4.6,2.83-2.24-12.19-13.17-16.44-25.22-16.44-7.7,0-14.91,2.36-19.75,6.05-8.7,6.33-12.42,15.88-12.42,24.76,0,13.61,11.3,25.99,29.07,25.99,13.79,0,19.25-7.09,24.22-14.08.25-.19,4.22,1.13,3.98,2.74-.37,2.17-1.62,5.48-3.48,10.39-.37,1.04-1.24,1.98-3.48,2.27-1.99.09-6.46.85-11.55,1.8-3.11.47-7.83.95-12.17.95-9.32,0-20.99-2.46-27.95-7.18-7.08-4.72-11.68-12.38-11.68-21.64,0-12.76,7.7-22.96,20.12-29.29Z"/>
    <path class="cls-7" d="M1258.9,342.24c0,.76-.12,1.32-.5,1.51-1.12.76-13.04,7.75-14.41,7.75-4.72,0-6.09-4.16-6.09-6.43,0-4.54,3.6-18.8,6.83-33.64,3.35-14.74,3.97-18.33,4.1-19.28.25-1.04-.25-1.23-1.37-.94-1.86.47-6.71,1.7-8.07,2.08-.62.09-.25-2.36.12-2.55,2.36-1.32,16.89-7.94,18.26-7.94,1.49,0,2.48,2.65,1.49,6.62-4.22,15.97-9.44,36.29-11.3,47.34-.87,4.82,0,6.33,1.49,6.33,1.12,0,5.09-1.04,8.82-2.27l.62,1.42Z"/>
    <path class="cls-7" d="M1264.99,320.22c1.86-1.61,17.27-10.87,20.25-10.87.75,0,1.99,1.42,1.61,2.08-5.84,10.11-9.07,23.34-9.44,26.46-.25,2.55,1.49,3.97,4.1,3.97s6.58-2.46,10.43-5.86c3.97-3.4,11.43-12.38,15.28-24.1,1.99-.94,6.33-2.27,8.32-2.65.75,0,1.37,1.42,1.12,2.08-3.11,6.99-7.7,20.03-8.07,28.54,0,1.42.87,1.51,9.19-2.93.62-.09,1.74.95,1.74,1.98-1.49,1.32-16.65,12.85-18.38,12.85-.87,0-3.23-.85-3.35-2.83,0-2.46,2.86-10.11,4.35-16.44-1.24-.38-3.11,1.51-8.45,6.62-2.98,2.83-9.56,8.13-14.66,11.06-1.24.66-2.11,1.13-3.11,1.13-2.98,0-7.45-3.68-7.33-8.88.12-3.21,1.37-9.73,5.09-21.92.12-.57-.37-.76-1.12-.57-1.74.47-5.59,2.17-7.45,2.83l-.12-2.55Z"/>
    <path class="cls-7" d="M1326.85,342.71c0-4.44,2.11-15.21,7.83-42.24,2.24-9.54,1.86-9.92.99-9.83-1.99.28-4.97.95-7.33,1.42-.62-.47-1.74-1.61-1.37-1.98,3.98-1.89,17.27-7.09,19.38-7.28.5,0,1.74,1.32,1.62,2.08-.5,1.8-7.7,29.2-9.94,40.63,4.22-3.78,10.06-8.5,15.03-11.62,3.85-2.36,8.94-4.54,10.93-4.54,4.72,0,8.57,6.33,8.57,12.38,0,5.1-1.62,10.21-4.1,14.17-2.24,3.78-10.68,9.17-17.64,12.85-2.86,1.51-9.44,2.65-12.79,2.65-5.34,0-11.18-4.63-11.18-8.69ZM1343.99,324.85c-4.97,4.63-7.95,9.36-7.95,12.95,0,2.36.5,4.35,1.49,5.1,2.36,1.8,5.96,2.17,8.57,2.17,2.36,0,5.71-.76,8.07-2.08,3.85-2.17,8.82-9.73,8.82-17.01,0-3.31-.62-9.07-6.33-9.07-2.98,0-10.06,5.76-12.67,7.94Z"/>
  </g>
  <path id="outline_gradient" data-name="outline gradient" class="cls-3" d="M281.48,106.37c3.08,0,3.41,2.76-.16,2.76-4.22,0-12.33.32-12.33,7.95,0,1.3.65,3.89,1.3,5.68l17.69,52.91c3.73,10.87,8.44,18.66,19.8,18.66,4.38,0,5.19,2.6.16,2.6-9.41,0-16.55-.32-24.99-.32-7.95,0-16.07.32-27.1.32-4.54,0-4.38-2.6.16-2.6,7.63,0,12.5-2.27,12.5-8.44,0-1.62-.32-3.41-.97-5.52l-17.85-53.88-38.46,65.73c-2.92,5.19-4.06,6.82-5.03,6.82s-1.95-1.62-3.9-5.03l-38.46-67.03-16.55,50.47c-.97,2.92-1.46,5.19-1.46,7.3,0,6.98,5.19,9.58,12.5,9.58,4.38,0,4.54,2.6.16,2.6-8.28,0-12.82-.32-20.77-.32-7.3,0-13.96.32-20.94.32-3.9,0-3.57-2.6.32-2.6,9.25,0,15.74-6.33,19.96-19.8l16.72-51.45c.81-2.43,1.14-4.38,1.14-6.17,0-5.68-4.22-7.79-11.69-7.79-3.57,0-4.54-2.76-.32-2.76h23.21c5.52,0,9.41.97,12.33,5.84l34.08,59.72,34.24-59.72c3.08-5.19,7.63-5.84,13.47-5.84h21.26M281.48,95.37h-21.26c-4.87,0-16.26,0-22.93,11.23l-.04.07-.04.07-24.68,43.04-24.55-43.02-.06-.1-.06-.1c-6.71-11.18-17.65-11.18-21.77-11.18h-23.21c-9.05,0-13.78,6.14-13.78,12.21,0,7.14,6.03,12.52,14.05,12.55l-16.57,51-.02.06-.02.06c-3.79,12.09-7.77,12.09-9.47,12.09-2.68,0-5.12.54-7.24,1.61-4.22,2.12-6.85,6.25-6.85,10.77s2.61,8.62,6.8,10.7c2.03,1.01,4.38,1.52,6.96,1.52,3.58,0,7.09-.08,10.49-.16,3.38-.08,6.88-.16,10.45-.16,3.8,0,6.75.08,9.89.16,3.23.08,6.56.17,10.89.17,2.56,0,4.86-.45,6.86-1.33,4.53-2.01,7.34-6.19,7.34-10.93,0-6.13-4.94-12.33-14.37-12.33-.5,0-.92-.02-1.28-.05.15-.65.38-1.44.68-2.35v-.03s.02-.03.02-.03l8.86-27,26.17,45.6c2.68,4.69,6.03,10.56,13.44,10.56,4.18,0,7.77-2.01,10.67-5.97,1-1.37,2.1-3.16,3.91-6.37l26.13-44.65,10.03,30.27c-.28.01-.58.02-.91.02-2.59,0-4.93.44-6.95,1.31-4.65,2-7.54,6.22-7.54,11.02s2.88,9.01,7.51,10.99c1.98.85,4.28,1.28,6.82,1.28,6.07,0,11.34-.1,15.98-.18,3.89-.07,7.57-.14,11.12-.14,3.99,0,7.68.07,11.58.15,4.16.08,8.47.17,13.41.17,2.54,0,4.71-.37,6.65-1.13,4.74-1.87,7.81-6.21,7.81-11.07,0-6.16-5.02-12.4-14.62-12.4-2.97,0-5.53,0-9.38-11.2l-17.39-52c.1,0,.21,0,.32,0,2.84,0,5.4-.67,7.6-1.98,3.74-2.24,5.98-6.12,5.98-10.37,0-6.96-5.89-12.41-13.41-12.41h0ZM384.87,104.75c42.03,0,69.62,18.18,69.62,45.93,0,24.83-21.91,47.88-69.62,47.88-40.74,0-69.79-17.2-69.79-45.77,0-24.99,22.07-48.04,69.79-48.04M385.68,192.71c24.51,0,44.31-12.33,44.31-39.11,0-23.05-14.77-43.01-45.77-43.01-24.51,0-44.47,12.5-44.47,39.28,0,23.04,14.77,42.84,45.93,42.84M384.87,93.75c-24.61,0-45.19,5.86-59.52,16.95-13.71,10.61-21.27,25.56-21.27,42.09,0,17.5,8.77,32.72,24.71,42.87,14.27,9.09,33.66,13.89,56.08,13.89,24.59,0,45.15-5.85,59.44-16.93,13.66-10.58,21.18-25.48,21.18-41.94s-8.52-32.35-23.99-42.55c-14.26-9.4-33.84-14.37-56.63-14.37h0ZM385.68,181.71c-11.52,0-20.77-3.26-26.75-9.43-3.73-3.85-8.18-10.86-8.18-22.41,0-9.24,3.01-16.34,8.93-21.1,5.75-4.62,14.47-7.17,24.53-7.17,21.77,0,34.77,11.97,34.77,32.01,0,9.24-2.98,16.31-8.85,21.02-5.78,4.64-14.24,7.09-24.46,7.09h0ZM608.99,106.37c2.11,0,2.76.49,2.92,1.3,0,.65-.81,1.46-3.25,1.46-11.36,0-15.58,5.52-15.58,16.23v63.62c0,7.63-.16,9.58-1.3,9.58-.97,0-2.6-.16-7.63-4.06l-86.34-65.24v48.69c0,10.39,2.76,16.39,15.42,16.39,3.41,0,4.71,2.6.49,2.6-7.63,0-13.47-.32-20.94-.32-6.49,0-15.09.32-21.58.32-3.57,0-3.73-2.6.49-2.6,11.2,0,15.74-5.52,15.74-16.39v-56.32c-.32-7.47-5.84-12.5-15.58-12.5-3.9,0-4.71-2.76-.65-2.76h23.37c8.6,0,10.06.65,18.83,7.47l69.3,52.91v-41.38c0-10.22-3.25-16.23-15.74-16.23-1.62,0-3.25-.33-3.25-1.46,0-.81,1.14-1.3,2.92-1.3,7.79,0,13.31.49,20.94.49,6.33,0,15.26-.49,21.42-.49M608.99,95.37c-3.24,0-7.15.13-10.93.25-3.68.12-7.48.24-10.49.24-3.59,0-6.68-.11-9.95-.23-3.38-.12-6.87-.25-10.99-.25-9.14,0-13.92,6.19-13.92,12.3s4.46,12.46,14.25,12.46c2.59,0,3.79.36,4.21.52.17.44.53,1.73.53,4.71v19.15l-51.58-39.38c-10-7.78-13.83-9.75-25.54-9.75h-23.37c-8.98,0-13.68,6.13-13.68,12.19,0,7.16,6.16,12.57,14.33,12.57,2.36,0,3.79.49,4.29.91.16.13.25.43.29.89v56.01c0,3.43-.62,4.6-.74,4.78-.17.1-1.19.61-4.01.61s-5.09.51-7.17,1.51c-4.32,2.08-7,6.23-7,10.83,0,5.94,4.79,12.26,13.68,12.26,3.36,0,7.26-.08,11.03-.16,3.65-.08,7.43-.16,10.56-.16,3.58,0,6.74.08,10.09.16,3.38.08,6.88.17,10.85.17,2.51,0,4.68-.44,6.63-1.34,4.33-2,7.02-6.11,7.02-10.74,0-7.14-6.08-12.52-14.14-12.52-2.26,0-3.44-.26-3.95-.43-.18-.57-.47-1.96-.47-4.97v-26.59l68.66,51.88c5.88,4.55,9.9,6.32,14.31,6.32,3.91,0,10.83-2.43,11.99-11.54.26-2.07.31-4.67.31-9.03v-63.62c0-3.16.5-4.38.65-4.68.28-.13,1.36-.55,3.93-.55,9.35,0,14.25-6.27,14.25-12.46v-1.09l-.21-1.07c-.34-1.69-2.59-10.14-13.71-10.14h0ZM731.69,104.75c.81,0,1.46.65,1.62,2.27l2.43,21.42c.16.81,0,2.27-.97,2.27-.65,0-1.3-.49-1.79-1.79-2.76-9.9-6.98-14.28-15.9-14.28h-27.75v65.73c0,4.54.49,6.82,1.46,8.6,1.95,3.73,8.28,5.36,11.69,5.36,2.11,0,3.57.32,3.57,1.3,0,.81-1.3,1.3-3.25,1.3-6.49,0-13.63-.32-23.53-.32s-16.72.32-23.37.32c-1.95,0-3.25-.49-3.25-1.3,0-.97,1.46-1.3,3.57-1.3,3.57-.16,9.58-1.62,11.69-5.36.81-1.95,1.3-4.22,1.3-8.6v-65.73h-27.75c-8.93,0-13.15,4.38-16.07,14.28-.32,1.14-.97,1.79-1.62,1.79s-1.14-.97-.97-2.27l2.43-21.42c.16-1.62.65-2.27,1.62-2.27s2.11,1.62,6,1.62h92.83c3.73,0,5.03-1.62,6-1.62M731.69,93.75c-2.95,0-5.11,1.09-6.15,1.62,0,0,0,0-.01,0h-92.56c-1.08-.57-3.2-1.62-6.12-1.62-5.63,0-11.68,3.74-12.56,12.09l-2.42,21.33c-.47,3.95.65,7.79,3.09,10.55,2.24,2.54,5.45,4,8.81,4,5.61,0,10.49-3.89,12.18-9.7,1.24-4.2,2.28-5.49,2.67-5.85.51-.47,2.16-.52,2.84-.52h16.75v54.73c0,1.1-.04,1.92-.09,2.54-.65.2-1.47.37-2.23.42-11.22.15-14.23,7.77-14.23,12.3,0,4.92,3.09,9.31,7.87,11.19,1.87.73,4.02,1.11,6.38,1.11,3.12,0,6.26-.07,9.6-.14,3.96-.09,8.45-.18,13.77-.18s9.95.1,14,.19c3.35.07,6.51.14,9.53.14,2.36,0,4.51-.37,6.38-1.11,4.78-1.88,7.87-6.27,7.87-11.19,0-4.57-3.07-12.3-14.57-12.3-.51,0-1.36-.18-2.06-.41-.05-.56-.09-1.38-.09-2.55v-54.73h16.75c.53,0,2.29.04,2.79.49.29.27,1.34,1.49,2.52,5.74l.13.46.17.45c2.47,6.58,7.86,8.93,12.09,8.93,3.56,0,6.9-1.58,9.16-4.34,2.3-2.8,3.29-6.68,2.71-10.47l-2.4-21.08c-.87-8.3-7.11-12.09-12.56-12.09h0ZM854.06,104.75c1.46,0,1.79.49,1.46,3.08l-2.43,20.45c-.16,1.24-.79,1.89-1.41,1.89s-1.19-.61-1.35-1.89c-1.95-14.61-8.93-14.77-24.02-14.77h-27.75c-9.09,0-11.69,1.79-11.69,11.04v19.64c0,1.3.32,1.62,1.79,1.62h29.05c9.41,0,14.28-4.87,14.93-10.39.16-1.95.81-3.08,1.62-3.08.97,0,1.3,1.3,1.3,3.08,0,3.73-.32,9.9-.32,14.12s.32,10.06.32,13.79c0,2.11-.32,3.25-1.3,3.25-.81,0-1.46-.97-1.62-3.25-.65-5.19-5.36-10.22-14.93-10.22h-29.05c-1.46,0-1.79.49-1.79,1.79v18.5c0,13.47,2.6,16.23,18.99,16.23h15.42c20.12,0,29.54-5.03,36.03-18.99.41-.88,1.04-1.28,1.6-1.28.77,0,1.38.77,1,2.09l-4.38,14.44c-2.92,10.22-4.38,11.04-14.61,11.04h-39.44c-9.9,0-16.55-.32-24.67-.32-9.9,0-16.88.32-23.53.32-2.43,0-3.41-.49-3.41-1.3,0-.97.97-1.3,3.41-1.3,3.57,0,9.9-1.46,12.01-5.19.81-1.62,1.3-3.9,1.3-7.63v-58.59c0-4.54-.32-6.98-1.3-8.76-2.11-3.73-8.44-5.19-12.01-5.19-2.43,0-3.41-.32-3.41-1.3,0-.81.97-1.3,3.41-1.3,6.49,0,13.47.33,23.21.33,6.17,0,14.12-.33,20.94-.33h45.44c8.93,0,9.58-1.62,11.2-1.62M854.06,93.75c-2.43,0-4.23.66-5.2,1.01-.54.2-1.68.61-5.99.61h-45.44c-3.62,0-7.49.09-11.23.17-3.51.08-6.82.15-9.71.15-5.24,0-9.74-.1-13.71-.18-3.32-.07-6.46-.14-9.49-.14-11.37,0-14.41,7.73-14.41,12.3,0,5.09,3.13,9.54,7.97,11.33,2.32.86,4.66.97,6.44.97.65,0,1.52.16,2.25.36.03.61.06,1.45.06,2.6v58.59c0,.58-.02,1.07-.04,1.46-.73.21-1.61.37-2.27.37-1.78,0-4.12.11-6.44.97-4.84,1.79-7.97,6.24-7.97,11.33,0,4.57,3.03,12.3,14.41,12.3,3.12,0,6.3-.07,9.66-.14,4.01-.09,8.55-.18,13.87-.18,3.74,0,7.2.07,10.85.15,4.18.09,8.5.18,13.81.18h39.44c5.07,0,11.38,0,16.57-3.83,4.98-3.67,6.91-9.23,8.59-15.1l4.36-14.36.03-.09.02-.09c1.15-4.03.44-8.15-1.95-11.32-2.3-3.05-5.81-4.8-9.63-4.8-4.96,0-9.4,2.94-11.58,7.67-.52,1.11-1.04,2.15-1.6,3.1.53-1.63.84-3.55.84-5.8,0-2.01-.08-4.42-.16-6.98-.08-2.42-.16-4.92-.16-6.81,0-2,.08-4.6.16-7.12.03-.83.05-1.65.08-2.45,1.58.77,3.34,1.2,5.2,1.2,6.25,0,11.43-4.81,12.31-11.43v-.08s.02-.08.02-.08l2.43-20.41c.25-1.97.87-7.1-2.87-11.33-1.65-1.86-4.63-4.09-9.51-4.09h0ZM797.87,124.51c.21,0,.44,0,.69,0h27.6c-1.03.95-1.93,2.1-2.64,3.42-.95,1.76-1.55,3.79-1.79,6.05-.36.27-1.57.82-4.02.82h-19.84v-10.29h0ZM797.87,164.11h19.84c2.43,0,3.65.54,4.03.82,1.04,9.63,7.84,12.46,12.1,12.64-3.25.72-7.32,1.05-12.56,1.05h-15.42c-4.27,0-6.56-.22-7.77-.43-.11-.89-.21-2.38-.21-4.8v-9.29h0ZM993.15,104.75c13.47,0,24.67,2.11,40.09,6.33.77.26,1.41.36,1.95.36,1.87,0,2.64-1.17,3.89-1.17.81,0,1.46.81,1.46,2.76v24.02c0,1.2-.59,1.77-1.22,1.77-.56,0-1.15-.44-1.37-1.28-5.19-20.29-25.48-26.78-44.79-26.78-24.67,0-48.36,12.01-48.36,40.9s21.75,40.9,48.36,40.9c24.67,0,43.17-13.47,49.34-26.78.42-.91,1.02-1.31,1.54-1.31.69,0,1.24.69,1.05,1.79l-4.71,16.39c-2.27,7.14-3.08,8.76-8.11,11.04-7.95,3.57-25.16,4.87-39.11,4.87-31.81,0-73.36-11.52-73.36-46.9s41.87-46.9,73.36-46.9M993.15,93.75c-11.59,0-33.94,1.48-53.46,11.37-9.24,4.68-16.55,10.67-21.75,17.79-6.07,8.32-9.15,17.99-9.15,28.74s3.06,20.4,9.08,28.71c5.18,7.14,12.47,13.13,21.68,17.81,19.47,9.9,41.93,11.38,53.59,11.38,9.21,0,31.89-.57,43.62-5.83,3.18-1.44,6.78-3.43,9.58-7.39,2.07-2.93,3.18-6.14,4.51-10.35l.05-.15.04-.15,4.71-16.39.17-.61.1-.62c.63-3.78-.37-7.55-2.75-10.35-2.29-2.7-5.62-4.25-9.15-4.25-4.92,0-9.34,2.95-11.53,7.7-3.79,8.19-17.41,20.39-39.35,20.39-11.23,0-37.36-2.91-37.36-29.9,0-9.92,3.42-17.26,10.44-22.42,6.57-4.83,16.13-7.48,26.92-7.48,8.98,0,16.83,1.58,22.68,4.58,6.11,3.12,9.85,7.68,11.45,13.93l.02.08.02.08c1.51,5.53,6.44,9.39,11.99,9.39,6.85,0,12.22-5.61,12.22-12.77v-24.02c0-9.03-6.27-13.76-12.46-13.76-1.79,0-3.31.37-4.47.79-14.47-3.9-26.62-6.3-41.46-6.3h0ZM1126.23,106.37c18.34,0,49.01,1.14,49.01,25.48,0,15.9-12.66,22.4-27.1,24.99,3.57,1.62,6.33,4.87,10.06,9.9,15.39,21.32,23.17,27.75,36.34,27.75.16,0,.33,0,.5,0,3.25,0,3.25,2.27.33,2.6-2.27.33-5.84.65-13.15.65-21.91,0-27.1-.16-51.93-34.73-3.08-3.9-6.49-4.71-9.9-4.71h-18.83c-1.3,0-1.62.33-1.62,1.62v16.07c0,16.72,7.79,17.85,15.74,18.18,2.27,0,4.38.16,4.38,1.3s-1.62,1.46-3.73,1.46c-9.41,0-17.53-.32-26.13-.32s-17.37.32-26.78.32c-2.11,0-3.73-.32-3.73-1.46s2.11-1.3,4.38-1.3c7.79-.33,15.74-1.3,15.74-18.18v-48.36c0-16.72-7.46-18.34-15.42-18.5-2.27-.16-4.22-.16-4.22-1.46,0-.97,1.46-1.3,3.57-1.3,10.06,0,16.39.33,27.26.33,10.06,0,23.05-.33,35.22-.33M1101.56,151.97h26.62c13.47,0,24.83-6.17,24.83-20.12,0-15.58-11.36-19.31-24.83-19.31h-12.5c-15.26,0-15.74.16-15.74,14.93v23.04c0,.97.49,1.46,1.62,1.46M1126.23,95.37c-6.45,0-13.04.09-19.41.18-5.71.08-11.09.15-15.81.15-5.44,0-9.77-.08-13.97-.17-4.06-.08-8.26-.16-13.3-.16-11.5,0-14.57,7.73-14.57,12.3,0,5.49,3.52,10.07,8.97,11.66,1.81.53,3.53.64,4.92.73l.54.04.28.02h.28c2.28.05,3.25.25,3.64.37.27.53,1,2.41,1,7.14v48.36c0,4.41-.67,6.2-.93,6.73-.9.3-3.07.41-4.06.45-1.57,0-3.38.08-5.21.49-6.86,1.54-9.92,7.04-9.92,11.81s3.1,12.46,14.73,12.46c4.93,0,9.71-.09,14.32-.17,4.35-.08,8.45-.15,12.46-.15s8.06.08,12.26.15c4.4.08,8.95.17,13.87.17,11.63,0,14.73-7.83,14.73-12.46s-3.07-10.26-9.93-11.81c-1.83-.41-3.65-.48-5.21-.49-2.46-.11-3.57-.3-4.06-.46-.25-.52-.93-2.31-.93-6.72v-6.69h9.45c.48,0,.73.03.83.05.06.05.17.15.33.34,13.88,19.3,21.76,27.96,30.07,33.03,9.85,6.01,19.01,6.01,30.61,6.01,8.18,0,12.09-.39,14.57-.74,7.05-.88,12.07-6.4,11.7-12.93-.32-5.75-5.04-11.58-13.46-11.58h-.13s-.37,0-.37,0c-7.25,0-12.04-2.09-26.38-21.76,2.09-1.13,4.01-2.39,5.77-3.78,8.05-6.38,12.31-15.4,12.31-26.11,0-15.41-8.93-26.89-25.14-32.3-11.02-3.68-23.81-4.18-34.87-4.18h0ZM1110.97,123.57c1.52-.03,3.25-.03,4.71-.03h12.5c13.83,0,13.83,4.04,13.83,8.31,0,3.83-1.43,5.38-2.83,6.4-2.39,1.73-6.4,2.73-11,2.73h-17.24v-13.51c0-.99,0-2.48.03-3.9h0ZM1253.47,106.37c1.95,0,3.25.49,3.25,1.3,0,.97-1.62,1.3-3.57,1.3-3.57.16-9.9,1.62-12.01,5.36-.81,1.62-1.3,3.73-1.3,7.46v58.59c0,4.54.33,6.82,1.3,8.6,2.11,3.73,8.44,5.19,12.01,5.36,1.95,0,3.57.32,3.57,1.3,0,.81-1.3,1.3-3.25,1.3-6.65,0-13.79-.32-23.69-.32s-17.04.32-23.7.32c-1.95,0-3.25-.49-3.25-1.3,0-.97,1.62-1.3,3.57-1.3,3.57-.16,9.74-1.62,11.85-5.36.97-1.79,1.3-4.06,1.3-8.6v-58.59c0-3.73-.49-5.84-1.3-7.46-2.11-3.73-8.28-5.19-11.85-5.36-1.95,0-3.57-.32-3.57-1.3,0-.81,1.3-1.3,3.25-1.3,6.65,0,13.63.33,23.53.33s17.04-.33,23.86-.33M1253.47,95.37c-3.19,0-6.42.07-9.83.14-4.04.09-8.62.18-14.02.18s-9.86-.1-13.87-.18c-3.37-.07-6.55-.14-9.67-.14-2.36,0-4.51.37-6.38,1.11-4.78,1.88-7.87,6.27-7.87,11.19,0,4.52,3.01,12.15,14.23,12.3.84.06,1.75.25,2.45.47.02.36.03.81.03,1.35v58.59c0,1.1-.02,1.91-.05,2.5-.7.21-1.59.41-2.43.46-11.22.15-14.23,7.77-14.23,12.3,0,4.92,3.09,9.31,7.87,11.19,1.87.74,4.02,1.11,6.38,1.11,3.1,0,6.27-.07,9.63-.14,4.05-.09,8.63-.18,14.06-.18s9.91.1,13.96.18c3.4.07,6.62.14,9.73.14,2.36,0,4.51-.37,6.38-1.11,4.78-1.88,7.87-6.27,7.87-11.19,0-4.52-3.01-12.15-14.23-12.3-.85-.06-1.83-.26-2.59-.49-.03-.58-.05-1.38-.05-2.47v-58.59c0-.53.01-.97.03-1.32.77-.24,1.75-.44,2.61-.5,11.22-.15,14.23-7.77,14.23-12.3,0-4.92-3.09-9.31-7.87-11.19-1.87-.73-4.02-1.11-6.38-1.11h0ZM1326.66,104.75c17.69,0,24.67,2.6,33.59,4.71.54.15.97.22,1.32.22,1.89,0,1.53-1.84,2.89-1.84,1.14,0,1.62.65,2.11,6l1.3,17.04c.08,1.28-.54,1.97-1.28,1.97-.67,0-1.42-.57-1.81-1.81-4.06-15.74-21.75-18.83-37.98-18.83-13.15,0-31.16,2.27-31.16,13.63,0,23.86,80.17,5.52,80.17,43.82,0,20.77-23.53,28.89-51.45,28.89-23.05,0-31.65-4.22-39.76-6.49-.48-.11-.88-.16-1.21-.16-2.11,0-1.45,1.94-2.85,1.94-1.14,0-1.95-.65-2.43-4.54l-2.6-22.72c-.16-.97.33-1.79,1.46-1.79.97,0,1.14.81,1.62,1.95,8.11,21.26,30.02,24.34,45.77,24.34,20.77,0,34.89-5.03,34.89-15.74,0-27.1-80.33-5.19-80.33-43.82,0-22.23,26.94-26.78,47.71-26.78M1326.66,93.75c-14.48,0-26.56,1.99-35.9,5.91-14.71,6.17-22.81,17.49-22.81,31.87,0,6.76,1.8,15.2,8.89,22.27-3.67.05-7.09,1.63-9.4,4.36-2.28,2.69-3.29,6.25-2.81,9.84l2.58,22.56v.06s.01.06.01.06c.44,3.55,1.23,6.07,2.56,8.2,2.38,3.8,6.31,5.98,10.79,5.98,1.06,0,2.91-.16,4.9-1.03.02,0,.04.01.06.02,7.6,2.41,18.01,5.72,38.86,5.72,16.77,0,30.59-2.62,41.06-7.79,13.79-6.81,21.39-18.21,21.39-32.1,0-8.29-2.75-19.16-14.69-27.16,1.24-.63,2.37-1.48,3.33-2.51,2.43-2.6,3.64-6.1,3.39-9.85v-.05s0-.05,0-.05l-1.3-17.04v-.08s-.01-.08-.01-.08c-.3-3.32-.66-5.82-1.52-8.01-1.92-4.93-6.35-7.99-11.55-7.99-1.26,0-3.1.2-5.05,1.09-.18-.05-.36-.09-.54-.14-7.46-1.89-15.91-4.03-32.22-4.03h0ZM1308.27,125.75c2.79-1.14,8.54-2.54,18.55-2.54,24.6,0,26.65,7.96,27.32,10.57l.07.27.08.27c.07.22.14.43.22.64-7.92-2.16-16.42-3.42-24.2-4.57-6.35-.94-12.35-1.83-17.12-3.05-2.28-.58-3.85-1.13-4.92-1.59h0ZM1324.39,180.09c-25.9,0-32.66-9.85-35.49-17.27l-.08-.21-.09-.21c-.04-.09-.07-.18-.11-.26-.08-.2-.17-.4-.25-.6.27.12.53.24.81.36,10.08,4.37,22.15,5.94,33.83,7.46,6.86.89,13.34,1.73,18.43,3.05,4.87,1.26,6.46,2.48,6.85,2.84,0,.01,0,.03,0,.05-.92,1.15-7.02,4.78-23.89,4.78h0ZM1500.16,104.75c.81,0,1.46.65,1.62,2.27l2.43,21.42c.16.81,0,2.27-.97,2.27-.65,0-1.3-.49-1.79-1.79-2.76-9.9-6.98-14.28-15.9-14.28h-27.75v65.73c0,4.54.49,6.82,1.46,8.6,1.95,3.73,8.28,5.36,11.69,5.36,2.11,0,3.57.32,3.57,1.3,0,.81-1.3,1.3-3.25,1.3-6.49,0-13.63-.32-23.53-.32s-16.72.32-23.37.32c-1.95,0-3.25-.49-3.25-1.3,0-.97,1.46-1.3,3.57-1.3,3.57-.16,9.58-1.62,11.69-5.36.81-1.95,1.3-4.22,1.3-8.6v-65.73h-27.75c-8.93,0-13.15,4.38-16.07,14.28-.33,1.14-.97,1.79-1.62,1.79s-1.14-.97-.97-2.27l2.43-21.42c.16-1.62.65-2.27,1.62-2.27s2.11,1.62,6,1.62h92.83c3.73,0,5.03-1.62,6-1.62M1500.16,93.75c-2.95,0-5.11,1.09-6.15,1.62,0,0,0,0-.01,0h-92.56c-1.08-.57-3.2-1.62-6.12-1.62-5.63,0-11.68,3.74-12.56,12.08l-2.42,21.33c-.47,3.95.65,7.79,3.09,10.55,2.25,2.54,5.46,4,8.81,4,5.61,0,10.5-3.9,12.18-9.7,1.24-4.2,2.28-5.48,2.67-5.84.51-.47,2.16-.52,2.84-.52h16.75v54.73c0,1.1-.04,1.92-.09,2.54-.65.2-1.47.37-2.23.42-11.22.15-14.23,7.77-14.23,12.3,0,4.92,3.09,9.31,7.87,11.19,1.87.73,4.02,1.11,6.38,1.11,3.12,0,6.26-.07,9.6-.14,3.96-.09,8.45-.18,13.77-.18s9.95.1,14,.19c3.35.07,6.51.14,9.53.14,2.36,0,4.51-.37,6.38-1.11,4.78-1.88,7.87-6.27,7.87-11.19,0-4.57-3.07-12.3-14.57-12.3-.51,0-1.36-.18-2.06-.41-.05-.56-.09-1.38-.09-2.55v-54.73h16.75c.53,0,2.29.04,2.78.49.29.27,1.34,1.49,2.52,5.74l.13.46.17.45c2.46,6.58,7.86,8.93,12.09,8.93,3.56,0,6.9-1.58,9.16-4.34,2.3-2.81,3.29-6.68,2.71-10.47l-2.4-21.08c-.87-8.3-7.11-12.09-12.56-12.09h0ZM1587.15,104.75c42.03,0,69.62,18.18,69.62,45.93,0,24.83-21.91,47.88-69.62,47.88-40.74,0-69.79-17.2-69.79-45.77,0-24.99,22.07-48.04,69.79-48.04M1587.96,192.71c24.51,0,44.31-12.33,44.31-39.11,0-23.05-14.77-43.01-45.77-43.01-24.51,0-44.47,12.5-44.47,39.28,0,23.04,14.77,42.84,45.93,42.84M1587.15,93.75c-24.61,0-45.19,5.86-59.52,16.95-13.72,10.61-21.27,25.56-21.27,42.09,0,17.5,8.77,32.72,24.71,42.87,14.27,9.09,33.66,13.89,56.08,13.89,24.59,0,45.15-5.85,59.44-16.93,13.66-10.58,21.18-25.48,21.18-41.94s-8.52-32.35-23.99-42.55c-14.26-9.4-33.84-14.37-56.63-14.37h0ZM1587.96,181.71c-11.52,0-20.77-3.26-26.75-9.43-3.73-3.85-8.18-10.86-8.18-22.41,0-9.24,3.01-16.34,8.93-21.1,5.75-4.62,14.47-7.17,24.53-7.17,21.77,0,34.77,11.97,34.77,32.01,0,9.24-2.98,16.31-8.85,21.02-5.78,4.64-14.24,7.09-24.46,7.09h0Z"/>
  <g id="fill">
    <path class="cls-2" d="M206.18,200.54c-1.89,0-3-1.93-5.2-5.79l-36.79-64.1-15.5,47.27c-.96,2.88-1.39,4.98-1.39,6.83,0,2,0,8.08,11,8.08,3.59,0,4.87,1.46,4.87,2.83s-1.24,2.76-4.71,2.76c-4.2,0-7.47-.08-10.64-.17-3.2-.08-6.21-.16-10.13-.16-3.68,0-7.23.08-10.67.16-3.34.08-6.8.16-10.26.16-1.11,0-2.04-.18-2.75-.53-.96-.48-1.52-1.27-1.52-2.19,0-1.43,1.42-2.88,4.59-2.88,8.64,0,14.52-5.96,18.53-18.75l16.72-51.46c.73-2.18,1.06-3.99,1.06-5.7,0-3.11-1.21-6.29-10.19-6.29-2.67,0-4.6-1.28-4.6-3.05,0-.45.21-2.71,4.28-2.71h23.21c5.81,0,10.35,1.12,13.62,6.57l32.8,57.47,32.94-57.45c3.62-6.09,9.05-6.6,14.77-6.6h21.26c2.57,0,3.91,1.46,3.91,2.91s-1.26,2.85-4.08,2.85c-7.59,0-10.83,1.93-10.83,6.45,0,1,.55,3.37,1.21,5.17l17.7,52.94c3.74,10.89,8.12,17.64,18.38,17.64,3.11,0,5.12,1.14,5.12,2.9,0,.46-.17,1.59-1.79,2.23-.8.31-1.87.47-3.17.47-4.85,0-9.11-.09-13.22-.17-3.95-.08-7.68-.16-11.77-.16-3.64,0-7.36.07-11.3.14-4.6.09-9.82.18-15.81.18-3.56,0-4.83-1.43-4.83-2.76s1.31-2.83,4.99-2.83c9.86,0,11-3.96,11-6.94,0-1.45-.29-3.07-.91-5.08l-16.8-50.7-36.79,62.87c-3.34,5.94-4.51,7.56-6.33,7.56ZM1587.15,200.05c-20.61,0-38.24-4.29-50.97-12.41-13.29-8.47-20.31-20.52-20.31-34.86,0-13.52,6.24-25.8,17.58-34.58,12.65-9.79,31.22-14.96,53.7-14.96,20.92,0,38.7,4.43,51.4,12.8,12.9,8.51,19.72,20.48,19.72,34.62s-6.21,25.69-17.5,34.43c-12.62,9.77-31.16,14.94-53.62,14.94ZM1586.5,112.09c-20.77,0-42.97,9.92-42.97,37.78,0,11.49,3.86,21.79,10.86,29.02,7.81,8.06,19.42,12.32,33.57,12.32,26.8,0,42.81-14.06,42.81-37.61,0-11.5-3.85-21.83-10.84-29.11-7.8-8.11-19.36-12.4-33.43-12.4ZM1324.39,200.05c-19.38,0-28.59-2.92-35.99-5.27-1.46-.46-2.83-.9-4.18-1.28-.28-.06-.57-.1-.8-.1-.21,0-.28.03-.28.03-.02.03-.11.19-.17.3-.26.48-.88,1.61-2.4,1.61-2.94,0-3.57-3.02-3.92-5.86l-2.6-22.74c-.15-.89.07-1.79.63-2.45.55-.65,1.37-1,2.32-1,1.84,0,2.43,1.45,2.82,2.41.06.14.12.29.18.44,6.03,15.79,20.54,23.44,44.39,23.44,21.22,0,33.39-5.19,33.39-14.24,0-11.04-15.55-13.06-33.55-15.4-21.93-2.85-46.78-6.08-46.78-28.42,0-24.6,30.83-28.28,49.21-28.28,15.12,0,22.63,1.9,29.89,3.74,1.33.34,2.67.68,4.05,1,.53.15.82.18.98.18q.22,0,.48-.37c.35-.51.99-1.47,2.42-1.47,2.8,0,3.18,2.66,3.6,7.37l1.3,17.06c.07,1.11-.23,2.08-.84,2.74-.51.54-1.19.84-1.93.84-1.13,0-2.58-.75-3.24-2.86-3.09-11.98-15.04-17.77-36.54-17.77-8.92,0-29.66,1.18-29.66,12.13,0,9.23,14.72,11.41,31.75,13.94,22.69,3.37,48.42,7.18,48.42,29.88,0,19.31-19.3,30.39-52.95,30.39ZM993.15,200.05c-18.39,0-36.35-3.77-49.29-10.35-16.73-8.51-25.57-21.67-25.57-38.06s8.88-29.53,25.69-38.06c12.97-6.58,30.89-10.35,49.16-10.35,14.29,0,26.09,2.44,40.48,6.38.63.21,1.13.3,1.55.3.67,0,1.11-.22,1.67-.51.58-.29,1.3-.66,2.23-.66.49,0,2.96.21,2.96,4.26v24.02c0,2.15-1.37,3.27-2.72,3.27s-2.43-.96-2.82-2.39c-5.72-22.34-29.61-25.67-43.35-25.67-34.55,0-46.86,20.35-46.86,39.4,0,29.05,24.21,39.4,46.86,39.4,24.71,0,42.19-13.43,47.98-25.91.63-1.36,1.71-2.18,2.9-2.18.73,0,1.43.32,1.91.89.57.68.8,1.62.62,2.65v.08s-4.74,16.47-4.74,16.47c-2.3,7.22-3.21,9.4-8.94,11.99-10.34,4.64-33.02,5-39.73,5ZM591.79,200.05c-1.4,0-3.34-.34-8.55-4.37l-83.92-63.41v45.67c0,9.66,2.22,14.89,13.92,14.89,2.65,0,4.64,1.3,4.64,3.02,0,.43-.15,1.49-1.5,2.11-.67.31-1.56.46-2.66.46-3.85,0-7.29-.08-10.62-.16-3.26-.08-6.62-.16-10.32-.16-3.23,0-7.06.08-10.76.16-3.72.08-7.56.16-10.82.16-2.89,0-4.18-1.38-4.18-2.76,0-.94.59-1.77,1.62-2.27.78-.38,1.81-.57,3.04-.57,9.98,0,14.24-4.45,14.24-14.89v-56.32c-.3-6.86-5.56-11-14.08-11-3.32,0-4.83-1.59-4.83-3.07,0-.45.2-2.69,4.18-2.69h23.37c9.14,0,11,.98,19.75,7.78l66.88,51.06v-38.35c0-9.09-2.38-14.73-14.24-14.73-4.28,0-4.75-2.07-4.75-2.96,0-.66.32-2.8,4.42-2.8s7.35.12,10.64.25c3.21.12,6.53.24,10.3.24,3.16,0,7.04-.12,10.8-.25,3.71-.12,7.54-.24,10.62-.24,1.06,0,3.89,0,4.39,2.5l.03.15v.15c0,.49-.23,2.96-4.75,2.96-10,0-14.08,4.27-14.08,14.73v63.62c0,7.83,0,11.08-2.8,11.08ZM384.87,200.05c-20.61,0-38.23-4.29-50.97-12.41-13.29-8.47-20.31-20.52-20.31-34.86,0-13.52,6.24-25.8,17.58-34.58,12.65-9.79,31.22-14.96,53.7-14.96,20.92,0,38.7,4.43,51.4,12.8,12.9,8.51,19.72,20.48,19.72,34.62s-6.21,25.69-17.5,34.43c-12.62,9.77-31.16,14.94-53.62,14.94ZM384.22,112.09c-20.77,0-42.97,9.92-42.97,37.78,0,11.49,3.86,21.79,10.86,29.02,7.81,8.06,19.42,12.32,33.57,12.32,26.8,0,42.81-14.06,42.81-37.61,0-11.5-3.85-21.83-10.84-29.11-7.8-8.11-19.36-12.4-33.43-12.4ZM1182.22,199.24c-22.91,0-28.61-1.19-53.15-35.36-2.84-3.59-5.99-4.08-8.68-4.08,0,0-18.91,0-18.95,0,0,.04,0,16.19,0,16.19,0,16.09,7.6,16.4,14.3,16.68h.12c2.02,0,5.7.06,5.7,2.8,0,1.96-1.76,2.96-5.23,2.96-4.83,0-9.33-.08-13.69-.17-4.24-.08-8.25-.16-12.44-.16s-8.24.08-12.63.16c-4.57.08-9.3.17-14.15.17-3.47,0-5.23-1-5.23-2.96,0-2.8,3.83-2.8,5.88-2.8,6.97-.29,14.24-.6,14.24-16.68v-48.36c0-15.46-6.32-16.85-13.95-17l-.68-.04c-2.12-.14-5.01-.33-5.01-2.92,0-2.8,3.82-2.8,5.07-2.8,4.95,0,8.91.08,13.11.16,4.24.08,8.62.17,14.15.17,4.78,0,10.2-.07,15.94-.15,6.34-.09,12.89-.17,19.28-.17,15.12,0,50.51,0,50.51,26.98,0,13.22-8.28,21.86-24.64,25.71,2.3,1.85,4.49,4.51,7.3,8.29,15.57,21.57,22.79,27.15,35.14,27.15h.48c2.84,0,3.92,1.4,3.99,2.6.07,1.29-.98,2.71-3.48,2.99-1.95.28-5.5.66-13.31.66ZM1101.56,150.47h26.62c5.47,0,23.33-1.34,23.33-18.62,0-12.32-7.2-17.81-23.33-17.81h-12.5c-7.18,0-11,.07-12.57,1.53-1.59,1.48-1.67,5.29-1.67,11.91v23s.08,0,.12,0ZM1471.27,198.43c-2.92,0-6.03-.07-9.33-.14-4.1-.09-8.75-.19-14.21-.19s-9.97.1-13.98.19c-3.28.07-6.38.14-9.39.14-4.4,0-4.75-2.14-4.75-2.8,0-2.8,3.82-2.8,5.07-2.8,3.15-.14,8.54-1.47,10.34-4.52.69-1.68,1.15-3.71,1.15-7.94v-64.23h-26.25c-7.92,0-11.75,3.46-14.63,13.21-.5,1.76-1.68,2.86-3.06,2.86-.64,0-1.24-.28-1.69-.79-.65-.74-.94-1.9-.78-3.17l2.43-21.4c.3-2.97,1.86-3.6,3.11-3.6.7,0,1.27.3,1.82.59.83.43,1.96,1.03,4.18,1.03h92.83c2.11,0,3.24-.57,4.15-1.03.6-.3,1.17-.59,1.86-.59.65,0,2.78.26,3.12,3.62l2.43,21.35c.16.9.09,2.24-.65,3.13-.46.56-1.1.86-1.81.86-.81,0-2.29-.36-3.19-2.76l-.04-.12c-2.68-9.61-6.6-13.18-14.46-13.18h-26.25v64.23c0,4.6.51,6.48,1.28,7.88,1.54,2.95,7.11,4.57,10.37,4.57,1.25,0,5.07,0,5.07,2.8,0,.66-.34,2.8-4.75,2.8ZM1253.47,198.43c-3.01,0-6.18-.07-9.53-.14-4.1-.09-8.74-.19-14.17-.19s-10.17.1-14.27.19c-3.31.07-6.43.14-9.43.14-4.4,0-4.75-2.14-4.75-2.8,0-1.86,1.71-2.8,5.07-2.8,3.24-.15,8.79-1.5,10.54-4.59.81-1.49,1.1-3.55,1.1-7.86v-58.59c0-3.16-.34-5.2-1.14-6.79-1.71-3.03-7.27-4.38-10.57-4.53h0c-3.29,0-4.99-.94-4.99-2.8,0-.66.34-2.8,4.75-2.8,3.01,0,6.15.07,9.46.14,4.05.09,8.65.19,14.07.19s10.14-.1,14.22-.19c3.36-.07,6.54-.14,9.63-.14,4.4,0,4.75,2.14,4.75,2.8,0,1.86-1.71,2.8-5.07,2.8-3.18.15-8.97,1.53-10.7,4.59-.76,1.53-1.1,3.56-1.1,6.73v58.59c0,4.31.29,6.37,1.12,7.88,1.72,3.05,7.52,4.43,10.76,4.58h0c3.29,0,4.99.94,4.99,2.8,0,.66-.34,2.8-4.75,2.8ZM801.48,198.43c-5.21,0-9.48-.09-13.62-.17-3.71-.08-7.21-.15-11.05-.15-5.42,0-10.02.1-14.07.19-3.31.07-6.45.14-9.46.14-3.26,0-4.91-.94-4.91-2.8,0-2.8,3.31-2.8,4.91-2.8,3.31,0,9-1.41,10.7-4.43.74-1.49,1.1-3.7,1.1-6.89v-58.59c0-4.37-.3-6.55-1.12-8.05-1.7-3-7.39-4.41-10.69-4.41-1.59,0-4.91,0-4.91-2.8,0-1.86,1.65-2.8,4.91-2.8,2.93,0,6.02.07,9.29.14,4.02.09,8.58.19,13.92.19,2.99,0,6.36-.08,9.92-.16,3.69-.08,7.51-.17,11.02-.17h45.44c5.99,0,8.03-.74,9.24-1.18.62-.23,1.21-.44,1.96-.44s1.71.1,2.39.87c.77.87.79,2.08.56,3.9l-2.43,20.44c-.3,2.22-1.67,3.21-2.9,3.21-1.12,0-2.54-.84-2.84-3.2-1.79-13.46-7.86-13.46-22.53-13.46h-27.75c-8.57,0-10.19,1.51-10.19,9.54,0,0,0,19.72,0,19.75.08,0,.17,0,.28,0h29.05c9.12,0,12.93-4.68,13.44-9.06.34-4.09,2.47-4.41,3.11-4.41,1.28,0,2.8.79,2.8,4.58,0,1.83-.08,4.19-.16,6.69-.08,2.59-.17,5.28-.17,7.43s.08,4.63.17,7.12c.08,2.48.16,4.82.16,6.67,0,1.17,0,4.75-2.8,4.75-1.04,0-2.83-.6-3.12-4.64-.51-4.03-4.33-8.83-13.43-8.83h-29.05c-.11,0-.21,0-.28,0,0,.07,0,.16,0,.28v18.5c0,12.13,1.51,14.73,17.49,14.73h15.42c19.37,0,28.45-4.74,34.67-18.12.62-1.34,1.73-2.15,2.96-2.15.81,0,1.55.37,2.04,1.02.59.78.73,1.84.4,2.99l-4.39,14.47c-3.04,10.63-4.99,12.1-16.04,12.1h-39.44ZM702.8,198.43c-2.92,0-6.03-.07-9.33-.14-4.1-.09-8.75-.19-14.21-.19s-9.97.1-13.98.19c-3.28.07-6.38.14-9.39.14-4.4,0-4.75-2.14-4.75-2.8,0-2.8,3.82-2.8,5.07-2.8,3.15-.14,8.54-1.47,10.34-4.52.69-1.69,1.15-3.71,1.15-7.94v-64.23h-26.25c-7.92,0-11.75,3.46-14.63,13.21-.5,1.76-1.68,2.86-3.06,2.86-.64,0-1.24-.28-1.68-.79-.65-.74-.94-1.9-.78-3.17l2.43-21.41c.3-2.97,1.86-3.6,3.11-3.6.7,0,1.27.3,1.82.59.83.43,1.96,1.03,4.18,1.03h92.83c2.11,0,3.24-.57,4.15-1.03.6-.3,1.17-.59,1.86-.59.65,0,2.78.26,3.12,3.62l2.43,21.35c.16.9.09,2.24-.65,3.14-.46.56-1.1.86-1.81.86-.81,0-2.29-.36-3.19-2.76l-.04-.12c-2.68-9.61-6.6-13.18-14.46-13.18h-26.25v64.23c0,4.6.51,6.48,1.28,7.88,1.54,2.95,7.11,4.57,10.37,4.57,1.25,0,5.07,0,5.07,2.8,0,.66-.34,2.8-4.75,2.8Z"/>
    <path class="cls-7" d="M1587.15,104.75c42.03,0,69.62,18.18,69.62,45.93,0,24.83-21.91,47.88-69.62,47.88-40.74,0-69.79-17.2-69.79-45.77,0-24.99,22.07-48.04,69.79-48.04M1587.96,192.71c24.51,0,44.31-12.33,44.31-39.11,0-23.05-14.77-43.01-45.77-43.01-24.51,0-44.47,12.5-44.47,39.28,0,23.05,14.77,42.84,45.93,42.84M1500.16,104.75c.81,0,1.46.65,1.62,2.27l2.43,21.42c.16.81,0,2.27-.97,2.27-.65,0-1.3-.49-1.79-1.79-2.76-9.9-6.98-14.28-15.9-14.28h-27.75v65.73c0,4.54.49,6.82,1.46,8.6,1.95,3.73,8.28,5.36,11.69,5.36,2.11,0,3.57.32,3.57,1.3,0,.81-1.3,1.3-3.25,1.3-6.49,0-13.63-.32-23.53-.32s-16.72.32-23.37.32c-1.95,0-3.25-.49-3.25-1.3,0-.97,1.46-1.3,3.57-1.3,3.57-.16,9.58-1.62,11.69-5.36.81-1.95,1.3-4.22,1.3-8.6v-65.73h-27.75c-8.93,0-13.15,4.38-16.07,14.28-.33,1.14-.97,1.79-1.62,1.79s-1.14-.97-.97-2.27l2.43-21.42c.16-1.62.65-2.27,1.62-2.27s2.11,1.62,6,1.62h92.83c3.73,0,5.03-1.62,6.01-1.62M1326.66,104.75c17.69,0,24.67,2.6,33.59,4.71.54.15.97.22,1.32.22,1.89,0,1.53-1.84,2.9-1.84,1.14,0,1.62.65,2.11,6.01l1.3,17.04c.08,1.28-.54,1.97-1.28,1.97-.67,0-1.42-.57-1.81-1.81-4.06-15.74-21.75-18.83-37.98-18.83-13.15,0-31.16,2.27-31.16,13.63,0,23.86,80.17,5.52,80.17,43.82,0,20.77-23.53,28.89-51.45,28.89-23.05,0-31.65-4.22-39.76-6.49-.48-.11-.88-.16-1.21-.16-2.11,0-1.45,1.94-2.85,1.94-1.14,0-1.95-.65-2.43-4.54l-2.6-22.72c-.16-.97.33-1.79,1.46-1.79.97,0,1.14.81,1.62,1.95,8.11,21.26,30.02,24.34,45.77,24.34,20.77,0,34.89-5.03,34.89-15.74,0-27.1-80.34-5.19-80.34-43.82,0-22.23,26.94-26.78,47.71-26.78M993.15,104.75c13.47,0,24.67,2.11,40.09,6.33.77.26,1.41.36,1.95.36,1.87,0,2.64-1.17,3.89-1.17.81,0,1.46.81,1.46,2.76v24.02c0,1.2-.59,1.77-1.22,1.77-.56,0-1.15-.44-1.37-1.28-5.19-20.29-25.48-26.78-44.79-26.78-24.67,0-48.36,12.01-48.36,40.9s21.75,40.9,48.36,40.9c24.67,0,43.17-13.47,49.34-26.78.42-.91,1.02-1.31,1.54-1.31.69,0,1.24.69,1.05,1.79l-4.71,16.39c-2.27,7.14-3.08,8.76-8.11,11.04-7.95,3.57-25.16,4.87-39.11,4.87-31.81,0-73.36-11.52-73.36-46.9s41.87-46.9,73.36-46.9M854.06,104.75c1.46,0,1.79.49,1.46,3.08l-2.43,20.45c-.17,1.24-.79,1.89-1.41,1.89s-1.19-.61-1.35-1.89c-1.95-14.61-8.93-14.77-24.02-14.77h-27.75c-9.09,0-11.69,1.79-11.69,11.04v19.64c0,1.3.32,1.62,1.79,1.62h29.05c9.41,0,14.28-4.87,14.93-10.39.16-1.95.81-3.08,1.62-3.08.97,0,1.3,1.3,1.3,3.08,0,3.73-.32,9.9-.32,14.12s.32,10.06.32,13.8c0,2.11-.32,3.25-1.3,3.25-.81,0-1.46-.97-1.62-3.25-.65-5.19-5.36-10.22-14.93-10.22h-29.05c-1.46,0-1.79.49-1.79,1.79v18.5c0,13.47,2.6,16.23,18.99,16.23h15.42c20.12,0,29.54-5.03,36.03-18.99.41-.88,1.04-1.28,1.6-1.28.77,0,1.38.77,1,2.09l-4.38,14.44c-2.92,10.22-4.38,11.04-14.61,11.04h-39.44c-9.9,0-16.55-.32-24.67-.32-9.9,0-16.88.32-23.53.32-2.43,0-3.41-.49-3.41-1.3,0-.97.97-1.3,3.41-1.3,3.57,0,9.9-1.46,12.01-5.19.81-1.62,1.3-3.9,1.3-7.63v-58.59c0-4.54-.32-6.98-1.3-8.76-2.11-3.73-8.44-5.19-12.01-5.19-2.43,0-3.41-.32-3.41-1.3,0-.81.97-1.3,3.41-1.3,6.49,0,13.47.33,23.21.33,6.17,0,14.12-.33,20.94-.33h45.44c8.93,0,9.58-1.62,11.2-1.62M731.69,104.75c.81,0,1.46.65,1.62,2.27l2.43,21.42c.16.81,0,2.27-.97,2.27-.65,0-1.3-.49-1.79-1.79-2.76-9.9-6.98-14.28-15.9-14.28h-27.75v65.73c0,4.54.49,6.82,1.46,8.6,1.95,3.73,8.28,5.36,11.68,5.36,2.11,0,3.57.32,3.57,1.3,0,.81-1.3,1.3-3.25,1.3-6.49,0-13.63-.32-23.53-.32s-16.72.32-23.37.32c-1.95,0-3.25-.49-3.25-1.3,0-.97,1.46-1.3,3.57-1.3,3.57-.16,9.58-1.62,11.68-5.36.81-1.95,1.3-4.22,1.3-8.6v-65.73h-27.75c-8.93,0-13.15,4.38-16.07,14.28-.32,1.14-.97,1.79-1.62,1.79s-1.14-.97-.97-2.27l2.43-21.42c.16-1.62.65-2.27,1.62-2.27s2.11,1.62,6,1.62h92.83c3.73,0,5.03-1.62,6-1.62M384.87,104.75c42.03,0,69.62,18.18,69.62,45.93,0,24.83-21.91,47.88-69.62,47.88-40.74,0-69.79-17.2-69.79-45.77,0-24.99,22.07-48.04,69.79-48.04M385.68,192.71c24.51,0,44.31-12.33,44.31-39.11,0-23.05-14.77-43.01-45.77-43.01-24.51,0-44.47,12.5-44.47,39.28,0,23.05,14.77,42.84,45.93,42.84M1253.47,106.37c1.95,0,3.25.49,3.25,1.3,0,.97-1.62,1.3-3.57,1.3-3.57.16-9.9,1.62-12.01,5.36-.81,1.62-1.3,3.73-1.3,7.47v58.59c0,4.54.33,6.82,1.3,8.6,2.11,3.73,8.44,5.19,12.01,5.36,1.95,0,3.57.32,3.57,1.3,0,.81-1.3,1.3-3.25,1.3-6.65,0-13.79-.32-23.69-.32s-17.04.32-23.7.32c-1.95,0-3.25-.49-3.25-1.3,0-.97,1.62-1.3,3.57-1.3,3.57-.16,9.74-1.62,11.85-5.36.97-1.79,1.3-4.06,1.3-8.6v-58.59c0-3.73-.49-5.84-1.3-7.47-2.11-3.73-8.28-5.19-11.85-5.36-1.95,0-3.57-.32-3.57-1.3,0-.81,1.3-1.3,3.25-1.3,6.65,0,13.63.33,23.53.33s17.04-.33,23.86-.33M1126.23,106.37c18.34,0,49.01,1.14,49.01,25.48,0,15.9-12.66,22.4-27.1,24.99,3.57,1.62,6.33,4.87,10.06,9.9,15.39,21.32,23.18,27.76,36.34,27.76.17,0,.33,0,.5,0,3.25,0,3.25,2.27.33,2.6-2.27.33-5.84.65-13.15.65-21.91,0-27.1-.16-51.93-34.73-3.08-3.9-6.49-4.71-9.9-4.71h-18.83c-1.3,0-1.62.33-1.62,1.62v16.07c0,16.72,7.79,17.85,15.74,18.18,2.27,0,4.38.16,4.38,1.3s-1.62,1.46-3.73,1.46c-9.41,0-17.53-.32-26.13-.32s-17.37.32-26.78.32c-2.11,0-3.73-.32-3.73-1.46s2.11-1.3,4.38-1.3c7.79-.33,15.74-1.3,15.74-18.18v-48.36c0-16.72-7.46-18.34-15.42-18.5-2.27-.16-4.22-.16-4.22-1.46,0-.97,1.46-1.3,3.57-1.3,10.06,0,16.39.33,27.26.33,10.06,0,23.05-.33,35.22-.33M1101.56,151.97h26.62c13.47,0,24.83-6.17,24.83-20.12,0-15.58-11.36-19.31-24.83-19.31h-12.5c-15.26,0-15.74.16-15.74,14.93v23.05c0,.97.49,1.46,1.62,1.46M608.99,106.37c2.11,0,2.76.49,2.92,1.3,0,.65-.81,1.46-3.25,1.46-11.36,0-15.58,5.52-15.58,16.23v63.62c0,7.63-.16,9.58-1.3,9.58-.97,0-2.6-.16-7.63-4.06l-86.34-65.24v48.69c0,10.39,2.76,16.39,15.42,16.39,3.41,0,4.71,2.6.49,2.6-7.63,0-13.47-.32-20.94-.32-6.49,0-15.09.32-21.58.32-3.57,0-3.73-2.6.49-2.6,11.2,0,15.74-5.52,15.74-16.39v-56.32c-.32-7.47-5.84-12.5-15.58-12.5-3.89,0-4.71-2.76-.65-2.76h23.37c8.6,0,10.06.65,18.83,7.47l69.3,52.91v-41.38c0-10.22-3.25-16.23-15.74-16.23-1.62,0-3.25-.33-3.25-1.46,0-.81,1.14-1.3,2.92-1.3,7.79,0,13.31.49,20.94.49,6.33,0,15.26-.49,21.42-.49M281.48,106.37c3.08,0,3.41,2.76-.16,2.76-4.22,0-12.33.32-12.33,7.95,0,1.3.65,3.89,1.3,5.68l17.69,52.91c3.73,10.87,8.44,18.66,19.8,18.66,4.38,0,5.19,2.6.16,2.6-9.41,0-16.55-.32-24.99-.32-7.95,0-16.07.32-27.1.32-4.54,0-4.38-2.6.16-2.6,7.63,0,12.5-2.27,12.5-8.44,0-1.62-.32-3.41-.97-5.52l-17.85-53.88-38.46,65.73c-2.92,5.19-4.06,6.82-5.03,6.82s-1.95-1.62-3.9-5.03l-38.46-67.03-16.55,50.47c-.97,2.92-1.46,5.19-1.46,7.3,0,6.98,5.19,9.58,12.5,9.58,4.38,0,4.54,2.6.16,2.6-8.28,0-12.82-.32-20.77-.32-7.3,0-13.96.32-20.94.32-3.9,0-3.57-2.6.32-2.6,9.25,0,15.74-6.33,19.96-19.8l16.72-51.45c.81-2.43,1.14-4.38,1.14-6.17,0-5.68-4.22-7.79-11.69-7.79-3.57,0-4.54-2.76-.32-2.76h23.21c5.52,0,9.41.97,12.33,5.84l34.08,59.72,34.24-59.72c3.08-5.19,7.63-5.84,13.47-5.84h21.26M1587.15,101.75c-22.82,0-41.71,5.28-54.62,15.27-11.71,9.06-18.16,21.77-18.16,35.76,0,14.88,7.26,27.37,21.01,36.12,12.98,8.27,30.89,12.64,51.78,12.64,22.8,0,41.66-5.28,54.54-15.26,11.66-9.03,18.08-21.69,18.08-35.62,0-14.67-7.05-27.08-20.4-35.88-12.95-8.54-31.01-13.05-52.23-13.05h0ZM1587.96,189.71c-13.74,0-24.97-4.1-32.49-11.87-6.83-7.04-10.43-16.72-10.43-27.98s4.01-20.98,11.92-27.34c7.27-5.84,17.49-8.93,29.54-8.93,13.65,0,24.84,4.13,32.34,11.94,6.72,6.99,10.42,16.96,10.42,28.07,0,11.78-3.98,20.95-11.84,27.26-7.22,5.79-17.41,8.85-29.46,8.85h0ZM1500.16,101.75c-1.05,0-1.87.42-2.53.75-.8.41-1.71.87-3.47.87h-92.83c-1.86,0-2.72-.46-3.48-.86-.65-.34-1.46-.77-2.52-.77-1.24,0-4.16.48-4.61,4.97l-2.43,21.38c-.21,1.67.21,3.25,1.14,4.31.74.84,1.74,1.3,2.81,1.3,2.05,0,3.82-1.55,4.51-3.96,2.67-9.05,6-12.11,13.18-12.11h24.75v62.73c0,3.89-.39,5.76-.99,7.26-1.34,2.11-5.6,3.52-9.07,3.7-5.65.02-6.49,2.7-6.49,4.3,0,.72.3,4.3,6.25,4.3,3.03,0,6.14-.07,9.42-.14,4-.09,8.54-.19,13.95-.19s10.08.1,14.18.19c3.3.07,6.42.14,9.36.14,5.94,0,6.25-3.58,6.25-4.3,0-1.61-.85-4.3-6.57-4.3-2.88,0-7.83-1.46-9.03-3.74v-.02s-.03-.02-.03-.02c-.57-1.04-1.09-2.63-1.09-7.17v-62.73h24.75c7.21,0,10.5,3.05,13.01,12.09l.03.12.05.12c1.26,3.37,3.63,3.73,4.59,3.73,1.15,0,2.24-.51,2.97-1.41,1.05-1.28,1.19-3.03.97-4.3l-2.42-21.32c-.36-3.63-2.71-4.93-4.6-4.93h0ZM1326.66,101.75c-32.7,0-50.71,10.58-50.71,29.78,0,10.57,5.52,18.32,16.41,23.04,9.05,3.92,20.55,5.42,31.68,6.86,20.06,2.61,32.25,4.85,32.25,13.91,0,5.81-5.89,8.31-7.83,9.13-5.58,2.37-13.9,3.62-24.07,3.62-23.15,0-37.21-7.33-42.96-22.41l-.02-.06-.02-.06c-.06-.14-.12-.28-.17-.42-.41-1-1.35-3.35-4.21-3.35-1.39,0-2.62.54-3.46,1.53-.82.97-1.17,2.3-.97,3.66l2.59,22.66c.27,2.18.9,7.2,5.42,7.2,1.88,0,2.89-1.09,3.4-1.85,1.28.36,2.59.78,3.98,1.22,7.5,2.38,16.83,5.34,36.44,5.34,15.31,0,28.29-2.41,37.52-6.96,11.07-5.47,16.93-14.08,16.93-24.92s-5.74-18.7-17.06-23.74c-9.4-4.18-21.21-5.93-32.63-7.63-15.67-2.32-30.48-4.52-30.48-12.45,0-1.35,0-5.45,8.57-8.22,6.16-1.99,14.05-2.41,19.59-2.41,20.72,0,32.2,5.42,35.07,16.57l.02.07.02.07c.74,2.38,2.58,3.91,4.67,3.91,1.15,0,2.23-.47,3.02-1.32.91-.97,1.35-2.34,1.25-3.85l-1.3-17.07c-.39-4.34-.8-8.78-5.1-8.78-1.83,0-2.86,1.05-3.39,1.74,0,0,0,0,0,0l-.07-.02-.07-.02c-1.37-.32-2.72-.67-4.03-1-7.35-1.86-14.95-3.79-30.26-3.79h0ZM993.15,101.75c-18.5,0-36.67,3.83-49.84,10.51-17.35,8.8-26.52,22.42-26.52,39.39s9.13,30.61,26.39,39.39c13.14,6.68,31.35,10.51,49.97,10.51,6.78,0,29.73-.37,40.34-5.13,6.28-2.84,7.41-5.52,9.74-12.86v-.04s.02-.04.02-.04l4.71-16.39.05-.17.03-.17c.24-1.47-.1-2.85-.96-3.87-.76-.9-1.88-1.42-3.05-1.42-1.79,0-3.39,1.14-4.27,3.05-2.94,6.35-8.97,12.57-16.54,17.06-8.8,5.22-19.2,7.98-30.08,7.98-13.19,0-24.37-3.24-32.33-9.36-8.65-6.64-13.03-16.25-13.03-28.54,0-18.32,11.92-37.9,45.36-37.9,13.3,0,36.42,3.19,41.89,24.52.58,2.13,2.3,3.54,4.28,3.54s4.22-1.67,4.22-4.77v-24.02c0-4.25-2.4-5.76-4.46-5.76-1.28,0-2.26.49-2.9.82-.54.28-.71.34-.99.34-.26,0-.61-.07-1-.2l-.08-.03-.08-.02c-14.52-3.97-26.42-6.44-40.88-6.44h0ZM854.06,101.75c-1.01,0-1.79.28-2.47.53-1.12.41-3,1.09-8.73,1.09h-45.44c-3.53,0-7.35.09-11.05.17-3.55.08-6.91.16-9.89.16-5.33,0-9.88-.1-13.89-.19-3.28-.07-6.37-.14-9.32-.14-5.58,0-6.41,2.69-6.41,4.3,0,2.85,2.16,4.3,6.41,4.3,3.46,0,8.18,1.51,9.4,3.67.65,1.19.91,3.24.91,7.29v58.59c0,2.86-.31,4.89-.95,6.21-1.28,2.13-5.93,3.61-9.36,3.61-4.25,0-6.41,1.45-6.41,4.3,0,1.61.83,4.3,6.41,4.3,3.03,0,6.17-.07,9.49-.14,4.05-.09,8.63-.19,14.04-.19,3.82,0,7.32.07,11.02.15,4.14.09,8.42.17,13.65.17h39.44c11.79,0,14.24-1.85,17.49-13.21l4.37-14.4c.47-1.66.24-3.19-.63-4.35-.77-1.02-1.95-1.61-3.24-1.61-1.8,0-3.46,1.16-4.32,3.03-6,12.89-14.4,17.25-33.3,17.25h-15.42c-7.83,0-11.79-.67-13.66-2.32-1.68-1.47-2.33-4.53-2.33-10.91v-17.29h27.84c8.06,0,11.45,3.88,11.94,7.53.42,5.36,3.36,5.94,4.61,5.94,1.61,0,4.3-.81,4.3-6.25,0-1.88-.08-4.23-.16-6.72-.08-2.48-.17-5.05-.17-7.08,0-2.13.09-4.8.17-7.38.08-2.51.16-4.88.16-6.74,0-5.49-3.01-6.08-4.3-6.08-1.99,0-4.23,1.52-4.61,5.78-.58,4.75-5.16,7.69-11.95,7.69h-27.84v-18.26c0-3.73.46-5.87,1.44-6.75.99-.89,3.22-1.28,7.25-1.28h27.75c15.71,0,19.48.45,21.05,12.17.39,3.09,2.45,4.49,4.32,4.49s3.97-1.41,4.38-4.49l2.44-20.49c.22-1.77.33-3.63-.92-5.06-1.22-1.38-2.95-1.38-3.51-1.38h0ZM731.69,101.75c-1.05,0-1.87.42-2.54.75-.8.41-1.71.87-3.47.87h-92.83c-1.86,0-2.72-.45-3.48-.86-.65-.34-1.46-.77-2.52-.77-1.24,0-4.16.48-4.61,4.97l-2.43,21.38c-.21,1.67.21,3.25,1.15,4.32.74.84,1.74,1.3,2.81,1.3,2.05,0,3.82-1.55,4.51-3.96,2.67-9.04,6-12.11,13.18-12.11h24.75v62.73c0,3.89-.39,5.76-.99,7.26-1.34,2.11-5.6,3.52-9.07,3.7-5.65.02-6.49,2.7-6.49,4.3,0,.72.3,4.3,6.25,4.3,3.03,0,6.14-.07,9.42-.14,4-.09,8.54-.19,13.95-.19s10.08.1,14.17.19c3.3.07,6.42.14,9.36.14,5.95,0,6.25-3.58,6.25-4.3,0-1.61-.85-4.3-6.57-4.3-2.88,0-7.83-1.46-9.03-3.74v-.02s-.03-.02-.03-.02c-.57-1.04-1.09-2.63-1.09-7.17v-62.73h24.75c7.21,0,10.5,3.05,13.01,12.09l.04.13.05.12c1.26,3.37,3.63,3.73,4.59,3.73,1.15,0,2.24-.51,2.97-1.41,1.05-1.28,1.19-3.03.97-4.3l-2.42-21.32c-.36-3.63-2.71-4.93-4.6-4.93h0ZM384.87,101.75c-22.82,0-41.71,5.28-54.62,15.27-11.71,9.06-18.16,21.77-18.16,35.76,0,14.88,7.26,27.37,21.01,36.12,12.98,8.27,30.89,12.64,51.78,12.64,22.8,0,41.66-5.28,54.54-15.26,11.66-9.03,18.08-21.68,18.08-35.62,0-14.67-7.05-27.08-20.4-35.88-12.95-8.54-31.01-13.05-52.23-13.05h0ZM385.68,189.71c-13.74,0-24.97-4.1-32.49-11.87-6.83-7.04-10.43-16.72-10.43-27.98s4.01-20.98,11.92-27.34c7.27-5.84,17.49-8.93,29.54-8.93,13.65,0,24.83,4.13,32.34,11.94,6.72,6.99,10.42,16.96,10.42,28.07,0,11.78-3.98,20.95-11.84,27.26-7.22,5.79-17.41,8.85-29.47,8.85h0ZM1253.47,103.37c-3.11,0-6.29.07-9.66.14-4.08.09-8.71.19-14.19.19s-9.99-.1-14.04-.19c-3.32-.07-6.46-.14-9.49-.14-5.94,0-6.25,3.58-6.25,4.3,0,1.6.85,4.27,6.5,4.3,3.59.18,8,1.63,9.27,3.77.45.92.95,2.46.95,6.05v58.59c0,3.98-.25,5.92-.93,7.16-1.21,2.14-5.67,3.61-9.29,3.79-4.03.02-5.61,1.38-6.19,2.74-.69-1.43-2.36-2.58-5.1-2.58-.19,0-.34,0-.5,0-11.74,0-18.71-5.45-33.91-26.51-1.83-2.47-3.59-4.76-5.48-6.67,15.33-4.32,23.09-13.21,23.09-26.47,0-12.04-6.62-20.35-19.68-24.71-9.93-3.32-21.92-3.77-32.33-3.77-6.4,0-12.95.09-19.3.17-5.73.08-11.15.15-15.92.15-5.51,0-9.89-.08-14.12-.17-4.21-.08-8.18-.16-13.14-.16-5.72,0-6.57,2.69-6.57,4.3,0,3.99,4.33,4.28,6.41,4.41l.59.04h.08s.08,0,.08,0c6.14.12,12.48.25,12.48,15.5v48.36c0,14.6-5.93,14.89-12.81,15.18-2.07,0-7.32.04-7.32,4.3,0,1.67.87,4.46,6.73,4.46,4.86,0,9.6-.09,14.17-.17,4.39-.08,8.53-.15,12.6-.15s8.18.08,12.41.16c4.36.08,8.87.17,13.72.17,5.86,0,6.73-2.8,6.73-4.46,0-4.26-5.26-4.3-7.32-4.3-6.88-.28-12.8-.57-12.8-15.18v-14.69h17.45c2.82,0,5.18.6,7.51,3.52,24.93,34.71,30.8,35.92,54.33,35.92,7.86,0,11.49-.38,13.53-.67,2.42-.29,3.85-1.49,4.44-2.85.58,1.24,2.07,2.71,5.88,2.71,3.02,0,6.15-.07,9.46-.14,4.09-.09,8.72-.19,14.23-.19s10.04.1,14.13.19c3.36.07,6.53.14,9.56.14,5.94,0,6.25-3.58,6.25-4.3,0-1.6-.85-4.27-6.49-4.3-3.63-.18-8.26-1.69-9.47-3.83-.66-1.21-.91-3.15-.91-7.13v-58.59c0-3.59.5-5.13.95-6.05,1.26-2.11,5.84-3.59,9.44-3.77,5.65-.02,6.5-2.7,6.5-4.3,0-.72-.3-4.3-6.25-4.3h0ZM1102.94,148.97v-21.51c0-4.99,0-9.7,1.19-10.81,1.21-1.12,5.77-1.12,11.55-1.12h12.5c15.3,0,21.83,4.88,21.83,16.31,0,15.89-16.71,17.12-21.83,17.12h-25.24ZM608.99,103.37c-3.11,0-6.96.12-10.67.24-3.74.12-7.61.24-10.75.24-3.74,0-6.9-.12-10.24-.24-3.3-.12-6.72-.25-10.69-.25-4.37,0-5.92,2.32-5.92,4.3,0,1.05.45,4.46,6.25,4.46,9.53,0,12.74,3.34,12.74,13.23v35.32l-64.48-49.23c-8.95-6.96-11.09-8.08-20.65-8.08h-23.37c-4.19,0-5.68,2.26-5.68,4.19,0,2.2,1.98,4.57,6.33,4.57,7.71,0,12.29,3.49,12.58,9.57v56.25c0,9.64-3.57,13.39-12.74,13.39-1.46,0-2.71.24-3.69.72-1.55.75-2.47,2.1-2.47,3.62,0,2.05,1.78,4.26,5.68,4.26,3.28,0,7.13-.08,10.86-.16,3.69-.08,7.51-.16,10.73-.16,3.68,0,7.03.08,10.28.16,3.34.08,6.78.16,10.65.16,1.33,0,2.41-.2,3.28-.6,1.48-.68,2.37-1.98,2.37-3.48,0-2.62-2.58-4.52-6.14-4.52-10.56,0-12.42-4.32-12.42-13.39v-42.66l81.53,61.61c5.01,3.88,7.33,4.66,9.44,4.66,1.3,0,3.55-.59,4.05-4.55.21-1.63.25-4.18.25-8.03v-63.62c0-9.64,3.41-13.23,12.58-13.23,6.07,0,6.25-4,6.25-4.46v-.3l-.06-.29c-.49-2.46-2.46-3.71-5.86-3.71h0ZM281.48,103.37h-21.26c-5.92,0-12.04.56-16.05,7.31l-31.66,55.21-31.48-55.17-.02-.03-.02-.03c-3.85-6.42-9.44-7.3-14.91-7.3h-23.21c-5.62,0-5.78,3.78-5.78,4.21,0,2.26,2.1,4.55,6.1,4.55,8.69,0,8.69,3,8.69,4.79,0,1.55-.31,3.21-.98,5.22l-16.72,51.47c-4.98,15.89-12.15,17.73-17.11,17.73-4.21,0-6.09,2.2-6.09,4.38,0,1.48.88,2.8,2.35,3.53.92.46,2.07.69,3.41.69,3.48,0,6.95-.08,10.3-.16,3.43-.08,6.98-.16,10.64-.16,3.9,0,6.91.08,10.09.16,3.18.08,6.46.17,10.68.17,4.58,0,6.21-2.3,6.21-4.26s-1.67-4.33-6.37-4.33c-9.5,0-9.5-4.61-9.5-6.58,0-1.68.4-3.64,1.31-6.35l14.46-44.09,35.11,61.18c2.33,4.07,3.74,6.54,6.5,6.54s4.39-2.55,7.64-8.33l35.1-59.98,15.76,47.56c.56,1.82.83,3.33.83,4.6,0,1.77,0,5.44-9.5,5.44-4.79,0-6.49,2.33-6.49,4.33,0,.71.31,4.26,6.33,4.26s11.22-.1,15.84-.18c3.93-.07,7.64-.14,11.27-.14,4.07,0,7.8.08,11.74.15,4.12.08,8.39.17,13.25.17,1.5,0,2.75-.19,3.72-.58,1.71-.67,2.74-2.03,2.74-3.62,0-2.03-1.73-4.4-6.62-4.4-8.31,0-12.75-4.35-16.96-16.64l-17.68-52.88v-.04s-.03-.04-.03-.04c-.63-1.73-1.12-3.92-1.12-4.65,0-2.97,1.59-4.95,9.33-4.95,1.38,0,2.55-.29,3.49-.85,1.31-.78,2.09-2.09,2.09-3.51,0-2.19-1.86-4.41-5.41-4.41h0Z"/>
  </g>
</svg>