<?xml version="1.0" encoding="UTF-8"?>
<svg id="Layer_1" xmlns="http://www.w3.org/2000/svg" version="1.1" viewBox="0 0 1411.1 94.5">
  <!-- Generator: Adobe Illustrator 30.5.1, SVG Export Plug-In . SVG Version: 2.1.4 Build 3)  -->
  <defs>
    <style>
      .st0 {
        fill: #012d25;
      }
    </style>
  </defs>
  <path class="st0" d="M136.6,15.9l-39.4,70.1c-3.6,6.3-5,8.4-6,8.4s-2.3-2.1-4.2-6L47.8,15.6l-18.7,56.6c-1.3,3.9-2,7-2,9.4,0,6,3.7,8.3,11.7,8.3s3.6,2.3.2,2.3c-8.1,0-10.7-.3-18.5-.3s-12.5.3-18.5.3-2.9-2.3.5-2.3c10.2,0,14.9-6.2,19.5-19.6l17.7-53.4c.8-2.8,1.3-4.9,1.3-6.6,0-4.7-3.4-6.3-11-6.3s-3.4-2.3-.2-2.3h19.8c5.4,0,8.3,1.5,10.5,5.5l36,68L133.7,7.3c2.6-4.9,6.3-5.7,12-5.7h18.7c2.3,0,2.3,2.3-.2,2.3-4.1,0-12.3.3-12.3,7.3s1.1,5.2,1.9,7.5l18,53.9c2.9,9.1,6.6,17.4,18,17.4s4.1,2.3.3,2.3c-8.8,0-13.6-.3-20.6-.3s-12.5.3-24,.3-3.6-2.1.5-2.1c7.3,0,11.5-2.6,11.5-8.4s-.3-3.4-1-5.5l-20-60.2h0Z"/>
  <path class="st0" d="M257.4,0C297.8,0,322.8,20,322.8,45.9s-22.7,47.9-66.7,47.9-65.2-19.2-65.2-45.6S213.4,0,257.4,0h0ZM209.8,45c0,22.7,14.6,44.3,47.9,44.3s45.9-14.1,45.9-40.2-14.3-44.6-47.7-44.6-46.1,14.6-46.1,40.6h0Z"/>
  <path class="st0" d="M449.5,84.7c0,7.1-.2,9.1-1.3,9.1s-2-.3-5.5-3.2l-86.7-73.5v56.3c0,10.4,2.1,16.6,15.1,16.6s3.7,2.3.3,2.3c-6.2,0-13-.3-19.3-.3s-13,.3-19.1.3-3.2-2.1.2-2.1c12,0,15.4-6,15.4-16.7V15.6c-.3-5.8-4.4-11.7-15.1-11.7s-3.4-2.3-.5-2.3h20.9c7.8,0,8.8.3,17.7,7.9l70.3,59.7V20.3c0-9.9-2-16.4-14.9-16.4s-2.9-.2-2.9-1.1,1.1-1.1,2.4-1.1c6.2,0,12.7.3,19,.3s13.3-.3,19.6-.3,2.3.5,2.3,1c.2.7-.5,1.3-2.8,1.3-11.7,0-15.1,6.3-15.1,16.7v64.1h0Z"/>
  <path class="st0" d="M519,8.3h-28.2c-9.7,0-14,5.5-16.7,15.4-.3,1.1-1,1.5-1.5,1.5s-1-1.1-.8-2l2.4-21.6c.2-1.3.5-1.6,1.1-1.6s1.8,1.6,7.3,1.6h87.6c5.7,0,6.5-1.6,7.3-1.6s1.1.5,1.3,1.6l2.4,21.6c.2,1.1-.2,2-1,2s-1.1-.3-1.3-1.5c-2.8-9.9-7-15.4-16.7-15.4h-28.2v66.4c0,5.2.3,7.9,1.3,9.9,2.1,3.7,7.8,5.4,11.4,5.4s3.4.3,3.4,1.3-1.3,1-2.9,1c-6.7,0-13.3-.3-20.6-.3s-14.1.3-20.6.3-2.9-.2-2.9-1,1.6-1.3,3.4-1.3c3.4,0,9.2-1.6,11.2-5.4,1-1.9,1.3-4.7,1.3-9.9V8.3h0Z"/>
  <path class="st0" d="M636.8,92.2c-12.7,0-18-.3-24.2-.3s-14,.3-20.6.3-3.4-.2-3.4-1,.8-1.3,3.2-1.3c3.6,0,9.7-1.6,11.8-5.4.8-1.6,1.3-3.7,1.3-7.5V19.2c0-5.2-.3-8.1-1.3-9.9-2.1-3.7-8.3-5.4-11.8-5.4s-3.2-.3-3.2-1.3.8-1,3.4-1c6.5,0,12.8.3,20,.3s13.2-.3,19.6-.3h46.1C685.7,1.6,687.1,0,688.6,0s1.5.5,1.1,2.1l-2.4,21.1c-.2,1.8-2.1,1.8-2.1-.2-1.5-15.4-9.4-15.7-25.2-15.7h-27.8c-9.7,0-12.2,1.6-12.2,12.5v20.6c0,1,.3,1.3,1.1,1.3h31.2c9.7,0,14.4-4.4,15.7-9.9.5-2,.7-3.2,1.6-3.2s1,1.5,1,3.2c0,3.6-.3,9.3-.3,12.8s.3,9.1.3,12.8,0,3.2-1,3.2-1.1-1.3-1.6-3.2c-1.1-5.4-5.8-9.9-15.7-9.9h-31.2c-1,0-1.1.5-1.1,1.1v21.4c0,13.6,1.6,16.2,19,16.2h17.4c18.8,0,28.2-3.4,35.5-19.3.8-1.6,2.8-1,2.3.5l-4.2,14c-2.9,9.6-4.2,10.7-14.8,10.7h-38.5Z"/>
  <path class="st0" d="M856.1,76.4c-3.1,8.9-4.4,11-9.1,13-6.5,2.8-18.8,4.4-36.7,4.4-30.3,0-70-11.7-70-46.9S780.1,0,810.5,0s23.2,2,38.5,7c4.1,1.5,5-.5,6.2-.5s1.5.7,1.5,2.4v24.2c0,1.8-1.8,2-2.3.2-4.9-20.6-22.6-28.6-44-28.6s-50.5,12.7-50.5,42,24.7,42.4,50.6,42.4,42.4-14.9,47.7-27.4c.8-1.6,2.8-1.3,2.3.8l-4.4,14h0Z"/>
  <path class="st0" d="M873.3,3.9c-2.1,0-4.2-.2-4.2-1.1s1.5-1.3,3.4-1.3c9.6,0,14,.3,24.7.3s26.6-.3,35.4-.3c19.5,0,45.8,2.1,45.8,25.5s-12.8,22.2-27.4,24.5c3.6,1.8,6.5,5.7,10.5,11.4,16.7,24.2,22.7,28.1,35.4,27.4,2.1,0,2.4,1.8.3,2.3-1.6.2-4.5.5-9.2.5-21.4,0-24.5-.3-48.7-34.9-2.9-3.9-5.5-5.2-9.2-5.4h-25.5c-.8,0-1,.3-1,1.1v17c0,17.5,7.1,18.8,15.3,18.8,2.1.2,4.1.2,4.1,1.3s-1.3,1.1-3.2,1.1c-9.1,0-15.7-.3-23.4-.3s-14.9.3-24,.3-3.2-.2-3.2-1.1,2-1.1,4.1-1.3c8.1-.2,15.2-1.1,15.2-18.8V23.7c0-17.5-6.8-19.6-14.9-19.8h0ZM935.1,47.4c14.3,0,26.1-6.2,26.1-20.5s-11.8-20-26.1-20h-14c-17.4,0-17.7.2-17.7,16.5v22.9c0,.7.2,1,1,1h30.7Z"/>
  <path class="st0" d="M1014.3,16.7c0-3.7-.5-5.8-1.3-7.5-2.1-3.7-8-5.4-11.5-5.4s-3.6-.3-3.6-1.3,1.3-1,2.9-1c6.7,0,13.6.3,20.9.3s14.1-.3,20.9-.3,3.1.2,3.1,1-1.8,1.3-3.6,1.3c-3.6,0-9.4,1.6-11.5,5.4-.8,1.6-1.3,3.7-1.3,7.5v57.9c0,5.2.3,7.9,1.3,9.9,2.1,3.7,7.9,5.4,11.5,5.4s3.6.3,3.6,1.3-1.3,1-3.1,1c-6.7,0-13.5-.3-20.8-.3s-14.1.3-21.1.3-2.9-.2-2.9-1,1.6-1.3,3.6-1.3c3.6,0,9.4-1.6,11.5-5.4,1-1.9,1.3-4.7,1.3-9.9V16.7h0Z"/>
  <path class="st0" d="M1147.9,25.8c0,2.1-1.9,2.6-2.4.2-4.2-17.2-22.6-20-37.3-20s-33.9,3.1-33.9,15.6c0,26.3,80.7,5.5,80.7,44s-18.5,28.2-48.4,28.2-29.5-3.6-39.6-6.7c-3.6-1.1-2.4,2.1-4.1,2.1s-1.9-.8-2.3-4.1l-2.8-22.7c0-.8.3-1.5,1.3-1.5s1,.5,1.3,1.6c7.8,22.1,29.7,25.2,46.1,25.2,25.5,0,36.2-7.5,36.2-17.8,0-30-80.8-6.7-80.8-44.3s25.3-25.6,46.1-25.6,25.8,3.6,32.3,5c3.4,1,2.6-1.8,4.5-1.8s1.5,1,1.8,5.8l1.3,16.7h0Z"/>
  <path class="st0" d="M1210.5,8.3h-28.2c-9.7,0-14,5.5-16.7,15.4-.3,1.1-1,1.5-1.5,1.5s-1-1.1-.8-2l2.4-21.6c.2-1.3.5-1.6,1.1-1.6s1.8,1.6,7.3,1.6h87.6c5.7,0,6.5-1.6,7.3-1.6s1.1.5,1.3,1.6l2.4,21.6c.2,1.1-.2,2-1,2s-1.1-.3-1.3-1.5c-2.8-9.9-7-15.4-16.7-15.4h-28.2v66.4c0,5.2.3,7.9,1.3,9.9,2.1,3.7,7.8,5.4,11.4,5.4s3.4.3,3.4,1.3-1.3,1-2.9,1c-6.7,0-13.3-.3-20.6-.3s-14.1.3-20.6.3-2.9-.2-2.9-1,1.6-1.3,3.4-1.3c3.4,0,9.2-1.6,11.2-5.4,1-1.9,1.3-4.7,1.3-9.9V8.3h0Z"/>
  <path class="st0" d="M1345.7,0C1386.1,0,1411.1,20,1411.1,45.9s-22.7,47.9-66.7,47.9-65.2-19.2-65.2-45.6S1301.7,0,1345.7,0h0ZM1298.2,45c0,22.7,14.6,44.3,47.9,44.3s45.9-14.1,45.9-40.2-14.3-44.6-47.7-44.6-46.1,14.6-46.1,40.6h0Z"/>
</svg>