<?xml version="1.0" encoding="UTF-8"?>
<svg id="Layer_1" data-name="Layer 1" xmlns="http://www.w3.org/2000/svg" xmlns:xlink="http://www.w3.org/1999/xlink" viewBox="0 0 373.16 353.98">
  <defs>
    <style>
      .cls-1 {
        fill: url(#radial-gradient);
      }

      .cls-2 {
        fill: #fff;
      }
    </style>
    <radialGradient id="radial-gradient" cx="-13.35" cy="101.85" fx="-13.35" fy="101.85" r="566.61" gradientTransform="translate(75.22 -30.3) rotate(29.02) scale(1 1.56)" gradientUnits="userSpaceOnUse">
      <stop offset=".06" stop-color="#fff" stop-opacity="0"/>
      <stop offset=".26" stop-color="#fff" stop-opacity=".31"/>
      <stop offset=".47" stop-color="#fff" stop-opacity=".62"/>
      <stop offset=".63" stop-color="#fff" stop-opacity=".82"/>
      <stop offset=".71" stop-color="#fff" stop-opacity=".9"/>
    </radialGradient>
  </defs>
  <polygon class="cls-2" points="246.46 323.69 244.51 323.69 242.14 332.73 233.4 332.73 233.4 334.59 240.08 338.3 237.46 346.5 238.91 347.59 245.49 342.5 252.05 347.57 253.55 346.51 250.89 338.42 257.52 334.58 257.52 332.73 248.82 332.73 246.46 323.69 246.46 323.69"/>
  <g>
    <path class="cls-2" d="M165.82,313.49v-21.3h13.34v2.87h-9.92v6.2h9.55v2.87h-9.55v6.5h9.92v2.87h-13.34Z"/>
    <path class="cls-2" d="M186.36,292.19h6.35c2.73,0,4.75.91,6.06,2.72,1.31,1.81,1.97,4.46,1.97,7.93s-.66,6.12-1.97,7.94c-1.31,1.81-3.33,2.72-6.06,2.72h-6.35v-21.3ZM192.49,310.68c1.57,0,2.73-.52,3.49-1.57.76-1.05,1.14-2.55,1.14-4.5v-3.54c0-1.95-.38-3.45-1.14-4.5-.76-1.05-1.93-1.57-3.49-1.57h-2.75v15.69h2.75Z"/>
    <path class="cls-2" d="M206.96,313.49v-2.59h5.01v-16.11h-5.01v-2.59h13.43v2.59h-5v16.11h5v2.59h-13.43Z"/>
    <path class="cls-2" d="M230.64,297.1h-.27v16.39h-2.99v-21.3h4.4l6.26,16.39h.27v-16.39h2.99v21.3h-4.39l-6.26-16.39Z"/>
    <path class="cls-2" d="M248.37,292.19h7.35c1.93,0,3.43.5,4.5,1.5s1.6,2.36,1.6,4.09c0,1.24-.31,2.23-.92,2.96s-1.43,1.25-2.47,1.56v.15c1.24.29,2.24.83,2.99,1.63.75.8,1.13,1.94,1.13,3.4,0,.88-.14,1.68-.43,2.41s-.69,1.37-1.22,1.91c-.53.54-1.16.96-1.91,1.25-.74.29-1.56.44-2.46.44h-8.18v-21.3ZM255.03,301.34c1.08,0,1.9-.21,2.46-.63.56-.42.84-1.11.84-2.09v-1.1c0-.98-.28-1.67-.84-2.09-.56-.42-1.38-.63-2.46-.63h-3.3v6.53h3.3ZM255.52,310.87c1.14,0,2.01-.23,2.62-.7s.92-1.22.92-2.26v-1.1c0-1.04-.31-1.79-.92-2.26-.61-.47-1.49-.7-2.62-.7h-3.78v7.02h3.78Z"/>
    <path class="cls-2" d="M272.03,292.19v13.11c0,.88.03,1.67.08,2.38.05.71.2,1.32.44,1.82.24.5.61.88,1.1,1.15.49.27,1.16.4,2.01.4s1.53-.13,2.01-.4c.49-.26.85-.65,1.1-1.15.24-.5.39-1.11.44-1.82.05-.71.08-1.51.08-2.38v-13.11h3.42v12.48c0,1.53-.09,2.86-.26,4.01-.17,1.15-.51,2.11-1.02,2.87-.51.76-1.23,1.34-2.15,1.72-.93.39-2.13.58-3.62.58s-2.69-.19-3.62-.58c-.93-.39-1.64-.96-2.15-1.72-.51-.76-.85-1.72-1.02-2.87-.17-1.15-.26-2.49-.26-4.01v-12.48h3.42Z"/>
    <path class="cls-2" d="M293.11,313.49h-3.39v-21.3h7.97c2.03,0,3.59.57,4.65,1.71,1.07,1.14,1.6,2.7,1.6,4.69,0,1.62-.4,2.96-1.19,4.02s-1.93,1.71-3.42,1.95l4.91,8.94h-3.78l-4.52-8.64h-2.84v8.64ZM297.2,302.14c2.12,0,3.17-.97,3.17-2.91v-1.32c0-1.94-1.06-2.91-3.17-2.91h-4.09v7.14h4.09Z"/>
    <path class="cls-2" d="M320.95,310.56h-.21c-.18.43-.4.84-.66,1.24-.25.4-.57.75-.95,1.05-.38.3-.83.55-1.36.73-.53.18-1.14.27-1.83.27-2.22,0-3.89-.95-5.01-2.84-1.12-1.89-1.68-4.57-1.68-8.03s.64-6.39,1.92-8.3c1.28-1.91,3.25-2.87,5.89-2.87,1.04,0,1.95.14,2.73.42.78.28,1.45.66,2,1.13.55.47,1.01,1.03,1.37,1.67.37.64.66,1.32.88,2.03l-3.08,1.04c-.16-.47-.35-.91-.55-1.33-.2-.42-.45-.79-.75-1.11-.29-.33-.65-.58-1.07-.76-.42-.18-.92-.27-1.51-.27-1.49,0-2.56.58-3.22,1.73-.66,1.15-.99,2.71-.99,4.66v3.39c0,.98.07,1.88.21,2.69.14.82.38,1.51.72,2.09.34.58.77,1.03,1.31,1.36s1.2.49,1.97.49c1.24,0,2.19-.37,2.85-1.11.66-.74.99-1.69.99-2.85v-1.92h-4.12v-2.56h7.23v10.9h-3.11v-2.93Z"/>
  </g>
  <path class="cls-1" d="M274.89,345.44c.08.81.16,1.62.23,2.43.01.13,0,.25-.01.38l-.05.28c-.11.66-.64,1.17-1.31,1.25l-1.96.23c-.08,0-.15.01-.23,0l-.63-.03c-.04.06-.09.12-.15.17l-.54.54c-.16.17-.37.29-.59.36l-.67.22c.02.09.02.18.02.27v.65c0,.58-.33,1.11-.85,1.35l-.59.28c-.2.1-.42.15-.65.15-.14,0-.27-.02-.41-.06l-.3-.09c-.08-.02-.16-.05-.23-.09-.14.02-.29.02-.43,0l-.64-.1c-.41-.06-.78-.3-1.01-.64l-.32-.47s-.05-.08-.07-.12l-.47-.08c-.11-.02-.21-.05-.31-.09l-.48-.19c-.08-.03-.16-.07-.23-.12l-.55-.34c-.09-.06-.18-.13-.26-.21l-1.16-1.15-.61-.25c-.08-.03-.14-.08-.21-.12l1.41-.98-1.06-3.21.45.34c.13.1.24.21.33.34l.3.43c.04.06.08.13.11.19l.2.4.49.2c.18.07.34.18.48.32l1.25,1.24.5.27.22.04h.5s0,0,0,0c.43,0,.83.18,1.12.5l.15.16c.02-.25.1-.5.24-.72l.12-.18c.09-.14.21-.27.35-.38l.66-.51c.38-.3.88-.38,1.33-.25.16-.46.54-.82,1.03-.95l.4-.11c.15-.04.3-.06.45-.05l1.32.05.45-.05c-.03-.35-.07-.71-.1-1.06l-.04-.12c-.25-.23-.42-.55-.47-.91l-.42-3.29-.38-1.6-.47-1.38c-.02-.07-.04-.15-.06-.22l-.13-.75-.87-3.65-.14-.22c-.17-.26-.25-.57-.24-.89v-.12s-3.25-9.91-3.25-9.91c-.02-.06-.04-.12-.05-.18l-.75-3.82c.41.03.84.05,1.28.05.62,0,1.2-.04,1.77-.1l.63,3.19,3.32,10.08c.05.15.07.3.08.45h0c.08.13.14.27.18.41l.21.73.91,4.06.47,1.36c.02.06.04.12.05.18l.39,1.61c.02.06.03.12.04.18l.34,2.71c.11.14.2.3.25.47l.28.89c.03.1.05.2.06.31ZM230.95,341.28l.85.21.4.16.37.45s0,0,0,0l.3-.93-5.47-3.04v-1.31l-.33-.13s-.04-.06-.06-.08l-.32-.4c-.11-.14-.24-.25-.39-.35l-.81-.49-.29-.35c-.07-.09-.16-.17-.25-.24l-.17-.13c-.25-.19-.56-.3-.87-.3h-.26c-.16,0-.31.01-.46.05-.29-.07-.59-.05-.87.06-.25-.09-.53-.1-.8-.05h-.03s-.57-.4-.57-.4c-.31-.22-.68-.31-1.04-.27-.23-.15-.51-.23-.79-.24h-.71c-.15-.02-.29,0-.43.04l-.04-.03c-.22-.13-.47-.21-.73-.22l-.52-.02.04-.13c.07-.23.09-.46.06-.7l-.07-.42c-.02-.1-.04-.2-.08-.29l-.34-.93c-.06-.16-.14-.3-.25-.43l-.36-.44c-.21-.25-.49-.43-.81-.5l-.56-.14-.29-2.05c-.01-.09-.04-.19-.07-.28l-1.2-3.41-.39-1.58-.43-1.43c-.05-.18-.14-.35-.26-.49l-.44-.55s-.07-.08-.11-.12l-.45-.46-.26-.32h-2.1v-.56c-.64.19-1.32.33-2.01.43l.45.36,1.6,2s.07.09.11.13l.45.46.21.27.33,1.08.38,1.58s.03.1.04.14l1.18,3.34.28,2.02c0,.06.02.11.03.17l.2.77c.12.46.45.84.89,1.02l.71.29c.07.03.14.05.21.07l.21.05.12.32-.1.16c-.04.06-.07.12-.1.18l-.19.42c-.13.29-.16.62-.09.93l.08.36c.07.33.26.63.52.84l.62.5c.2.16.45.27.71.31l.57.09c.15.02.3.02.45,0l.27-.04c.15.14.33.24.53.31l.18.06c.27.09.56.1.84.03l.19-.05c.06-.02.12-.04.18-.06.23.31.58.52.98.58.24.04.49.01.72-.07l.19.13c.34.24.77.33,1.18.25l.12-.03c.05.02.11.04.17.05l.29.07c.23.06.48.06.71,0l.24-.06c.13.01.26.01.38,0,.1.11.21.2.33.27l.51.31c0,.36.14.71.39.99.22.24.5.4.81.46l.03.07c.19.53.66.9,1.21.98l.31.29c.07.07.15.13.23.18l.33.21c.16.1.34.17.52.2l.39.07c.28.05.56.02.82-.08l1.1-.44.25.13c.11.06.22.1.34.13ZM373.12,177.2l-.09.34c-.08.33-.28.62-.55.83l-.22.17c-.07.05-.14.1-.21.13.07.08.13.16.18.25l.25.41c.2.33.26.72.18,1.09l-.03.15c-.02.1-.05.2-.09.29l-.16.36c-.07.17-.18.32-.31.45l-.21.21.1.33c.02.07.03.14.04.21l.05.37c0,.05.01.1.01.16v.39c.02.07.01.13,0,.2l-.03.29c0,.06-.02.12-.03.18l-.12.56c-.02.11-.06.21-.1.31l-.8,1.72-.12,1.32c-.02.19-.07.37-.15.53l-.24.49c-.08.17-.2.32-.34.45l-.69.66-.3,1.71c-.05.58-.44,1.08-1,1.28h-.01s0,0,0,0l.09.15c.1.18.17.39.19.6l.05.52.28.67c.04.09.07.18.09.28l.05.26c.03.14.04.27.03.41l-.05.62c-.01.16-.05.31-.11.46l-.19.46c-.04.11-.1.21-.17.31l-.57.8-.19.39-.02.21.14,1.03.18.15s.08.07.12.11l.44.46c.19.19.32.43.38.69l.18.73c.05.21.06.43.02.65l-.07.34c-.01.07-.03.14-.06.21l-.13.37.1.15c.07.1.12.21.16.33l.07.21c.03.08.05.16.06.24l.19.92c.02.08.04.16.05.25l.05.52c.01.14,0,.28-.02.42l-.14.76c-.02.14-.07.27-.13.39l-.07.15c.2.49.12,1.06-.21,1.48l-1.47,1.87-.43.9c-.21.62-.8,1.03-1.44,1.03h-.36s0,0,0,0l-.12.32s-.04.1-.07.15l-1.36,2.64-.21,1.46.06.25,1.39,1.33c.12.11.22.24.29.39l.52.98c.26.5.22,1.11-.11,1.57l-.43.6c-.24.34-.62.57-1.04.62l-.32.04c-.17.02-.34.01-.51-.02l-.67-.15-3.18.1-.4.07-.96.35-.69.36-2.3,1.46c-.06.04-.13.08-.2.11l-3.36,1.47-8.73,4.5-.75.61-.49.65.09,1.39c.03.48-.17.95-.55,1.25l-4.65,3.79s-.06.04-.08.06l-1.55,1.09-3.46,2.69-.83.82c-.12.12-.26.22-.42.29l-.42.2s-.03.09-.06.13l-.2.43c-.09.19-.22.36-.38.49l-2.03,1.75c-.06.05-.13.1-.2.14l-.58.36-1.33,1.62s-.08.1-.13.14l-1.5,1.42c-.05.05-.1.09-.16.13l-.32.23c-.19.14-.41.23-.64.26l-.6.13-1.76,1.37-3.29,2.33c-.05.04-.11.07-.17.11l-1.22.64c-.09.05-.18.08-.28.11l-.27.08-4.75,3.21s-.08.05-.12.08l-1.86,1.01c-.1.05-.21.1-.32.13l-2.63.73-1.47,1.25c-.13.11-.28.2-.44.26l-1.48.56-1.69,1.13s-.1.06-.15.09l-1.12.57c-.07.05-.15.09-.23.13-.07.06-.14.12-.22.17l-.15.09-.44.42c-.19.28-.47.48-.79.58l-.32.1-.44.48c-.06.07-.13.13-.2.18l-.47.35c-.06.04-.12.08-.18.12l-.71.39v.27c-.02.12-.04.24-.07.36l-.08.26c-.04.12-.09.24-.15.34l-.14.23c-.12.36-.38.66-.71.84l-2.07,1.11c-.09.05-.19.09-.3.12l-.71.2-.6.42-1.49,1.37c-.08.08-.18.14-.28.2l-2.47,1.4-.54.62c-.06.07-.13.13-.2.19l-1.45,1.15-.61.62-.15.23-.14.4c-.2.57-.73.96-1.33,1l-1.98,2.37-1.09,1.76c-.03.05-.07.1-.11.15l-.94,1.16-.54.86s0,0,0,0h-3.27l.04-.07c-.01-.31.07-.63.26-.91l.99-1.53c.04-.06.08-.12.12-.17l.94-1.17,1.1-1.77c.04-.06.08-.12.12-.17l2.49-2.98s.06-.07.09-.1l.48-.48c.14-.14.29-.24.46-.32l.05-.07c.05-.08.11-.15.18-.22l.78-.79s.09-.08.14-.12l1.42-1.12.61-.7c.11-.13.24-.23.39-.32l2.55-1.44,1.43-1.32s.1-.08.15-.12l.89-.63c.14-.1.29-.17.45-.22l.8-.23,1.51-.81-.04-.67c-.04-.58.27-1.13.78-1.41l1.71-.99.62-.67c.18-.19.4-.34.66-.41l.21-.07c.06-.07.13-.14.2-.2l.54-.44c.05-.07.11-.14.18-.2l.09-.09c.1-.1.22-.18.35-.24l.12-.06c.12-.06.25-.1.38-.13l1.03-.52,1.76-1.18c.09-.06.2-.12.3-.16l1.4-.53,1.53-1.3c.17-.14.36-.25.57-.3l2.79-.77,1.65-.9,4.89-3.3c.13-.09.27-.15.42-.2l.35-.1,1-.53,3.15-2.24,1.85-1.45c.1-.08.21-.14.32-.19l.5-.22c.12-.05.24-.09.37-.11l.28-.04,1.32-1.25,1.43-1.74c.11-.13.23-.24.38-.33l.7-.43,1.65-1.47c.02-.56.35-1.1.86-1.34l.94-.44.71-.7s.09-.08.13-.12l3.59-2.79,1.57-1.1,4.01-3.27-.07-1.18c-.02-.36.08-.71.3-1l.94-1.23c.07-.1.16-.18.25-.26l1.01-.82c.08-.06.17-.12.26-.17l8.95-4.61,3.34-1.46,2.26-1.43s.07-.04.11-.06l.83-.43c.06-.03.11-.05.17-.08l1.18-.44c.09-.03.18-.06.27-.07l.64-.11c.07-.01.13-.02.2-.02l2.41-.08-.55-.53c-.22-.21-.37-.47-.43-.76l-.21-.96c-.04-.17-.05-.36-.02-.53l.28-1.98c.02-.17.07-.33.15-.48l1.58-3.16.06-.43c.11-.81.85-1.39,1.66-1.3l.28.03.16-.04.21-.44c.05-.1.1-.19.17-.27l1.01-1.29c-.01-.11-.01-.22,0-.33l.03-.3c.02-.17.07-.34.14-.5l.24-.49.06-.35-.02-.19-.09-.34c-.01-.05-.02-.1-.03-.15l-.07-.43-.18-.28c-.09-.13-.15-.28-.19-.43l-.09-.32c-.04-.17-.06-.34-.04-.52l.03-.37c.01-.12.04-.24.08-.36l.17-.48-.1-.1-.39-.33c-.17-.14-.31-.32-.41-.53l-.23-.49c-.06-.14-.1-.28-.12-.43l-.19-1.44c-.02-.11-.02-.22,0-.34l.06-.64c.02-.17.06-.34.14-.5l.36-.75c.04-.08.08-.16.14-.23l.57-.84v-.13s-.31-.77-.31-.77c-.08-.18-.11-.37-.12-.56-.06-.07-.11-.14-.16-.23l-.09-.16c-.12-.21-.19-.45-.2-.69l-.03-.65c0-.2.02-.39.09-.58l.22-.59c.07-.19.18-.36.31-.51l.41-.44c.09-.09.18-.17.29-.24l.23-1.21c.02-.09.04-.18.08-.27l.21-.53c.09-.21.22-.41.39-.56l.7-.63.12-1.29c.02-.17.06-.34.13-.5l.84-1.81.08-.41-.03-.4-.15-.51c-.02-.06-.03-.11-.04-.17l-.06-.36c-.04-.21-.03-.42.03-.63l.09-.35c.05-.21.15-.4.29-.57l.17-.21-.35-.49c-.08-.11-.14-.22-.18-.34l-.28-.73c-.22-.57-.07-1.21.37-1.62l.39-.37s.08-.07.12-.1l-.37-.53c-.21-.3-.3-.66-.26-1.02l.04-.36c.02-.18.07-.36.16-.52l.11-.21v-.31c-.14-.01-.34-.05-.46-.1-.13-.05-.32-.14-.43-.22-.03-.02-.14-.11-.17-.13l-.09-.08c-.08-.07-.15-.14-.21-.22l-.09-.11c-.09-.11-.16-.24-.21-.37l-.07-.17c-.03-.09-.06-.18-.08-.27l-.13-.66s-.05-.07-.07-.11l-.1-.17c-.05-.09-.1-.18-.13-.27l-.08-.22s-.03-.09-.04-.14l-.03-.11-.14-.14-.68-.51c-.08-.06-.16-.14-.23-.22l-.13-.15c-.06-.07-.12-.15-.17-.24l-.1-.18c-.07-.13-.13-.26-.16-.41l-.08-.35c-.04-.15-.05-.31-.03-.47l.02-.23c0-.07.02-.15.04-.22l.05-.19s.02-.09.04-.13l.06-.17-.08-.08s-.07-.08-.11-.12l-.3-.36c-.07-.09-.14-.18-.19-.29l-.11-.21c-.03-.06-.06-.13-.08-.19l-.09-.28c-.02-.05-.03-.11-.04-.16l-.03-.13s-.07-.03-.11-.05l-.13-.07c-.08-.04-.16-.09-.24-.15l-.11-.09c-.13-.1-.24-.22-.33-.35l-.09-.14c-.03-.05-.07-.1-.09-.16l-.07-.15c-.04-.09-.08-.18-.11-.27l-.07-.26c-.05-.17-.06-.35-.05-.52v-.09s-.11-.07-.11-.07c-.05-.03-.1-.06-.14-.09l-.27-.19c-.06-.05-.12-.1-.18-.15l-.8-.79s-.07-.07-.1-.11l-.3-.36s-.08-.1-.11-.15l-.18-.29s-.06-.1-.08-.15l-.09-.19c-.03-.06-.05-.11-.07-.17l-.11-.31c-.03-.09-.05-.19-.07-.29l-.03-.25c-.01-.08-.01-.16-.01-.24v-.22c.01-.11.03-.21.05-.32l.09-.34c.02-.07.04-.15.07-.22l.05-.17v-.86s0-.09,0-.14l.03-.3c0-.06.01-.11.02-.17l.02-.09c-.04-.06-.07-.12-.1-.19l-.11-.24c-.03-.06-.05-.11-.07-.17l-.12-.38c-.02-.05-.03-.1-.04-.15l-.24-1.16-.62-.81c-.05-.06-.09-.12-.12-.19l-.22-.41c-.03-.05-.05-.1-.07-.16l-.19-.44-.17-.26-.29-.34-.51-.47-.79-.35s-.09-.04-.13-.06l-.13-.07c-.06-.03-.11-.07-.16-.1l-.13-.09c-.07-.05-.14-.11-.2-.18l-.11-.11c-.07-.08-.14-.16-.19-.25l-.67-.95c-.06-.03-.12-.06-.17-.1l-.4-.26c-.09-.06-.17-.12-.24-.2l-.16-.16c-.1-.1-.19-.22-.26-.34l-.07-.12c-.03-.05-.05-.1-.07-.16-.06-.15-.12-.38-.13-.55-.98-18.66-1.85-34.38-2.84-50.16-.03-.02-.07-.04-.1-.06l-.1-.06c-.07.02-.15.03-.23.04l-.57.06c-.15.01-.31,0-.46-.02l-.54-.11c-.13-.03-.26-.07-.38-.14l-.17-.09s-.09.06-.13.08l-.36.2c-.42.23-.91.25-1.34.05l-.39-.18c-.04.06-.09.12-.14.18l-.27.3c-.41.46-1.06.61-1.62.4-.27.12-.58.17-.88.12l-.51-.09c-.4-.07-.75-.29-.98-.62l-.17-.24-.24-.06c-.22-.05-.42-.16-.59-.3l-.53-.44c-.21-.18-.37-.41-.46-.67l-.12-.36h-.3c-.09,0-.18,0-.27-.02-.22.04-.44.03-.66-.04l-1.32-.38c-.07-.02-.15-.05-.22-.08l-.42-.19c-.06-.03-.12-.06-.17-.09h-.01c-.55.12-1.12-.07-1.48-.5l-.03-.02c-.07.03-.13.06-.21.08l-.18.05c-.32.1-.65.08-.96-.04l-.16-.06c-.23-.09-.43-.23-.59-.41l-.04-.05-.2-.09c-.26-.12-.48-.31-.64-.56l-.15-.24c-.06,0-.12-.02-.17-.03l-.61-.16-1.72-.22c-.3-.04-.58-.17-.81-.37l-1.08-.96c-.11-.1-.21-.21-.28-.34l-.35-.54c-.23-.08-.43-.22-.59-.4l-.18-.2c-.13-.15-.24-.32-.3-.51h-.3c-.14.01-.27,0-.41-.04l-.42-.11c-.15-.04-.29-.1-.41-.18l-.45-.28c-.08-.05-.16-.11-.23-.17l-.94-.84-.6-.11c-.33-.06-.64-.24-.86-.5l-.16-.19c-.06-.07-.11-.14-.16-.22l-.74-.22c0,.15-.04.31-.09.45l-.13.36c-.15.4-.46.72-.86.88-.13.05-.26.08-.4.1-.07.04-.14.08-.21.12l-.33.19c-.07.05-.15.09-.22.12-.08.12-.17.22-.28.31l-.11.09c-.08.07-.17.13-.27.18l-.18.09c-.14.07-.29.12-.44.15l-.24.04c-.08.01-.16.02-.24.02l-2.31.05c-.38.08-.77,0-1.09-.2-.32.11-.67.1-.99-.02-.2-.08-.39-.19-.54-.34h-.01c-.25.01-.5-.05-.72-.16l-.35-.18c-.36-.18-.61-.49-.74-.84-.2.09-.42.15-.66.14h-.21c-.06,0-.12-.01-.19-.02l-.2.12c-.11.06-.23.11-.35.15l-.15.08-.07.09c-.31.41-.79.64-1.3.59h-.05c-.07.35-.26.67-.55.89l-.29.23c-.39.3-.91.39-1.38.24-.09.04-.17.06-.27.08l-.77.16c-.21.04-.43.04-.64,0l-.32-.07c-.15-.03-.29-.09-.42-.17l-1.16-.67c-.22.19-.49.32-.78.36l-.41.31c-.08.06-.17.12-.26.16l-.91.44c-.13.06-.28.11-.43.13l-.39.06c-.05,0-.11.01-.16.02l-1.17.05-.35.21s-.07.04-.11.06l-.26.67c-.03.07-.06.14-.1.21l-.26.44c-.11.19-.27.36-.45.49l-.5.34c-.19.13-.4.21-.62.25l-.5.07c-.11.02-.23.02-.34.01l-.5-.04-.06.34c-.07.36-.27.69-.56.91l-.74.57c-.57.44-1.38.41-1.91-.07l-.85-.76c-.09-.08-.17-.17-.23-.26l-.99-1.37-1.5.13c-.26.02-.52-.02-.76-.13l-.21-.1c-.33-.15-.6-.42-.74-.76l-.11-.26s-.04-.09-.05-.14h-.02s-1.02-.29-1.02-.29c-.26-.07-.49-.21-.67-.39l-.49-.5c-.06-.06-.11-.13-.16-.2-.05.07-.11.14-.18.2l-.12.11c-.11.1-.23.18-.36.25l-.2.1c-.07.04-.15.07-.23.09l-.28.09c-.07.02-.13.04-.2.05l-.53.09c-.09.01-.19.02-.28.02h-.3c-.05,0-.11-.01-.16-.02l-.24-.03c-.18-.02-.35-.08-.51-.16l-.15-.08c-.06-.03-.11-.07-.17-.1l-.51-.36-.59.1c-.11.02-.22.02-.33.02h-.26c-.12-.02-.24-.04-.36-.08l-.2-.06c-.15-.04-.29-.11-.42-.2l-.13-.09c-.07-.05-.14-.1-.2-.16l-.34-.34c-.08-.08-.15-.16-.21-.25l-.18-.27c-.04-.07-.08-.14-.12-.22l-.14-.32c-.04-.1-.08-.2-.1-.3h0c-.02.13-.06.28-.12.41l-.4.91c-.04.1-.1.19-.16.28l-.42.57c-.18.25-.43.43-.72.53-.02.13-.06.26-.12.38l-.11.24c-.11.24-.29.45-.51.59l-.02.45c0,.11-.02.22-.05.33l-.23.85c-.06.23-.18.44-.34.62l-.49.55c-.26.29-.63.47-1.02.49l-.87.05c-.3.02-.61-.06-.87-.21l-.65-.4c-.16-.1-.3-.22-.42-.37l-.56-.73c-.07-.09-.13-.19-.17-.29l-.39-.86c-.05-.1-.08-.21-.1-.32l-.16-.79c-.02-.08-.03-.16-.03-.24,0,0-.02,0-.03,0-.35.05-.69-.03-.98-.21l-.07.07c-.08.08-.17.16-.27.22l-.16.11s-.09.09-.14.12l-.21.17c-.12.1-.26.17-.41.23l-.31.11c-.12.04-.25.07-.38.08l-1.77.16c-.32.03-.63-.04-.91-.21l-.45-.27c-.34-.2-.58-.53-.68-.92l-.19-.76c-.02-.06-.03-.13-.04-.19v-.07s-1.48.13-1.48.13c-.3.03-.61-.04-.87-.19l-.41-.23c-.28-.16-.51-.41-.64-.71l-.26-.61c-.08-.19-.12-.39-.12-.6v-.6s-.12.04-.12.04l-.67.57-2.25,2.37c-.09.09-.18.17-.29.24l-1.07.67c-.16.1-.33.17-.51.2l-1.2.23c-.24.05-.49.03-.72-.04l-1.18-.36c-.08-.02-.16-.06-.23-.09l-.64-.32c-.18-.09-.34-.21-.47-.37l-.27-.32c-.27-.32-.4-.74-.35-1.16l.16-1.09s.02-.09.03-.13l.08-.32c-.06-.11-.1-.23-.12-.35l-.26-.09-1.25-.23c-.13-.02-.25-.06-.37-.12l-1.05-.5c-.49-.24-.82-.72-.85-1.26l-.06-.97-.13-.58c-.03-.15-.04-.31-.03-.46l.02-.19-.32.12c-.1.04-.21.07-.32.08l-.84.12c-.12.02-.25.02-.37,0l-3.35-.37-.02.03-.23.45c-.03.06-.07.12-.11.18l-.41.62c-.2.42-.59.73-1.06.82l-.66.13c-.09.02-.18.03-.27.03l-1.37.03c-.26.01-.54-.06-.77-.2l-.42-.24c-.14-.08-.27-.19-.38-.31l-.81-.91-.19-.13c-.06-.04-.13-.09-.18-.15l-.19-.18c-.11-.1-.2-.22-.27-.35l-.19-.32-.36-.07-.3.06-1.68.72c-.41.18-.88.16-1.28-.05l-.15-.08-3.24-.67c-.06-.01-.12-.03-.18-.05l-.56-.19c-.11-.04-.22-.09-.32-.16l-1.84-1.18-.31.13c-.11.05-.22.08-.34.1l-.58.1c-.14.03-.29.03-.43.01l-.55-.07c-.09-.01-.17-.03-.26-.05l-.92-.28-.3-.04-1.14.06c-.12,0-.24,0-.36-.03l-.62-.12c-.24-.05-.46-.15-.65-.3l-.48-.38c-.27-.22-.46-.52-.54-.86l-.11-.53c-.02-.08-.03-.16-.03-.24l-.09-1.78c0-.12,0-.24.03-.36l-.64-.56c-.15-.13-.26-.28-.35-.46l-.26-.52c-.04-.08-.07-.17-.1-.26l-.07-.24h-.11c-.07-.01-.15-.02-.22-.04l-.28-.06c-.11-.02-.21-.06-.31-.1l-.16-.07-.18.44c-.14.34-.4.61-.73.77l-.41.2c-.25.12-.52.17-.8.14l-.65-.06c-.14-.01-.27-.05-.4-.1l-.57-.23c-.06-.02-.11-.05-.16-.08l-.81-.44-.49-.07h0c-.06.07-.12.13-.19.19l-.19.16c-.15.12-.32.21-.5.27l-.5.16c-.19.06-.39.08-.6.07l-1.66-.15c-.11,0-.21-.03-.31-.06l-.5-.16c-.25-.08-.47-.22-.65-.41l-.35-.38c-.06-.06-.11-.13-.16-.2l-.44-.67-4.35-4.14-.26-.05c-.18-.03-.35-.1-.5-.19l-.03-.02-1.35.18c-.42.05-.85-.09-1.16-.37-.32-.28-.5-.69-.5-1.12-.01-7.54-.03-15.09-.05-22.63-.03-13.13-.07-26.26-.08-39.38h-.16c-25.92,0-52.16-.35-77.98-1.03-.89,27.9-1.76,55.75-2.63,83.6-.66,21.03-1.31,42.05-1.98,63.08-.03.81-.69,1.45-1.5,1.45-.01,0-.03,0-.04,0-33.3-.92-66.48-2.33-98.67-4.21l.1.64c0,.05.01.11.02.16l.02.58.07.23.53.88c.12.19.18.4.21.61.1.05.2.1.29.17l.35.26c.09.07.17.14.25.23l1.25,1.47.93-.03c.24-.01.47.04.68.14l1.02.48c.18.09.35.21.48.36l.88.98c.07.08.13.16.18.25l.69,1.2c.03.06.06.11.09.17l.47,1.14c.03.06.05.13.07.19l.57,2.14.16.33,1.02,1.35c.06.08.11.17.16.26l.25.52c.03.07.06.14.08.22l.1.33h0s.56.37.56.37c.19.12.34.28.46.47l.04.06.17.08,1.07.37c.13.04.25.11.36.18l1.04.67.51.08c.12.02.24.06.36.11l.45.2c.11.05.22.11.32.19l1.18.92s.09.08.14.12l.34.34c.09.09.17.2.24.31l.18.3c.06.1.1.21.14.32l.09.29.15.1c.05.03.1.07.15.11l.31.26s.06.05.09.08c.15.06.29.15.41.26l.49.44c.07.06.13.13.19.21l2.04,2.66c.12.15.21.33.26.52l.11.42,1.68,1.22.33.15c.1.05.2.1.29.17l.19.15c.11.08.2.17.29.28l.55.71.35.29.4.25c.07.04.14.1.21.15l.41.37c.14.13.26.29.35.46l.32.65c.04.09.08.19.1.28l.25.95.29.16c.18.1.34.24.46.41l.81,1.08,2.08,1.77c.09.08.18.17.25.27l.95,1.33.49.15c.1.03.19.07.28.12l1.59.88c.11.06.2.13.29.21.3-.07.62-.04.91.09l.22.09c.16.04.31.1.45.18l.2.12c.2.12.38.3.5.5.07.02.13.05.19.08l.21.1c.27.13.5.34.65.6l.08.14c.29.09.55.27.74.52l1.11,1.39.38.1c.11.03.23.07.33.13l.6.32c.09.05.18.11.26.18l.53.46c.11.09.21.2.28.32l.34.52c.1.16.17.34.21.52l.07.34s0,.05.01.07l.22.04c.2.04.39.12.56.23l.19.12c.24.16.43.39.54.66l.08.18.69.87c.06.08.11.16.16.25l.3.59c.07.13.11.27.14.41l.06.33c.01.07.02.15.02.22v.22c.15.12.26.26.35.42l.1.18c.15.27.21.58.18.88l-.02.2c-.02.16-.06.32-.13.47v.02c.11.16.17.34.2.53l.05.33c.02.13.02.26,0,.39l-.03.25.08.05c.17.11.31.24.42.41l.16.23c.12.17.2.37.24.57l.05.28c.01.07.02.15.03.22l.09.06c.21.15.39.35.5.59l.38.81s.04.09.06.14l.4,1.06.24.13c.14.08.27.18.39.3l.25.28c.12.13.21.27.28.43l.43,1.03.28.38c.17.23.27.5.29.79l.05.75c0,.08,0,.16,0,.23l-.1,1.19c0,.06-.01.11-.02.17l-.15.75c-.02.08-.04.16-.07.24l-.39,1.02-.06.35.02.48.42,1.69c.03.12.05.25.04.38v.28c0,.08-.01.15-.02.23l-.02.13.15.2c.07.09.13.19.18.29l.07.16c.02.05.05.11.06.17l.03.1.36.48c.13.17.22.37.27.58l.3,1.41.25.31.39.33c.09.08.17.17.24.27l.36.51c.14.2.23.42.26.66l.17,1.16.37.76c.02.05.05.1.07.16l.17.48c.04.12.07.25.08.38l.04.47s0,.08,0,.12l.03.03,1.19.9c.06.05.12.1.18.16l.39.41c.13.14.24.3.31.48l.08.21s.03.09.05.14h0l2.19,1.52s.05,0,.07,0h.8c.14.02.29.04.43.08l.73.23c.31.1.58.29.76.55l.32.45.45.33c.16.07.3.17.42.3l.18.18c.15.15.26.32.34.51l.38.97.68.82.4.36.81.44c.16.09.31.21.43.35l1.17,1.39.75.46,2.37.91,1.64.4,1.9.18c.11.01.22.03.33.07l.3.1c.21.07.4.18.55.33l.27.25c.17.16.29.35.37.56l.13.33c.07.17.1.35.1.54.02.01.03.03.05.04l1.2,1.1.53.32,2.11.59.55-.02c.15,0,.29.01.43.05l.23.06c.21.06.41.16.57.3l.24.2c.18.15.32.34.42.55l.1.22c.03.06.05.13.07.2v.03s1.16,1.22,1.16,1.22l1.09.6c.15.05.28.12.4.21l.25.19c.07.05.13.11.19.17l.14.15c.1-.04.21-.08.32-.09l.26-.05c.45-.08.9.05,1.24.33.37,0,.74.16,1.01.43.15.15.27.33.35.53h.56c.15,0,.29.03.43.07l1.48.46.44.08.04-.08.13-.9c.07-.47.34-.87.74-1.09l.11-.22c.09-.2.23-.37.4-.51l.24-.2c.09-.07.19-.14.29-.19l1.06-.57.78-1.52c.08-.16.19-.3.32-.43l.55-.5c.38-.35.91-.47,1.4-.34l.32-.23c-.09-.21-.14-.45-.13-.68l.02-.4c0-.14.03-.28.08-.41l.36-1.06.02-.4c0-.08.01-.16.03-.23l.07-.34c.05-.23.15-.44.29-.63l.18-.23c.08-.1.17-.19.27-.26l.35-.27s.03-.02.04-.03v-.04c.04-.2.12-.39.23-.56h0s-.02-.09-.03-.14l-.06-.38c-.02-.16-.02-.32,0-.47l.07-.44c.02-.15.07-.3.14-.43l.16-.31c.03-.06.06-.12.1-.17l.11-.16.92-2.26c.05-.12.11-.23.19-.33,0-.26.07-.52.2-.74.03-.54.35-1.05.88-1.29l.03-.05c.03-.1.07-.2.11-.28l.49-.88c.04-.08.1-.16.15-.22.03-.1.08-.21.14-.3l.78-1.35.03-.2c.01-.09.03-.18.06-.27l.08-.24c.07-.22.19-.41.35-.58l.22-.23c.25-.25.58-.41.94-.45l.21-.02c.07,0,.14,0,.21,0l.88.04.11-.02.85-.45c.06-.03.12-.06.18-.08l.54-.2c.26-.1.53-.12.79-.07.15-.13.32-.23.51-.29l.22-.07c.2-.07.41-.09.62-.07l2.24.23.14-.19.06-.67c.01-.13.04-.26.08-.38l.12-.32c.08-.22.21-.41.37-.57l.22-.21c.18-.18.41-.3.65-.37.13-.27.34-.5.61-.65l.27-.15c.35-.2.78-.25,1.17-.13l.54.16c.24.07.47.2.64.39l.1.1c.31-.01.62.07.89.23.25.16.45.39.57.66l.34.04c.2.02.39.08.56.18l1.32.73c.1.06.19.12.28.2l.15.14.46.21,2.33-.21c.17-.01.34,0,.51.04.38-.26.87-.33,1.32-.18l.44.15c.19.06.36.16.5.29l.04.03s.06-.04.1-.05l.24-.11c.28-.13.58-.17.88-.12l.28.05c.08.01.17.04.25.06l.34.12h.25c.25-.15.54-.23.83-.21h.19c.49.02.93.28,1.19.67l3.75.59.89-.11c.04-.18.12-.36.23-.52l.1-.15c.39-.58,1.13-.8,1.78-.55l.2.08c.21.08.4.21.56.38l.21.22c.07.08.13.16.18.25.32-.1.67-.09.99.03l.24.09c.21.08.4.21.55.37.51-.2,1.09-.11,1.51.24.46.38.65,1.01.48,1.59v.02s.02.06.02.06l.42.68c.07.11.12.22.16.34l.16.51.25.56h.25c.3,0,.59.09.84.26l.24.17c.25.17.44.42.55.69l.38-.04c.45-.04.88.11,1.2.42l.42.41c.28.27.44.64.46,1.03l.03.86c0,.15-.01.3-.05.44l-.03.13c.08.04.16.09.23.15l.25.19c.1.08.19.17.27.27l.36.46.43.24,2.7.9c.39.14.71.45.87.84l.23.56c.06.13.09.28.11.42l.16,1.11.27.26,1.99.93c.14.06.27.15.38.25l.67.61c.07.06.13.13.18.2l.43.57,1.18.57c.09.04.17.09.25.15l.58.44c.11.08.2.18.28.28l.37.48c.05.07.1.14.14.21l.6,1.14c.18.34.22.74.12,1.12l1.01.84c.08.07.15.14.21.22.09.02.19.04.28.08l.27.11c.34.13.62.38.79.7l.23.44c.08.16.14.33.16.51l.21,1.7.47,1.12c.05.11.08.23.1.35l.11.68c.04.25.01.51-.08.76l.03.08c.05.12.08.24.1.36l.05.34h0s.07.07.11.1l.34.36c.16.17.28.38.35.6v.02s.07.04.09.06l.16.11c.26.18.46.44.56.75l.09.25s.01.03.01.05l.04.02c.19.12.36.27.49.46l.12.18c.05.07.09.15.13.24l.11.22c.05.06.09.13.12.2l.17.32c.06.11.1.23.13.35l.68,3.01.22.45.97,1.28c.14.18.23.4.28.62l.15.07c.1.05.19.11.27.17l.29.23c.22.17.38.4.48.65l.12.32c.07.2.1.41.09.61l-.04.63.04.06.18.12,1.04.42c.54.22.91.73.94,1.32.02.47-.17.91-.51,1.21.05.13.09.26.1.4l.12,1.13.17.76.64.84s.06.08.09.13l.44.73c.13.22.21.47.22.72l.02.54c0,.17-.02.35-.07.51v.03s.25.25.25.25l.49.09c.08.02.16.04.24.07l.2.07c.44.16.78.52.91.96l.09.28c.03.08.04.17.06.26.02.01.05.02.07.03l2.86,1.45c.15.07.28.17.39.29l.54.55c.17.17.29.38.36.6l.22.72c.04.12.06.25.07.38v.06s.16.15.16.15c.62.23,1.02.85.97,1.52v.18c-.02.08-.03.16-.05.23l.15.34.28.38.49.11c.18.04.35.11.51.22l.36.24c.33.22.57.57.64.97.05.24.03.49-.04.72l.35.38.22.1c.32.15.57.4.72.71l.07.15c.17.35.19.76.07,1.13l-.04.12s.02.03.03.04l.17.21h-3.44c0-.13.02-.25.05-.38l-.28-.27s-.1-.1-.14-.16l-.46-.59s-.07-.09-.1-.14l-.29-.49c-.06-.1-.11-.21-.15-.33l-.18-.07c-.24-.09-.45-.24-.61-.43l-.42-.5s-.07-.09-.1-.14l-.28-.42c-.04-.07-.08-.14-.12-.21l-.2-.44s-.03-.08-.05-.12l-.2-.56c-.05-.13-.08-.27-.08-.41-.05-.04-.09-.08-.13-.13l-.4-.44c-.13-.14-.23-.31-.29-.49l-.09-.24c-.05-.14-.08-.29-.09-.45v-.25s-.07-.19-.07-.19l-.11-.11-2.45-1.25-.27-.05c-.23-.04-.45-.14-.64-.29l-.25-.19c-.27-.21-.46-.5-.54-.83l-.07-.28c-.21-.04-.42-.13-.59-.25l-.5-.36c-.09-.07-.18-.14-.25-.22l-.5-.55c-.11-.12-.2-.26-.26-.41l-.27-.63c-.14-.33-.16-.7-.05-1.05l.09-.28-.18-.29-.79-1.04c-.13-.17-.22-.37-.27-.58l-.26-1.16c-.01-.05-.02-.11-.03-.16l-.08-.73s-.04-.05-.07-.08l-.21-.26c-.19-.23-.31-.52-.34-.82l-.03-.37c-.01-.12,0-.24.01-.36l-.17-.12c-.18-.12-.33-.29-.44-.47l-.39-.67c-.12-.2-.19-.42-.2-.65l-.03-.37c0-.06,0-.13,0-.2v-.12s-.2-.1-.2-.1c-.08-.04-.15-.08-.22-.13l-.33-.24c-.43-.31-.66-.81-.62-1.34l-.71-.94c-.06-.08-.11-.16-.15-.25l-.36-.73c-.05-.1-.09-.21-.11-.33l-.76-3.12s-.03-.05-.05-.07c-.13-.03-.25-.08-.37-.15l-.18-.11c-.29-.17-.51-.42-.64-.72l-.1-.24c-.06-.15-.1-.3-.11-.46-.08-.08-.16-.16-.22-.26l-.09-.12c-.09-.13-.15-.26-.2-.41l-.07-.19-.25-.18c-.13-.09-.23-.21-.33-.33l-.16-.22c-.18-.25-.27-.54-.28-.84v-.28c-.37-.41-.48-1-.29-1.52l.13-.34-.02-.11-.48-1.14c-.05-.13-.09-.26-.11-.4l-.16-1.3-.16-.04c-.36-.1-.68-.33-.88-.65l-.14-.22s-.02-.02-.02-.04l-1.27-1.05c-.16-.14-.3-.31-.39-.5l-.22-.45c-.17-.35-.2-.76-.07-1.13l.03-.09-.41-.68-.3-.22-1.23-.6c-.11-.05-.21-.12-.3-.19l-.23-.19c-.09-.08-.17-.16-.25-.26l-.47-.63-.4-.37-1.88-.88c-.06-.03-.13-.06-.19-.1l-.31-.2c-.08-.05-.16-.12-.23-.18l-.28-.27c-.05-.05-.1-.11-.15-.17l-.24-.32c-.06-.08-.11-.16-.15-.25l-.17-.34c-.05-.1-.09-.21-.11-.32l-.11-.46c-.01-.06-.02-.13-.03-.19l-.05-.5-.16-.06-1.86-.59c-.1-.03-.19-.07-.28-.12l-.83-.46c-.17-.1-.33-.23-.45-.39l-.41-.44c-.36-.04-.69-.21-.93-.48l-.28-.31c-.17-.19-.29-.42-.35-.66l-.11-.45c-.02-.1-.04-.21-.04-.31-.37.17-.79.19-1.17.04l-.32-.12c-.62-.24-1-.86-.95-1.52l.04-.46-.29-.15c-.13-.07-.25-.16-.36-.26l-.25-.25c-.09-.08-.16-.18-.22-.28l-.18-.3c-.03-.06-.07-.12-.09-.18l-.35-.79s-.04-.1-.06-.15l-.13-.41-.36-.58s-.05-.08-.07-.12l-.13-.18c-.21-.02-.42-.09-.61-.2l-.19-.11s-.02,0-.02.01l-.46.26c-.35.2-.77.25-1.16.13l-.6-.18c-.2-.06-.39-.16-.55-.3l-1.41.17c-.14.02-.28.02-.41,0l-4.65-.74c-.25-.04-.49-.14-.69-.3h0s-.91-.02-.91-.02c-.16,0-.32-.03-.47-.08l-.11-.04s-.06.03-.09.04l-.24.11c-.1.04-.2.07-.3.09l-.27.05c-.07.01-.15.02-.22.03h-.27c-.27.03-.54-.04-.78-.17l-.37-.2s-.01,0-.02,0c-.3.12-.64.15-.96.06l-.5-.13-2.46.22c-.26.02-.52-.02-.76-.13l-1.03-.47c-.14-.06-.27-.15-.39-.25l-.2-.18-.9-.5-.74-.08c-.19-.02-.38-.08-.55-.17l-.39-.21c-.19-.1-.34-.24-.47-.4-.14-.06-.28-.13-.4-.23h-.01c-.1.06-.21.12-.32.16l-.11.04-.02.28c-.01.12-.03.23-.07.34l-.11.33c-.05.14-.12.28-.21.41l-.66.93c-.29.54-.87.85-1.48.79l-2.41-.24s-.07.06-.11.09l-.17.13c-.07.08-.14.15-.2.2l-.1.07c-.19.15-.41.24-.65.28l-.19.03c-.34.06-.69,0-.99-.17l-.53.28c-.12.07-.26.11-.39.14l-.5.11c-.12.03-.25.04-.38.03h-.21c-.04.12-.09.24-.16.35l-.78,1.31-.09.28c-.08.27-.24.5-.45.68l-.17.31c-.03.09-.06.18-.1.25l-.29.54c-.06.12-.14.22-.23.32-.03.18-.1.36-.19.52h0c-.01.27-.1.54-.26.77l-.17.25c-.07.11-.16.21-.26.29l-.82,2.03c-.04.1-.09.19-.15.28l-.15.21.09.36c.04.14.05.29.05.44l-.02.39c0,.22-.06.43-.16.62.03.11.05.22.05.33v.14c.03.57-.26,1.11-.76,1.38l-.26.15c-.12.07-.25.12-.39.15v.12c-.01.14-.04.28-.08.42l-.23.67.11.08c.15.1.28.23.38.38l.26.38c.26.37.33.84.2,1.28s-.45.79-.87.96l-.32.13c-.1.04-.21.07-.31.09l-.44.08-.8.57c-.32.52-.9.79-1.48.71l-.49.96c-.04.07-.08.14-.13.21l-.25.34c-.08.11-.17.2-.28.29l-.24.19c-.08.06-.17.12-.26.17l-.87.43-.11.36c-.09.27-.25.51-.46.69l-.03.18c-.02.15-.07.3-.13.43l-.42.87c-.15.31-.39.56-.7.71l-.74.36c-.29.14-.61.18-.92.13l-1.13-.2c-.06-.01-.12-.03-.18-.04l-1.35-.42h-1.51c-.28-.01-.56-.09-.79-.24l-.42-.27c-.14-.09-.26-.2-.37-.33-.33.1-.69.08-1.02-.06l-.42-.18c-.18-.08-.35-.19-.49-.33l-.68-.69-.11-.04c-.1-.04-.2-.08-.29-.13l-1.22-.73c-.12-.07-.23-.16-.32-.26l-1.43-1.52c-.08-.08-.15-.18-.21-.28l-.13-.22h-.09c-.15.01-.31,0-.45-.05l-2.52-.71c-.13-.04-.25-.09-.36-.16l-.83-.5c-.09-.05-.17-.11-.25-.18l-1.15-1.05-.24-.08c-.21-.07-.4-.18-.55-.33l-.19-.18c-.3-.29-.47-.69-.47-1.09l-1.08-.1c-.07,0-.14-.02-.21-.04l-1.83-.45c-.06-.01-.12-.03-.18-.06l-2.59-.99c-.09-.03-.17-.07-.25-.12l-1.08-.66c-.14-.08-.26-.19-.36-.31l-1.15-1.36-.72-.39c-.11-.06-.21-.13-.29-.21l-.61-.55c-.05-.05-.1-.1-.14-.15l-.91-1.09c-.1-.12-.19-.26-.24-.41l-.3-.77s-.09-.06-.13-.09l-.67-.53c-.1-.08-.2-.18-.28-.29l-.2-.23h-.23s-.21.09-.21.09c-.69.33-1.52.09-1.92-.56l-.12-.19-2.03-1.38c-.08-.04-.16-.09-.24-.14l-.17-.12c-.23-.16-.4-.38-.51-.64l-.12-.29c-.02-.05-.04-.11-.06-.17l-.04-.14-.08-.09-1.22-.93c-.09-.07-.17-.15-.25-.23l-.39-.46c-.12-.14-.21-.31-.27-.49l-.11-.33c-.06-.17-.08-.34-.08-.52v-.25s0-.19,0-.19l-.08-.22-.43-.89c-.07-.14-.11-.29-.13-.44l-.19-1.1-.35-.3c-.07-.06-.13-.12-.18-.19l-.5-.62c-.1-.13-.18-.27-.24-.42l-.11-.28c-.02-.07-.04-.14-.06-.21l-.27-1.23-.31-.42c-.1-.14-.18-.29-.23-.45l-.06-.2-.23-.3c-.05-.06-.09-.13-.13-.19l-.11-.19c-.09-.16-.15-.34-.17-.52l-.04-.32c-.02-.15-.02-.3,0-.45l.06-.38-.41-1.63c-.02-.1-.04-.19-.04-.29l-.04-.79c0-.11,0-.22.02-.32l.11-.65c.02-.1.04-.19.08-.29l.4-1.05.11-.54.08-.99v-.19s-.14-.17-.14-.17c-.07-.1-.13-.2-.18-.31l-.38-.89-.21-.12c-.08-.05-.16-.1-.24-.16l-.2-.16c-.16-.13-.3-.3-.39-.49l-.32-.66c-.03-.05-.05-.11-.07-.17l-.47-1.23-.2-.14c-.08-.05-.15-.11-.21-.18l-.14-.15c-.23-.23-.37-.53-.41-.85l-.04-.33s0-.08-.01-.12c-.09-.07-.17-.15-.24-.23l-.2-.24c-.05-.06-.1-.13-.14-.2l-.22-.38c-.08-.13-.13-.27-.17-.41l-.04-.18c-.05-.23-.05-.46,0-.69l.04-.24-.08-.14c-.1-.17-.17-.36-.19-.56l-.05-.36c-.02-.17-.02-.34.02-.5-.17-.2-.28-.44-.32-.71l-.06-.33c-.01-.07-.02-.13-.02-.2l-.02-.58-.13-.26-.72-.92s-.03-.04-.05-.07l-.29-.06c-.07-.01-.15-.03-.22-.06l-.28-.1c-.34-.12-.62-.36-.8-.67l-.17-.3c-.09-.16-.15-.33-.18-.51l-.06-.36s-.01-.1-.02-.15v-.23s-.07-.09-.07-.09l-.25-.21-.3-.16-.35-.09c-.09-.02-.19-.06-.28-.1l-.53-.26c-.21-.1-.39-.25-.54-.44l-.66-.87c-.3-.08-.57-.26-.77-.51l-.05-.06s-.04-.02-.05-.03c-.29-.16-.52-.4-.65-.7l-.16-.07c-.19-.08-.35-.19-.49-.34-.09.02-.19.03-.29.03h-.15c-.24,0-.48-.06-.7-.17l-.29-.15c-.15-.08-.29-.18-.4-.31l-.17-.19c-.06-.06-.11-.13-.16-.2v-.02s-1.22-.67-1.22-.67l-.68-.21c-.22-.07-.41-.18-.58-.34l-.34-.32c-.07-.07-.14-.14-.19-.22l-.94-1.32-2.07-1.76c-.08-.07-.16-.15-.23-.24l-.72-.96-.42-.24c-.25-.14-.45-.35-.59-.6l-.25-.48c-.06-.1-.1-.22-.13-.33l-.27-1.04-.22-.34-.37-.23c-.06-.04-.11-.08-.17-.12l-.55-.46c-.08-.07-.16-.14-.22-.23l-.49-.62-.25-.11c-.09-.04-.18-.09-.27-.15l-2.07-1.5c-.17-.12-.32-.28-.42-.47l-.25-.44c-.06-.11-.11-.23-.15-.35l-.09-.32-1.97-2.48-.23-.09c-.3-.12-.55-.34-.71-.61l-.37-.24c-.21-.14-.39-.33-.51-.55l-.17-.31c-.05-.09-.09-.18-.12-.27l-.12-.38-.13-.13-1.07-.8-.52-.09c-.13-.02-.25-.06-.37-.11l-.53-.24c-.08-.04-.16-.08-.23-.13l-.76-.52-.96-.33c-.06-.02-.12-.04-.17-.07l-.64-.32c-.25-.12-.46-.32-.61-.56l-.09-.14-.66-.43c-.15-.1-.29-.23-.4-.38l-.16-.22c-.1-.13-.17-.28-.22-.43l-.05-.16c-.03-.09-.05-.17-.06-.26l-.04-.17-.13-.28-1.01-1.35c-.06-.08-.11-.16-.15-.24l-.29-.59c-.04-.09-.08-.18-.1-.28l-.58-2.19-.4-.95-.57-.98-.58-.64-.42-.19-.89.03c-.17,0-.33-.02-.48-.06l-.54-.17c-.25-.08-.48-.22-.66-.41l-.37-.41-1.19-1.34c-.18-.04-.34-.11-.5-.21l-.31-.2c-.13-.09-.25-.2-.35-.32l-.24-.3c-.08-.1-.14-.2-.19-.31l-.18-.39c-.11-.25-.15-.52-.12-.78l-.2-.34c-.07-.11-.12-.23-.16-.36l-.17-.59c-.03-.11-.05-.23-.06-.35l-.1-1.12-.44-1.05c-.08-.2-.12-.41-.12-.62v-.56c.02-.41.2-.79.5-1.07.3-.28.7-.42,1.1-.39,32.33,1.9,65.68,3.34,99.17,4.28.65-20.53,1.29-41.05,1.93-61.58.88-28.16,1.76-56.32,2.66-84.49v-.54c0-.4.16-.78.44-1.06.28-.28.66-.44,1.06-.44h1.13c26.39.71,53.17,1.03,79.68,1.05h.33c.81.03,1.47.69,1.47,1.51,0,13.62.04,27.25.08,40.87.02,6.98.03,13.95.05,20.93.19-.02.39,0,.57.05l.42.12c.13.04.25.09.36.16h.02s.33.07.33.07c.2.04.39.12.56.23l.26.18c.07.05.14.1.2.16l4.62,4.41c.08.08.16.17.22.26l.46.7,1.08.1.11-.12c.09-.11.2-.21.32-.28l.24-.16c.12-.08.24-.14.38-.18l.24-.07c.21-.06.43-.08.65-.05l1.32.18c.18.02.35.08.51.17l.76.41.07-.73c.03-.27.12-.53.28-.74l.27-.37c.29-.39.7-.6,1.23-.61h.41c.3,0,.59.1.84.28l.51.36c.17.12.31.27.42.44l.13.21c.03.05.06.11.09.17h.2c.15.02.29.05.43.11l.54.2c.33.12.6.36.77.66l.28.49c.06.1.11.21.14.33l.2.6.63.55c.06.05.11.11.16.17l.48.58c.35.42.44,1,.24,1.51l-.09.25.06,1.14.92-.05c.08,0,.17,0,.25,0l.56.07c.09.01.18.03.26.05l1.12.3.19-.03.26-.11c.07-.03.15-.06.22-.08l.44-.11c.22-.06.46-.06.69-.01l.61.13c.18.04.34.11.49.2l1.92,1.23.29.1,3.35.69s.02,0,.03,0l1.23-.53c.09-.04.19-.07.29-.09l.62-.13c.11-.02.22-.03.33-.03h.33c.09,0,.18.02.27.04l.89.18c.15.03.29.08.42.16l.31.17c.24.13.43.33.57.56l.32.56.21.14c.11.07.2.16.29.25l.69.78h.63s.2-.29.2-.29l.27-.51c.06-.1.12-.2.2-.29l.43-.49c.19-.21.43-.37.69-.45l.69-.21c.19-.06.4-.08.6-.05l3.48.39.49-.07,1.13-.42c.09-.03.18-.06.28-.08l.69-.12c.44-.08.88.05,1.22.33l.44.37c.34.28.53.7.53,1.14v.87s0,.09,0,.14l-.07.75.1.47c.02.08.03.15.03.23v.21s.09.04.09.04l1.16.21c.07.01.13.03.2.05l.57.19c.51-.07,1.03.13,1.37.53l.21.26c.16.2.27.44.32.69l.06.34c.03.19.03.39-.01.58.04.13.06.26.06.39v.32c0,.13,0,.27-.04.4l-.16.64.54.17.56-.11.67-.42,2.18-2.29s.08-.08.12-.12l.94-.79c.14-.11.29-.2.46-.26l1.07-.38c.37-.13.78-.12,1.14.05l1.05.49c.32.15.58.4.73.72l.26.55c.09.2.14.42.14.64v.48s.8-.07.8-.07c.12-.01.25,0,.37.01l.62.1c.17.03.33.08.48.17l.41.22c.25.14.45.34.59.59l.23.42c.1.17.16.36.18.55l.04.31.56-.05c.07-.07.15-.13.23-.18l.04-.02.05-.12s.04-.08.06-.13l.06-.11c.11-.21.27-.38.46-.52l.43-.3c.34-.24.77-.32,1.17-.23l.2.04s.04-.05.05-.08l.12-.16c.09-.12.2-.23.32-.32l.15-.11c.09-.06.18-.12.27-.16l.31-.15c.51-.32,1.15-.31,1.65.03l.36.24c.07.05.14.11.21.17l.31.3c.09.08.16.18.22.28l.23.36c.1.16.16.33.2.51l.05.27c.09-.2.22-.38.39-.53.37-.32.87-.44,1.34-.33l.38.09.18-.41.02-.42-.03-.33c-.03-.36.08-.72.29-1.01l.19-.26c.11-.15.25-.28.41-.38l.14-.09c.05-.03.11-.06.17-.09l.16-.07c.1-.04.2-.08.31-.1l.93-.2c.09-.02.18-.03.27-.03h.24c.09,0,.18,0,.27,0l.26.04c.11.02.23.05.33.09l.38.15c.12.05.24.12.35.2l.19.15c.08.06.16.13.22.21l.14.16c.1.12.19.26.25.41l.13.32c.04.09.07.18.09.28l.16.77.55-.09c.15-.03.31-.03.46,0l.23.03c.15.02.29.06.42.13l.28.13c.08.04.16.08.23.14l.5.35h.08s.24-.78.24-.78c.03-.11.08-.21.14-.31l.17-.28c.06-.11.14-.21.23-.3l.11-.11c.08-.09.18-.16.28-.22l.14-.09c.21-.13.44-.2.68-.22l.28-.02c.15-.01.3,0,.44.03l.38.09c.06.01.12.03.18.05l.7.26c.2.07.38.19.53.33l.23.22c.14.14.26.31.34.49l.08.19c.14.35.15.73.03,1.08l.34.09c.11.02.21.06.3.11l.61.29c.12.06.23.13.34.22l.15.13c.15.13.27.29.36.46l.89-.08c.13-.01.25,0,.38.02l.5.08c.34.06.65.23.88.49l.67.76s.07.09.11.14l.08.12.05-.09c.22-.41.61-.69,1.07-.76l.71-.12c.12-.02.25-.02.37-.02l.96.08h0s.41-1.04.41-1.04c.08-.21.21-.4.38-.56l.26-.24c.18-.16.39-.28.62-.34l.09-.03.38-.23c.11-.06.23-.12.35-.15l.27-.08c.12-.04.24-.05.36-.06l1.4-.06.57-.27.37-.28c.05-.04.11-.08.17-.11l.38-.21.22-.26c.1-.12.21-.21.34-.29l.34-.21c.35-.22.77-.28,1.16-.18l.28.07c.25.06.48.19.66.36l.18.17,1.03.6c.15-.14.32-.26.51-.33l.04-.02c.06-.13.13-.25.23-.36l.18-.22c.28-.33.69-.53,1.13-.53l.93-.04.12-.1c.06-.06.13-.11.2-.15l.3-.19c.12-.07.24-.13.37-.16l.1-.03.31-.18c.25-.22.56-.35.89-.37.03-.03.05-.06.08-.08l.3-.29c.4-.38.98-.51,1.5-.34l.36.12c.16.05.31.13.44.23l.47.3c.09.04.18.1.26.16l.31.24c.19.14.34.33.44.54l.15.31c.15.03.29.08.42.15h.26c.14.01.27.03.4.07l.21.07c.17.05.32.13.46.24h1.33c.22-.55.74-.93,1.34-.94h.19s.07,0,.11,0c.05-.06.1-.11.16-.16,0-.03.01-.05.02-.08l.15-.5c.08-.27.24-.52.45-.71l.5-.44c.19-.17.43-.29.68-.34l.45-.09c.24-.05.49-.04.73.03l1.84.54c.12.03.23.08.33.14l.32.18c.16.09.3.22.42.36l.14.17.27.05c.18.03.36.1.52.2l.5.31c.08.05.16.11.23.18l.95.84h.75c.13-.01.27,0,.41.04l.2.05c.14.04.27.09.39.17l.23.14c.09.06.18.13.26.2l.18.18c.11.11.21.24.28.38l.08.15c.05.1.09.2.12.3l.17.12c.12.08.23.18.33.29l.16.19c.05.06.09.12.13.18l.31.52.56.5,1.36.17c.06,0,.13.02.19.04l.72.15c.17,0,.34.04.5.11l.4.16c.29.12.54.32.71.59l.24.37.09.04s.02,0,.02.01c.03,0,.06,0,.09-.01l.18-.02c.13-.02.26-.01.39,0l.4.06c.06,0,.12.02.18.04l.38.11c.1.03.2.07.3.12l.26.14c.13-.03.25-.03.38-.03l.59.03c.48.03.92.29,1.18.69.3-.06.62-.03.91.1l.21.09h.38c.08,0,.17,0,.26.02.22.04.45.08.67.12.45.09.84.38,1.05.78l.3.59c.03.07.06.13.09.2l.08.22.32-.07c.43-.1.89.01,1.24.29.02.01.03.03.05.04.25-.4.67-.65,1.14-.69l.47-.04c.26-.02.51.02.75.13l.55.25c.09-.06.18-.12.28-.16l.4-.18c.42-.18.89-.17,1.3.04l.9.43h.02s.21-.12.21-.12c.5-.29,1.11-.27,1.59.05l.71.47.46.17c.58.19.98.72,1.02,1.33,1.01,15.95,1.88,31.77,2.87,50.55h.01c.07.04.14.08.21.13l.36.25c.09.06.18.14.25.22l.14.15c.07.07.13.15.18.24l.48.79.78.34c.1.04.2.1.29.17l.26.19s.09.07.13.11l.58.54s.07.07.11.11l.41.48c.05.05.09.11.13.17l.27.42s.06.09.08.14l.15.3s.03.07.05.11l.22.46.71.93c.1.14.18.29.24.45l.09.29s.03.1.04.15l.3,1.34s0,0,.01.01l.09.11s.05.07.07.1l.08.12c.11.16.18.34.22.53l.03.16c.02.1.03.21.03.31v.19c0,.1,0,.2-.03.29l-.1.6v.85s0,.08,0,.12l-.02.28c0,.07-.02.15-.03.22l-.04.18c-.02.09-.05.17-.08.25l-.07.18.12.22.19.23.75.72.54.13c.06.01.11.03.16.05l.17.06c.09.03.17.07.26.12l.15.09c.18.11.34.26.46.43l.09.13c.13.19.22.4.25.63l.03.17c.04.25.01.5-.07.74.19.13.34.3.45.5l.11.19c.05.09.09.18.12.27l.09.27s.03.09.04.14l.12.51.41.43.25.15c.21.12.39.3.52.51l.05.09c.18.29.25.63.21.97v.11c-.04.23-.13.46-.26.65l-.19.29.36.27s.09.07.13.11l.33.32s.1.1.14.15l.1.13c.05.06.09.12.13.19l.09.15c.03.06.06.12.09.18l.07.18c.03.07.05.14.07.21l.05.2.12.17c.08.12.15.25.2.39l.06.17s.03.1.04.14c.03,0,.07,0,.1.02l.51.1c.52.1.95.47,1.13.98l.19.53c.06.16.08.33.08.5v1.47c0,.06,0,.12,0,.18l-.04.32c-.02.14-.05.28-.11.41l.27.38.24.19c.16.13.3.28.4.46l.13.23c.18.33.23.72.14,1.09ZM267.09,89.5c-.05-.12-.08-.25-.09-.38v-.08s-.03.09-.03.09c-.03.16-.1.32-.18.47l-.36.61.07.35.25.55.02.03.02-.59c0-.13.03-.27.07-.4l.11-.36c.03-.1.07-.19.12-.28Z"/>
</svg>