<?xml version="1.0" encoding="UTF-8"?>
<svg id="Layer_1" data-name="Layer 1" xmlns="http://www.w3.org/2000/svg" xmlns:xlink="http://www.w3.org/1999/xlink" viewBox="0 0 526.13 399.04">
  <defs>
    <style>
      .cls-1 {
        fill: url(#linear-gradient);
      }

      .cls-2 {
        fill: #fff;
      }
    </style>
    <linearGradient id="linear-gradient" x1="184.69" y1="-75.44" x2="315.35" y2="412.19" gradientUnits="userSpaceOnUse">
      <stop offset=".35" stop-color="#fff" stop-opacity=".1"/>
      <stop offset="1" stop-color="#fff" stop-opacity=".9"/>
    </linearGradient>
  </defs>
  <path id="davie_star" data-name="davie/star" class="cls-2" d="M480.45,308.39h-2.32l-2.82,10.76h-10.4v2.2l7.94,4.42-3.12,9.74,1.72,1.3,7.83-6.05,7.8,6.03,1.79-1.25-3.17-9.63,7.89-4.56v-2.19h-10.34l-2.81-10.76h0ZM422.57,266.91h7.58c3.26,0,5.67,1.08,7.24,3.24,1.57,2.16,2.35,5.32,2.35,9.48s-.78,7.31-2.35,9.48c-1.57,2.16-3.98,3.24-7.24,3.24h-7.58v-25.44ZM429.9,289c1.87,0,3.26-.63,4.17-1.88.91-1.25,1.37-3.04,1.37-5.38v-4.23c0-2.33-.46-4.12-1.37-5.38-.91-1.25-2.3-1.88-4.17-1.88h-3.28v18.74h3.28ZM458.29,292.35l-1.93-6.82h-8.09l-1.93,6.82h-4.16l7.44-25.44h5.58l7.44,25.44h-4.34ZM452.46,271.02h-.29l-3.13,11.15h6.56l-3.13-11.15ZM471.41,292.35l-7.18-25.44h4.41l3.35,12.83,2.22,8.64h.22l2.22-8.64,3.39-12.83h4.23l-7.18,25.44h-5.69ZM488.11,292.35v-3.1h5.98v-19.25h-5.98v-3.1h16.04v3.1h-5.98v19.25h5.98v3.1h-16.04ZM510.2,292.35v-25.44h15.93v3.43h-11.85v7.4h11.41v3.43h-11.41v7.76h11.85v3.43h-15.93Z"/>
  <path id="florida_outline" data-name="florida outline" class="cls-1" d="M493.49,299.62l-.61,11.93h-4l.61-11.93h4ZM489.16,342.62l.29,5.82-.42.78-.72-2.42-4.86,1.25-4.91,13.95.38,4.63,1.43,9.75-4,6.05-6.89,4.19-4.74-1.54-1.22,3.37-6.26,3.98-2.45-1.09-5.81-1.61-9.23,5.26-3.71-.26-6.87-4.19.45-6.39,3.29-2.02-7.31-10.37-.07-3.57-9.76-12.96-.64-6.05-11.46-5.61-10.53,1.13-1.52,2.13-7.18-13.02-4.02-16.85-6.92-8.34-7.97-2.27-2.47,3.62-5.02-1.69-7.29-14.11.42-5.93-5.66-7.61-15.12-26.33-10.66-12.65.2-2.86-.59-6.82-2.36-3.41-.64-4.98-7.07-8.13-1.34-2.72,2.49-3.72,1.56-12.07-2.76-3.82,6.78-17.42,1.58-32.01-8.76-7.66.29-4.11-3.6-3.39-1.5-5.36-11.52-1.21-2.71,2.59-.36-.35-2.26-7.46-3.21-.88-1.68-4.71-5.57-5.6-3.31-.57-7.3-5.73.55-7.85-9.39-5.54-2.94-3.69-3.61-5.95-9.54-6.67-7.63-3.99-2.66-.45-2.46-3.56-17.57.17-7.82,3.61-1.44,4.42,2.27,2.61.87,2.59-.52.71-2.65-.19-2.11-2.03-5.11,1.46-10.77,8.73-9.4,5.55-5.96,1.91-8.08-.89-6.34,2.79-5.11-.36.8-7.47-7.52-7.86-7.69-3.18-26.14-17.94-26.04-8.06-30.02-.47-34.99,6.42-.36.35,2.78-22.14-3.3-5.11-5.36-2.66-6.49-8.38,1.66-6.75,154.37-5.25,9.19,19.86,160.47.69,1.06,9.16,4.07,5.16,9.37-1.98,2.95-15.66-4.07-7.14.44-6.29,5.36-2.9,4.52,2.81,13.19,3.27,9.93-.13.68,11.13,3.64,3.49,1.04,11.44,11.42,35.37,16.05,34.88,22.22,32.84,11.83,13.63,2.72,6.54-.07.97-3.03.78-.14,12.73,3.5,12.31,6.38,11.19,14.58,30.22,14.73,29.23h4.46l-15.6-31-14.59-30.25-6.24-10.95-3.21-11.28.1-9.09,2.86-.73.34-4.79-3.33-8.01-12.03-13.83-21.97-32.47-15.78-34.26-11.25-34.83-1.14-12.48-3.59-3.44-.82-13.38-13.23.17-12.08-3-5.95-3.7-9.34,5.06-.68,9.69,3.94,6.91-2.18,11.6-4.33.91-1.83-2.32-1.34-11.56-161.47-.7L162.89,0,2.84,5.44,0,17.01l8.24,10.64,5.2,2.58,1.92,2.96-2.69,21.41-5.37,2.46,4.49,4.14,4.85-1.09,2.39-2.37,33.38-6.12,29.05.46,24.92,7.71,25.81,17.71,7.48,3.13,5.65,5.91-1.05,9.74,10.24.72,6.26-2.75,7.86.87,6.98-2.24,10.13-5.92,10.49-8.48,2.11-.6,1.5,1.44,6.31.44,3.04-4.18-1.79-5.3-1.3-1.5.2-.6,5.46-2.52,14.59-.14,2.21,3.19,3.7.63,6.74,3.51,8.74,6.11,3.24,5.34,3.63,4.58,7.89,4.66-.53,7.49,9.76,7.67,3.04.52,4.04,4.06,2.08,5.83,3.09.85,1.92,6.32,3.85,3.79,4.18-3.99,6.98.73,1.07,3.81,3.03,2.85-.29,4.2,8.8,7.7-1.45,29.43-7.33,18.84,3.1,4.3-1.24,9.57-3.25,4.87,2.6,5.26,6.61,7.6.61,4.74,2.31,3.34.47,5.45-.29,4.17,11.39,13.46,15.09,26.28,4.97,6.72-.39,5.57,8.55,16.55,9.42,3.18,2.55-3.74,4,1.14,5.53,6.67,3.93,16.47,10.5,19.05,4.18-5.82,7.6-.81,8.43,4.13.52,4.95,9.65,12.81.07,3.5,5.55,7.88-1.41.86-.76,10.87,9.77,5.97,5.89.41,8.84-5.04,3.79,1.04,4.27,1.9,9.22-5.86.37-1.01,2.8.91,9.22-5.6,5.34-8.07-1.62-11.08-.31-3.71,3.37-9.57,2.01,6.77,5.51-10.36-.44-9.45-3.89,2.72Z"/>
</svg>