<?xml version="1.0" encoding="UTF-8"?>
<svg id="Layer_1" data-name="Layer 1" xmlns="http://www.w3.org/2000/svg" viewBox="0 0 1385.31 141.4">
  <defs>
    <style>
      .cls-1 {
        fill: #212020;
      }
    </style>
  </defs>
  <path class="cls-1" d="M5.07,31.86c-1.75-4.18-1.83-9.01-.32-13.28,1.23-3.48,3.46-6.58,6.3-8.94,2.83-2.36,6.24-4,9.81-4.91,3.94-1,8.07-1.13,12.11-.64,4.04.49,7.97,1.6,11.82,2.91,5.74,1.94,11.42,4.08,17.33,5.4,4.59,1.03,9.17,2.35,13.87,2.58,1.59.08,3.24-.09,4.63-.85.7-.38,1.32-.91,1.78-1.55.46-.65.75-1.42.83-2.21.08-.86-.1-1.73-.48-2.5-.38-.77-.97-1.43-1.64-1.96-1.36-1.06-3.05-1.58-4.73-1.96-1.67-.38-3.36-.64-5.05-.86V.1c1.95-.15,3.91-.13,5.86.07,3.66.37,7.29,1.34,10.52,3.11,3.23,1.76,6.04,4.37,7.78,7.61,1.89,3.52,2.42,7.77,1.37,11.63-1.05,3.86-3.62,7.24-6.93,9.49-2.93,1.98-6.38,3.11-9.89,3.54-1.34.17-2.68.24-4.02.23v18.83l10.44,10.44-10.44,10.44v23.76c1.1-.73,2.16-1.52,3.19-2.35,5.84-4.75,10.39-11.06,13.11-18.07h3c.27,7.16-1.37,14.38-4.69,20.73-3.68,7.04-9.41,12.98-16.24,17.05-6.83,4.07-14.72,6.3-22.66,6.58-14.56.52-29.23-5.61-39.07-16.35C2.81,96.09-1.93,80.72.73,66.4c1.65-8.85,6.03-17.17,12.43-23.5s14.8-10.6,23.67-12.07l1.5,2.25c-6.79,4.58-12.3,11.05-15.74,18.48l34.38-14.65v47.48s-27.52,11.58-27.52,11.58c2.2,2.18,4.68,4.07,7.38,5.59,6.58,3.69,14.37,5.12,21.86,4.21,4.5-.55,8.89-1.93,12.94-3.97v-26.48l-10.28-10.28,10.28-10.28v-19.25c-.72-.08-1.44-.17-2.16-.28-6.99-1.05-13.8-3.05-20.69-4.64-7.03-1.62-13.97-3.64-21.04-5.08-2.85-.58-5.83-.94-8.67-.29-1.42.33-2.79.91-3.95,1.79-1.16.88-2.1,2.07-2.63,3.42-.62,1.59-.65,3.4-.04,4.99s1.84,2.93,3.38,3.66l-1.5,2.25c-4.14-1.83-7.53-5.29-9.28-9.47ZM20.6,81.71c1.32,3.97,3.35,7.7,5.94,10.99l10.26-4.37v-38.25s-16.26,6.86-16.26,6.86c-2.48,8.02-2.59,16.81.06,24.78Z"/>
  <path class="cls-1" d="M140.12,110.17l4.86-3.38,2.8,3.53-19.49,13.5-16.08-13.64-6,3.75-2.67-3.6,10.5-6.75V32.34c0-.78-.01-1.57-.18-2.33s-.48-1.5-.93-2.13c-.7-.99-1.71-1.73-2.78-2.31-1.14-.62-2.36-1.09-3.61-1.47v-2.25s25.49-18,25.49-18h3v58l19.49-18.26,16.54,13.83,6.17-5,2.76,3.4-6.73,5.46v40.79c0,4.25-.04,8.52-.78,12.71-.74,4.19-2.18,8.27-4.42,11.88-3.21,5.17-8.03,9.29-13.58,11.8-5.81,2.62-12.39,3.52-18.7,2.6v-3.75c3.42-.74,6.61-2.48,9.13-4.91,2.81-2.71,4.76-6.23,5.98-9.93,2-6.05,2.13-12.53,2.13-18.9v-37.49l-9.3-7.7-8.7,8.15v38.54l5.08,5.1Z"/>
  <path class="cls-1" d="M179.88,110.29l7.4-6v-41.21l37.49-19.49,15.75,23.99v.75l-33.74,21v6.75l18.74,12.75,17.25-13.5,2.25,3.75-32.24,26.24-23.21-17.24-6.92,5.61-2.76-3.4ZM223.27,75.08l-13.5-19.49-3,1.69v28.24l16.5-10.43Z"/>
  <path class="cls-1" d="M273.54,62.27c.53-2.36,1.57-4.62,3.08-6.51,1.51-1.9,3.48-3.4,5.68-4.43,3.1-1.46,6.52-1.98,9.93-2.47v-4.06c0-1.58.03-3.17.36-4.71s.96-3.02,1.86-4.33c1.79-2.6,4.52-4.37,7.19-6.06,4.42-2.8,8.83-5.6,13.25-8.41-1.52.12-3.05.08-4.56-.11-3.25-.41-6.34-1.49-9.47-2.37-3.13-.88-6.47-1.5-9.69-.91-1.91.36-3.73,1.14-5.18,2.31-1.45,1.17-2.52,2.71-3.03,4.39h-3.68c2.65-6.46,7.49-12.3,14-15.98,3.76-2.13,8.14-3.41,12.59-3.49,3.51-.07,6.97.58,10.38,1.31s6.84,1.49,10.34,1.62c3.14.12,6.3-.26,9.27-1.17,2.06-.64,4.03-1.52,5.83-2.62l-.97,3.48-23.11,18.11c-.87.68-1.74,1.38-2.48,2.2-.74.82-1.35,1.77-1.77,2.79-.85,2.04-.91,4.31-.91,6.53v22.91s-.01,15.96-.01,15.96c0,3.05-.1,6.14-.85,9.1-.75,2.96-2.09,5.76-3.84,8.26-5.48,7.83-14.31,12.95-23.58,15.28l-1.46-3.75c1.92-1.09,3.61-2.58,4.95-4.33,2.52-3.27,3.73-7.37,4.21-11.47s.39-8.23.39-12.36c0-3.54,0-7.08,0-10.62h-4.78c-.96,0-1.92,0-2.87.17s-1.87.47-2.69.96c-1.65.98-2.84,2.67-3.3,4.53-.27,1.1-.31,2.27-.1,3.39h-2.99c-2.2-3.95-2.95-8.71-1.96-13.12ZM306.7,116.9c-5.3.47-10.55,1.72-15.41,3.91-4.34,1.96-8.35,4.66-11.76,7.98h-3.8c8.46-14.73,23.3-25.74,39.87-29.29.92-1.32,1.72-2.71,2.37-4.18.72-1.61,1.25-3.31,1.55-5.05s.33-3.51.33-5.28v-48.88c5.96-7.67,13.05-14.47,20.96-20.1,8.11-5.78,17.1-10.34,26.55-13.48l25.3,29.68-19.46,13.65c3.36,1.23,6.64,2.7,9.78,4.41,4.1,2.23,7.98,4.85,11.58,7.82v39.26l-52.27,27.03c-10.89-5.68-23.36-8.56-35.6-7.48ZM346.81,16.66c-1.35,1.08-2.54,2.37-3.49,3.81-1.48,2.25-2.41,4.86-2.66,7.54v40.95c0,2.41-.03,4.83-.44,7.2s-1.17,4.69-2.28,6.82c-2.22,4.27-5.74,7.71-9.32,10.93-1.67,1.5-3.36,2.98-5.03,4.47,7.2-.48,14.5.46,21.29,2.88.65.23,1.3.48,1.94.74,0-28.44,0-56.89,0-85.33ZM351.29,55.76l20.8-15.53-20.8-24.49c0,13.34,0,26.68,0,40.02ZM351.29,77.81l20.56-10.38c-2.32-1.62-4.72-3.12-7.19-4.5-4.28-2.39-8.76-4.42-13.37-6.06v20.94ZM351.29,94.23l22.78-11.5v-11.4l-22.78,11.5v11.4ZM361.29,110.95l12.79-5.94v-17.26l-22.78,11.5v4.81c3.59,1.88,6.96,4.2,10,6.89Z"/>
  <path class="cls-1" d="M413.04,102.51v-36.71c0-1.11,0-2.23-.2-3.32-.2-1.09-.61-2.16-1.25-3.06-.65-.9-1.54-1.64-2.56-2.07s-2.17-.56-3.27-.36c-.46.09-.92.22-1.36.39-1.32.48-2.54,1.21-3.62,2.11l-1.59-2.24,20.18-13.03c1.54.57,3.01,1.35,4.35,2.29,2.02,1.42,3.77,3.22,5.12,5.28,1.08,1.64,1.9,3.46,2.37,5.37s.53,3.89.53,5.86v37.62l9.82,9.31,7.42-5.5c-.01-.93-.01-1.86-.02-2.79v-4.77s-.01-32.15-.01-32.15l-8.12-7.19,14.7-13.53,10.44,8.99,5.47-3.8,2.25,3-6.75,5.25v37.39l.08,6.49c.03,2.48.15,5.05,1.25,7.27.68,1.37,1.7,2.58,2.97,3.44l5.81-4.77,2.89,3.91-18.77,12.9c-2.53-.34-4.94-1.48-6.83-3.21-2.53-2.32-4.03-5.6-4.72-8.97-.21-1.01-.35-2.02-.45-3.05l-19.76,15.54-21.31-17.83,4.93-4.07Z"/>
  <path class="cls-1" d="M540.06,60.68c-1.21,2.66-2.7,5.19-4.53,7.46-1.42,1.76-3.05,3.34-4.75,4.85l13.46,9.96v23.62l-30.88,18.77c-1.6-2.84-4.13-5.17-7.15-6.4-1.51-.62-3.14-.96-4.77-.91-1.63.05-3.27.51-4.59,1.46-.94.67-1.71,1.6-2.13,2.68-.41,1.08-.45,2.31-.04,3.39.36.95,1.06,1.77,1.94,2.27l-1.53,4.1c-3.77-1.46-6.88-4.5-8.47-8.21-1.59-3.71-1.63-8-.43-11.86,1.77-5.68,5.91-10.29,10.13-14.49,1.26-1.25,2.55-2.48,3.85-3.68l-11.83-9.33v-21.9l32.33-18.77c1.62,2.39,3.84,4.4,6.45,5.64,1.6.76,3.35,1.22,5.12,1.19s3.54-.58,4.94-1.66c1.51-1.17,2.52-2.96,2.73-4.86h.06s0,0,0,0h4.42c-.59,5.74-1.96,11.42-4.35,16.67ZM509.78,91.06c-3.53,3.03-6.98,6.15-10.31,9.39-1.56,1.51-3.1,3.05-4.51,4.71,2.66-2.09,5.97-3.33,9.34-3.61,3.44-.28,6.95.42,10.05,1.94,4.26,2.08,7.75,5.7,9.72,10.02v-20.38s-8.67-6.9-8.67-6.9l-5.62,4.83ZM526.53,70.9c1.95-1.68,3.87-3.41,5.49-5.41.5-.62.98-1.26,1.42-1.92-1.71.83-3.56,1.39-5.45,1.64-3.29.44-6.69-.05-9.73-1.38-4.37-1.92-7.93-5.6-9.72-10.02v20.38s6.47,6.61,6.47,6.61l11.52-9.89Z"/>
  <path class="cls-1" d="M587.95,110.17l4.86-3.38,2.8,3.53-19.49,13.5-16.08-13.64-6,3.75-2.67-3.6,10.5-6.75V32.34c0-.78-.01-1.57-.18-2.33s-.48-1.5-.93-2.13c-.7-.99-1.71-1.73-2.78-2.31-1.14-.62-2.36-1.09-3.61-1.47v-2.25s25.49-18,25.49-18h3v58l19.49-18.26,16.54,13.83,6.17-5,2.76,3.4-6.73,5.46v40.79c0,4.25-.04,8.52-.78,12.71-.74,4.19-2.18,8.27-4.42,11.88-3.21,5.17-8.03,9.29-13.58,11.8-5.81,2.62-12.39,3.52-18.7,2.6v-3.75c3.42-.74,6.61-2.48,9.13-4.91,2.81-2.71,4.76-6.23,5.98-9.93,2-6.05,2.13-12.53,2.13-18.9v-37.49l-9.3-7.7-8.7,8.15v38.54l5.08,5.1Z"/>
  <path class="cls-1" d="M701.88,57.42l-5.81,4.72-.03,42.47,12.37,8.11,3.39-1.99v-47.37l-6.93-6.29,16.38-13.57,9.82,8.61,6.72-5.45,2.76,3.4-9.23,7.49-.03,49.19-36.3,19.26-15.12-10.91-19.7,10.91-17.88-12.9-4.84,3.92-2.76-3.4,7.04-5.71v-29.49c0-1.85.04-3.7,0-5.54s-.21-3.71-.71-5.48c-.79-2.79-2.48-5.24-4.49-7.33-2.01-2.09-4.28-3.94-5.99-6.28-1.73-2.37-2.81-5.24-2.83-8.17s.98-5.82,2.58-8.28c1.96-3.01,4.78-5.41,7.93-7.13s6.67-2.77,10.24-3.09l.77,2.98c-.19.05-.38.11-.56.18-1.53.52-2.97,1.35-4.08,2.52-1.46,1.54-2.27,3.69-2.12,5.81.15,2.12,1.19,4.1,2.62,5.67,1.43,1.57,3.22,2.75,5,3.9,1.78,1.15,3.58,2.3,5.15,3.73,2.65,2.42,4.48,5.67,5.28,9.17.8,3.49.75,7.12.75,10.7l-.03,32.83,12.37,8.11,2.96-1.74v-47.62l-6.93-6.29,16.38-13.57,15.88,13.92Z"/>
  <path class="cls-1" d="M740.48,109.79l8.01-6.49v-40.22l35.24-20.24,22.49,17.24v42.74l-34.49,20.99c-7.34-5.31-14.69-10.53-22-15.89l-6.49,5.26-2.76-3.4ZM786.73,111.82v-44.99l-18-12v44.99l18,12Z"/>
  <path class="cls-1" d="M812.44,109.79l8.01-6.49v-40.22l35.24-20.24,22.49,17.24v42.74l-34.49,20.99c-7.34-5.31-14.69-10.53-22-15.89l-6.49,5.26-2.76-3.4ZM858.68,111.82v-44.99l-18-12v44.99l18,12Z"/>
  <path class="cls-1" d="M894.97,34.94l-3.19.54V7.43s53.95,47.47,53.95,47.47l5.78-4.69,2.76,3.4-6.69,5.43-.07,44.33-34.29,20.26-22.56-15.47v-48.09l19.05-11.72-14.73-13.41ZM910.82,99.95l16.58,11.53v-47l-16.58-15.1v50.57Z"/>
  <path class="cls-1" d="M987.37,31.86c-1.75-4.18-1.83-9.01-.32-13.28,1.23-3.48,3.46-6.58,6.3-8.94,2.83-2.36,6.24-4,9.81-4.91,3.94-1,8.07-1.13,12.11-.64,4.04.49,7.97,1.6,11.82,2.91,5.74,1.94,11.42,4.08,17.33,5.4,4.59,1.03,9.17,2.35,13.87,2.58,1.59.08,3.24-.09,4.63-.85.7-.38,1.32-.91,1.78-1.55.46-.65.75-1.42.83-2.21.08-.86-.1-1.73-.48-2.5-.38-.77-.97-1.43-1.64-1.96-1.36-1.06-3.05-1.58-4.73-1.96-1.67-.38-3.36-.64-5.05-.86V.1c1.95-.15,3.91-.13,5.86.07,3.66.37,7.29,1.34,10.52,3.11,3.23,1.76,6.04,4.37,7.78,7.61,1.89,3.52,2.42,7.77,1.37,11.63s-3.62,7.24-6.93,9.49c-2.93,1.98-6.38,3.11-9.89,3.54-1.34.17-2.68.24-4.03.23v18.83l10.44,10.44-10.44,10.44v23.76c1.1-.73,2.16-1.52,3.19-2.35,5.84-4.75,10.39-11.06,13.11-18.07h3c.27,7.16-1.37,14.38-4.69,20.73-3.68,7.04-9.41,12.98-16.24,17.05-6.83,4.07-14.72,6.3-22.66,6.58-14.55.52-29.23-5.61-39.07-16.35-9.84-10.74-14.58-26.11-11.92-40.43,1.65-8.85,6.03-17.17,12.43-23.5s14.8-10.6,23.67-12.07l1.5,2.25c-6.79,4.58-12.3,11.05-15.74,18.48l34.38-14.65v47.48s-27.52,11.58-27.52,11.58c2.2,2.18,4.68,4.07,7.38,5.59,6.58,3.69,14.37,5.12,21.86,4.21,4.5-.55,8.89-1.93,12.94-3.97v-26.48l-10.28-10.28,10.28-10.28v-19.25c-.72-.08-1.44-.17-2.16-.28-6.99-1.05-13.8-3.05-20.68-4.64-7.03-1.62-13.97-3.64-21.04-5.08-2.85-.58-5.83-.94-8.67-.29-1.42.33-2.79.91-3.95,1.79-1.16.88-2.1,2.07-2.63,3.42-.62,1.59-.65,3.4-.04,4.99s1.84,2.93,3.38,3.66l-1.5,2.25c-4.14-1.83-7.53-5.29-9.28-9.47ZM1002.9,81.71c1.32,3.97,3.35,7.7,5.94,10.99l10.26-4.37v-38.25l-16.26,6.86c-2.49,8.02-2.59,16.81.06,24.78Z"/>
  <path class="cls-1" d="M1134.59,108.82l-22.49,15.75-15-13.5-5.25,3.75-2.25-3,9.75-6.75v-41.24l-5.25-6.75-6,3.75-2.25-3,20.99-14.25,12,14.25v47.24l5.25,5.25,6.75-4.5,3.75,3ZM1109.28,9.36l13.33,15.18-14.94,13.12-13.33-15.18,14.94-13.12Z"/>
  <path class="cls-1" d="M1195.6,126.06l-15.5-13.49,6.57-6v-38.55l-10.85-9.88-6.83,4.14v44.29l6.75,6-15,13.5-18-14.25,6-5.25v-41.55l-6-6.75-6,3.75-2.25-3,21.74-15,11.5,12.83,20.55-12.83,15.57,13.42,21.51-13.42,16.24,14.01,5.09-4.13,2.76,3.4-7.73,6.27v39.3l7.31,7.46,6.73-5.06.1,5.73-23.2,15.06-15.5-13.49,6.57-6v-38.55l-10.85-9.88-8.23,4.99v41.84l8.12,7.25-17.18,13.86Z"/>
  <path class="cls-1" d="M1255.72,110.29l7.4-6v-41.21l37.49-19.49,15.75,23.99v.75l-33.74,21v6.75l18.75,12.75,17.25-13.5,2.25,3.75-32.24,26.24-23.21-17.24-6.92,5.61-2.76-3.4ZM1299.11,75.08l-13.5-19.49-3,1.69v28.24l16.5-10.43Z"/>
  <path class="cls-1" d="M1380.96,60.68c-1.21,2.66-2.7,5.19-4.53,7.46-1.42,1.76-3.05,3.34-4.75,4.85l13.46,9.96v23.62l-30.88,18.77c-1.6-2.84-4.13-5.17-7.15-6.4-1.51-.62-3.14-.96-4.77-.91-1.63.05-3.27.51-4.59,1.46-.94.67-1.71,1.6-2.13,2.68s-.45,2.31-.04,3.39c.36.95,1.06,1.77,1.94,2.27l-1.53,4.1c-3.77-1.46-6.88-4.5-8.47-8.21s-1.63-8-.43-11.86c1.77-5.68,5.91-10.29,10.13-14.49,1.26-1.25,2.55-2.48,3.85-3.68l-11.83-9.33v-21.9l32.33-18.77c1.62,2.39,3.84,4.4,6.45,5.64,1.6.76,3.35,1.22,5.12,1.19,1.77-.03,3.54-.58,4.94-1.66,1.51-1.17,2.52-2.96,2.73-4.86h.06s0,0,0,0h4.42c-.59,5.74-1.96,11.42-4.35,16.67ZM1350.68,91.06c-3.53,3.03-6.98,6.15-10.31,9.39-1.56,1.51-3.1,3.05-4.51,4.71,2.66-2.09,5.97-3.33,9.34-3.61,3.44-.28,6.95.42,10.05,1.94,4.26,2.08,7.75,5.7,9.72,10.02v-20.38l-8.67-6.9-5.62,4.83ZM1367.43,70.9c1.95-1.68,3.87-3.41,5.49-5.41.5-.62.98-1.26,1.42-1.92-1.71.83-3.56,1.39-5.45,1.64-3.29.44-6.69-.05-9.73-1.38-4.37-1.92-7.93-5.6-9.72-10.02v20.38l6.47,6.61,11.52-9.89Z"/>
</svg>