<?xml version="1.0" encoding="UTF-8"?>
<svg id="Layer_1" data-name="Layer 1" xmlns="http://www.w3.org/2000/svg" viewBox="0 0 383.37 336.81">
  <defs>
    <style>
      .cls-1 {
        fill: #025142;
      }
    </style>
  </defs>
  <path class="cls-1" d="M0,218.62v-9.73c1.16-6.69,4.27-12.62,8.46-18.16-4.82-5.53-7.19-11.51-8.46-17.77l.3-9.57c1.87-12.59,10.84-22.22,22.21-26.89,1.12-14.62,2.98-28.49,7.27-42.23C46.35,41.19,91.28,12.7,144.6,3.86c30.65-5.08,61.49-5.1,92.2-.33,54.16,8.41,100.31,37.32,116.88,91.32,4.14,13.48,5.83,27.35,7.16,41.59,9.95,4.24,18.11,12.57,21.11,22.29,3.69,11.97-.47,23.01-6.73,32.21,6.27,9.33,10.76,20.68,6.47,32.79-3.25,9.15-10.44,18.03-21.34,21.55-4.92,51.51-48.53,91.61-100.77,91.54l-138.13-.18c-51.39-.74-93.68-40.92-98.54-91.31-12.28-4.41-20.47-14.5-22.89-26.69ZM337.85,134.78c-.56-12.28-2.55-23.09-5.99-33.95-14.07-44.92-52.25-67.64-97.31-74.92-41.81-6.75-95.48-4.66-133.34,15.42-36.38,19.31-53.7,52.78-55.85,93.45h292.48ZM350.48,179.65c6.91,0,10.73-7.17,10.22-12.14-.57-5.62-4.95-10.26-11.28-10.26l-316.33.02c-6.47,0-10.77,6.13-10.59,11.55.17,5.13,4.36,10.86,10.6,10.86l317.38-.02ZM205.97,239.35c7.93-10.08,18.84-15.03,31.31-14.79,22.71.43,28.34,15.57,35.87,20.38,5.08,3.25,13.68,3.41,17.86-.88l7.85-8.06c6.7-6.87,15.39-11.19,25.24-11.28l26.23-.23c6.16-.05,10.66-5.97,10.42-11.44-.26-5.81-4.74-10.89-11.33-10.89l-316.33.02c-6.5,0-10.73,6.15-10.6,11.53s4.52,10.73,10.44,10.79l25.46.23c19.97.18,26.97,14.87,34.62,20,4.97,3.34,13.21,3.42,17.96-.37,8.7-6.94,13.54-19.29,35-19.78,12.52-.29,23.35,4.77,31.17,14.59,3.89,4.88,8.22,7.97,14.14,8.03s10.61-2.62,14.71-7.83ZM222.2,254.78c-7.81,9.87-18.33,14.79-30.57,14.81s-23.05-5.2-30.76-15.01c-3.73-4.74-8.15-7.53-13.76-7.62-13.2-.2-14.57,12.25-27.62,18.59-11.91,5.79-26.41,5.43-37.81-1.29-10.53-6.21-13.69-17.28-24.78-17.21l-11.19.07c5.85,38.43,38.84,67.25,77.91,67.23l136.77-.06c38.77-.02,71.34-29.14,77.13-67.15l-12.63-.05c-10.46-.04-13.49,12.49-25.75,18.46-11.22,5.47-24.74,5.42-35.88-.26-12.59-6.41-14.08-18.52-27.11-18.34-5.66.08-10,2.84-13.95,7.83Z"/>
  <path class="cls-1" d="M166.22,45.42c6.32-1.79,12.15,2.2,13.74,7.78,1.7,5.95-1.9,12.1-7.82,13.79s-11.69-1.64-13.61-7.28,1.08-12.42,7.68-14.29Z"/>
  <path class="cls-1" d="M211.13,67.87c6.32-1.79,12.15,2.2,13.74,7.78,1.7,5.95-1.9,12.1-7.82,13.79s-11.69-1.64-13.61-7.28,1.08-12.42,7.68-14.29Z"/>
  <path class="cls-1" d="M121.31,90.33c6.32-1.79,12.15,2.2,13.74,7.78,1.7,5.95-1.9,12.1-7.82,13.79s-11.69-1.64-13.61-7.28,1.08-12.42,7.68-14.29Z"/>
  <path class="cls-1" d="M256.04,90.33c6.32-1.79,12.15,2.2,13.74,7.78,1.7,5.95-1.9,12.1-7.82,13.79s-11.69-1.64-13.61-7.28,1.08-12.42,7.68-14.29Z"/>
</svg>