<?xml version="1.0" encoding="UTF-8"?>
<svg id="Layer_1" data-name="Layer 1" xmlns="http://www.w3.org/2000/svg" viewBox="0 0 510.99 438.49">
  <defs>
    <style>
      .cls-1 {
        fill: #025142;
      }
    </style>
  </defs>
  <path class="cls-1" d="M510.99,10.92v7.98s-98.04,170.01-98.04,170.01l12.52,7.43c6.92,4.11,10.25,12.89,5.8,20.54l-107.85,185.38c-13.55,23.29-40.32,36.23-66.91,36.21l-163.56-.08c-34.81-.02-63.49-21.55-75.89-53.42C5.55,355.38-1.87,324.67.41,292.9c.75-10.47,2.46-19.99,4.84-30.15,11.06-47.22,60.47-75.9,105.28-59.78l173.65,62.44c4.51,1.62,8.1,3.7,11.98,5.84l56.95-98.67c4.25-7.37,12.94-10.27,20.4-6.13l13.5,7.48L482.41,8.49c3.47-6.01,8.89-9.24,15.81-8.35,5.66.73,10.34,5.05,12.77,10.78ZM382.88,240.86l14.89-25.97-25.98-14.89-14.84,25.98,25.93,14.88ZM255.95,408.61c30.12.02,52.17-24.14,51.12-53.37-.27-7.54.39-14.34-.75-22.11-2.54-17.35-14.48-32.92-31.71-39.14l-174.28-62.85c-11.38-4.1-23.02-3.34-33.82.92-18.24,7.19-29.57,22.95-33.25,41.88-3.59,18.49-4.36,36.5-1.14,55.25,2.95,17.16,7.69,33.13,14.75,49.05,8.11,18.28,25.51,30.24,46.07,30.26l163.01.11ZM335.25,323.27l32.61-56.49-26-14.85-22.49,39.06c7.89,9.65,12.42,19.98,15.88,32.28Z"/>
  <path class="cls-1" d="M262.9,363.63l-176.97.05c-8.85,0-15.04-6.93-15.11-14.86-.07-8.17,6.35-15.13,15.34-15.13l176.76.05c8.26,0,14.06,7.24,14.37,14.13.34,7.55-5.05,15.76-14.4,15.76Z"/>
  <path class="cls-1" d="M152.26,303.76h-66.44c-8.63,0-14.95-6.92-15.02-14.82-.06-8.16,6.46-15.13,15.26-15.12l66.18.04c8.38,0,14.56,6.61,14.91,14.23s-5.67,15.68-14.9,15.68Z"/>
</svg>