<?xml version="1.0" encoding="UTF-8"?>
<svg id="Layer_1" data-name="Layer 1" xmlns="http://www.w3.org/2000/svg" viewBox="0 0 333.81 383.26">
  <defs>
    <style>
      .cls-1 {
        fill: #025142;
      }
    </style>
  </defs>
  <path class="cls-1" d="M139.98,0c33.71,15.57,48.41,57.13,30.43,90.54l36.13.04,27.64-70.35c1.79-4.55,5.62-7.5,10.64-7.5h77.78c6.63.01,11.4,5.52,11.21,11.57-.17,5.73-4.83,10.87-11.21,10.87l-70.18.02-21.75,55.39,61.26-.02c6.52,0,11.96,4.49,11.95,11.24l-.04,31.43c-.05,37.67-28.61,69.23-65.96,74.8-2.18,26.83-21.75,48.52-47.76,53.61l.03,50.43,62.51,51.94c3.66,3.04,4.03,8.54,2.36,12.44-1.42,3.29-4.9,6.78-9.61,6.78l-132.28.02c-5.21,0-9.05-3.29-10.55-7.28-1.57-4.2-.76-9.21,2.95-12.29l62.14-51.57v-50.48c-26.4-5.31-45.58-26.99-47.73-53.6-25.1-3.71-46.1-19.1-57.57-41.2-27.02-1.03-49.71-19.02-58.31-42.45-9.73-26.52-1.39-54.7,18.62-71.88,21.09-18.11,50.39-20.87,74.79-7.29,4.89-20.31,18.24-36.71,36.7-45.22h5.81ZM142.48,90.5c19.86-18.98,16.78-50.71-5.5-66.29-13.21,9.33-20.21,24.66-18.39,40.44,5.54,8.05,8.99,16.46,10.71,25.95l13.18-.1ZM53.87,101.34c.55-6.16,5.22-10.75,11.25-10.75h41.17c-5.77-20.57-25.15-33.4-45.75-31.18-20.38,2.2-36.4,18.76-37.95,39.16-1.55,20.48,11.75,39.29,32,44.57-.29-3.7-.66-7.15-.67-10.64l-.06-31.16ZM167.17,138.25l19.08,3.98,11.45-29.21h-121.34s-.02,19.45-.02,19.45l43.44.05c16.19.02,31.75,2.06,47.39,5.72ZM281.49,129.17l-.05-16.14h-59.61s-12.3,31.42-12.3,31.42l70.45.03c1.03-5.01,1.53-9.89,1.52-15.32ZM200.87,166.46l-11.64,29.53c-2.29,5.81-9.06,8.19-14.46,6.08-4.93-1.93-8.7-8.14-6.54-13.71l9.57-24.72-14.19-3.14c-14.93-3.65-29.83-5.52-45.31-5.52h-36.72c9.04,18.94,27.67,31.14,48.66,31.35,7.67.08,12.7,5.87,12.07,13.57-1.8,22.05,15.26,40.57,36.97,40.35s38.02-18.54,36.24-40.39c-.58-7.13,3.97-13.34,11.3-13.42,16.11-.19,31.25-6.97,41.65-19.47l-53.59-.05-14-.45ZM213.59,360.76l-34.67-28.8-34.61,28.76,69.28.05Z"/>
</svg>