<?xml version="1.0" encoding="UTF-8"?>
<svg id="Layer_1" data-name="Layer 1" xmlns="http://www.w3.org/2000/svg" viewBox="0 0 383.24 383.25">
  <defs>
    <style>
      .cls-1 {
        fill: #025142;
      }
    </style>
  </defs>
  <path class="cls-1" d="M147.45,0l4.41,2.35,39.76,39.77L231.37,2.36,236,0h5.01s3.54,1.67,3.54,1.67l31.84,31.76,34.25,14.52c15.91,6.74,29.12,18.19,37.76,33.29l34.83,61.15v5.06c-1.42,3.53-3.47,5.88-6.93,8.17l-59.92,39.7-.02,177.15c0,6.22-5.23,10.38-11.1,10.77H77.97c-6.38-.42-11.13-4.92-11.13-11.43v-176.51S5.16,154.4,5.16,154.4c-5.42-3.6-6.64-10.29-3.33-15.64l33.29-57.98c8.44-14.71,21.45-25.98,36.95-32.56l34.73-14.74L138.66,1.68l3.73-1.68h5.05ZM159.88,73.87l15.91-15.92-30.89-30.89-15.93,15.94,30.92,30.86ZM223.42,73.86l30.84-30.87-15.91-15.94-30.92,30.92,16,15.89ZM357.05,141.43l-27.78-48.48c-6.36-10.89-15.43-18.91-26.87-24.13l-29.71-12.54-41.59,41.57c-3.95,3.95-10.97,4.25-14.89.4l-13.34-13.1-.04,26.43c0,6.65-5.25,11.65-11.59,11.45s-10.87-5.04-10.87-11.46l-.03-26.42-13.34,13.09c-3.93,3.85-10.95,3.55-14.89-.4l-41.59-41.57-30.69,13.11c-11.35,4.85-19.94,13.46-26.16,24l-27.49,48,40.56,26.89.12-25.26c-.09-6.31,4.81-11.24,10.61-11.46,6.12-.24,11.3,4.11,11.81,10.77v218.44s204.63,0,204.63,0v-218.45c.49-6.62,5.68-10.98,11.82-10.76,5.39.19,10.52,4.76,10.56,10.81l.18,25.93,40.57-26.88Z"/>
  <path class="cls-1" d="M271.24,189.83c-.54,18.41-16.09,31.39-33.97,29.45-17.63,1.9-32.84-10.67-33.95-28.38l.04-41.98c0-5.82,5.05-10.88,10.86-10.88h46.11c5.83,0,10.84,5.05,10.85,10.88l.06,40.92ZM241.07,196.96c4.25.06,7.69-3.2,7.68-7.55l-.02-28.94-22.95.04v28.91c.08,4.33,3.37,7.6,7.71,7.54h7.58Z"/>
</svg>