<?xml version="1.0" encoding="UTF-8"?>
<svg id="Layer_1" data-name="Layer 1" xmlns="http://www.w3.org/2000/svg" viewBox="0 0 383.26 269.4">
  <defs>
    <style>
      .cls-1 {
        fill: #025142;
      }
    </style>
  </defs>
  <path class="cls-1" d="M0,197.28v-5.71c1.77-3.63,4.47-6.66,7.92-7.64,10.74-3.05,13.41,8.94,29.85,15.53,10.9,4.37,22.73,4.32,33.86-.01,9.1-3.54,18.22-7.96,25.41-15.06l48.01-47.43-22-22.11c-10.23-10.28-14.42-24.47-12.09-39.06,2.09-13.03,10.31-24.35,22.48-31.64L198.82,4.99c16.2-9.7,36.49-4.81,46.25,10.86s5.39,36.58-10.72,46.29l-42.87,25.84,35.35,35.27c-5.76-27.99,13.58-52.99,40.8-54.97s49.64,20.55,47.84,47.57c-1.83,27.33-26.64,46.76-54.76,41.19l29.35,29.54c20.7,20.84,53.31,20.62,74.17.03,4.52-4.46,11.76-4.05,15.88.29s4.36,11.17-.09,15.63c-26.43,26.43-68.52,29.34-98.56,6.95-26.72,19.95-63.1,19.96-89.82-.02-26.72,20-63.11,19.96-89.81.02-30.38,22.65-72.97,19.36-99.33-7.71L0,197.28ZM183.85,186.51c4.99-4.29,11.12-3.93,15.72.15,17.58,17.49,44.87,20.32,65.52,6.79l-99.73-99.72c-4.97-4.97-4.32-13.61,1.77-17.28l55.55-33.44c5.41-3.26,6.36-10.65,3.19-15.51-3-4.59-9.56-6.8-14.87-3.61l-67.72,40.63c-6.2,3.72-9.56,10.06-10.34,16.47-.87,7.15,1.68,13.69,6.78,18.78l29.56,29.55c3.51,4.33,4.15,10.91-.12,15.19l-49.7,49.78c21.02,12.7,47.24,9.31,64.39-7.79ZM267.2,90.93c-13.03,2.12-20.92,14.25-18.46,26.57,2.34,11.73,13.64,19.81,25.97,17.65,11.72-2.05,20.13-13.48,18.14-25.68-1.91-11.72-12.92-20.61-25.65-18.54Z"/>
  <path class="cls-1" d="M0,242.25v-5.77c1.79-3.61,4.44-6.7,7.95-7.64,4.09-1.1,8.2-.2,11.13,2.71,20.84,20.68,54.01,20.66,74.87.01,4.33-4.28,11.35-4.29,15.69,0,20.67,20.45,53.45,20.45,74.14,0,4.33-4.28,11.35-4.29,15.69,0,20.67,20.45,53.45,20.45,74.14,0,4.32-4.27,11.36-4.29,15.68,0,21.08,20.87,54.37,20.57,75.3-.32,4.38-4.37,11.65-3.47,15.48.55,4.13,4.34,4.4,11.19-.07,15.65-26.43,26.43-68.52,29.34-98.56,6.95-26.72,19.95-63.1,19.96-89.81-.02-26.72,19.99-63.11,19.96-89.81.02-30.39,22.65-72.97,19.37-99.33-7.71L0,242.25Z"/>
</svg>